M48
; DRILL file {KiCad 5.1.5-52549c5~84~ubuntu18.04.1} date Mon 27 Jun 2022 05:46:48 PM -03
; FORMAT={-:-/ absolute / metric / decimal}
; #@! TF.CreationDate,2022-06-27T17:46:48-03:00
; #@! TF.GenerationSoftware,Kicad,Pcbnew,5.1.5-52549c5~84~ubuntu18.04.1
FMAT,2
METRIC
T1C0.600
T2C0.800
T3C1.000
T4C1.199
%
G90
G05
T1
X199.644Y-105.561
X199.644Y-107.061
T2
X178.308Y-105.664
X178.308Y-109.464
T3
X196.175Y-107.228
X196.342Y-93.599
X186.69Y-81.788
X186.69Y-90.932
X201.93Y-81.788
X201.93Y-90.932
X178.435Y-98.425
X178.435Y-100.965
X208.407Y-84.455
X208.407Y-86.995
X208.407Y-89.535
X208.407Y-92.075
X178.435Y-93.853
X180.975Y-93.853
X191.008Y-93.726
X189.23Y-110.363
X191.77Y-110.363
X194.31Y-110.363
T4
X173.101Y-89.027
X173.101Y-93.98
X207.772Y-103.251
X207.772Y-97.663
X207.772Y-108.712
X173.101Y-84.074
T0
M30
