G04 #@! TF.GenerationSoftware,KiCad,Pcbnew,5.1.5-52549c5~84~ubuntu18.04.1*
G04 #@! TF.CreationDate,2022-06-27T18:00:06-03:00*
G04 #@! TF.ProjectId,pressure-dash,70726573-7375-4726-952d-646173682e6b,rev?*
G04 #@! TF.SameCoordinates,PXa115cb0PY6b4f310*
G04 #@! TF.FileFunction,Copper,L1,Top*
G04 #@! TF.FilePolarity,Positive*
%FSLAX46Y46*%
G04 Gerber Fmt 4.6, Leading zero omitted, Abs format (unit mm)*
G04 Created by KiCad (PCBNEW 5.1.5-52549c5~84~ubuntu18.04.1) date 2022-06-27 18:00:06*
%MOMM*%
%LPD*%
G04 APERTURE LIST*
%ADD10R,1.700000X1.700000*%
%ADD11O,1.700000X1.700000*%
%ADD12C,3.500120*%
%ADD13C,1.200000*%
%ADD14R,1.200000X1.200000*%
%ADD15C,1.500000*%
%ADD16R,0.550000X1.600000*%
%ADD17R,1.600000X0.550000*%
%ADD18C,0.100000*%
%ADD19R,2.300000X2.500000*%
%ADD20C,2.000000*%
%ADD21C,0.500000*%
%ADD22C,0.800000*%
%ADD23C,0.300000*%
G04 APERTURE END LIST*
D10*
X22098000Y18796000D03*
X9525000Y18669000D03*
D11*
X12065000Y18669000D03*
X20320000Y2794000D03*
X22860000Y2794000D03*
D10*
X25400000Y2794000D03*
D12*
X4191000Y28448000D03*
X38862000Y14859000D03*
X38862000Y9271000D03*
X38862000Y3810000D03*
X4191000Y18542000D03*
X4191000Y23495000D03*
D13*
X30734000Y6961000D03*
D14*
X30734000Y5461000D03*
D15*
X9398000Y3058000D03*
X9398000Y6858000D03*
D16*
X16123000Y13902000D03*
X16923000Y13902000D03*
X17723000Y13902000D03*
X18523000Y13902000D03*
X19323000Y13902000D03*
X20123000Y13902000D03*
X20923000Y13902000D03*
X21723000Y13902000D03*
D17*
X23173000Y12452000D03*
X23173000Y11652000D03*
X23173000Y10852000D03*
X23173000Y10052000D03*
X23173000Y9252000D03*
X23173000Y8452000D03*
X23173000Y7652000D03*
X23173000Y6852000D03*
D16*
X21723000Y5402000D03*
X20923000Y5402000D03*
X20123000Y5402000D03*
X19323000Y5402000D03*
X18523000Y5402000D03*
X17723000Y5402000D03*
X16923000Y5402000D03*
X16123000Y5402000D03*
D17*
X14673000Y6852000D03*
X14673000Y7652000D03*
X14673000Y8452000D03*
X14673000Y9252000D03*
X14673000Y10052000D03*
X14673000Y10852000D03*
X14673000Y11652000D03*
X14673000Y12452000D03*
G04 #@! TA.AperFunction,ComponentPad*
D18*
G36*
X32020000Y20590000D02*
G01*
X32020000Y22590000D01*
X34020000Y22590000D01*
X34020000Y20590000D01*
X32020000Y20590000D01*
G37*
G04 #@! TD.AperFunction*
G04 #@! TA.AperFunction,ComponentPad*
G36*
X32020000Y29734000D02*
G01*
X32020000Y31734000D01*
X34020000Y31734000D01*
X34020000Y29734000D01*
X32020000Y29734000D01*
G37*
G04 #@! TD.AperFunction*
G04 #@! TA.AperFunction,ComponentPad*
G36*
X16780000Y20590000D02*
G01*
X16780000Y22590000D01*
X18780000Y22590000D01*
X18780000Y20590000D01*
X16780000Y20590000D01*
G37*
G04 #@! TD.AperFunction*
G04 #@! TA.AperFunction,ComponentPad*
G36*
X16780000Y29734000D02*
G01*
X16780000Y31734000D01*
X18780000Y31734000D01*
X18780000Y29734000D01*
X16780000Y29734000D01*
G37*
G04 #@! TD.AperFunction*
G04 #@! TA.AperFunction,SMDPad,CuDef*
G36*
X19564779Y19813856D02*
G01*
X19587834Y19810437D01*
X19610443Y19804773D01*
X19632387Y19796921D01*
X19653457Y19786956D01*
X19673448Y19774974D01*
X19692168Y19761090D01*
X19709438Y19745438D01*
X19725090Y19728168D01*
X19738974Y19709448D01*
X19750956Y19689457D01*
X19760921Y19668387D01*
X19768773Y19646443D01*
X19774437Y19623834D01*
X19777856Y19600779D01*
X19779000Y19577500D01*
X19779000Y19002500D01*
X19777856Y18979221D01*
X19774437Y18956166D01*
X19768773Y18933557D01*
X19760921Y18911613D01*
X19750956Y18890543D01*
X19738974Y18870552D01*
X19725090Y18851832D01*
X19709438Y18834562D01*
X19692168Y18818910D01*
X19673448Y18805026D01*
X19653457Y18793044D01*
X19632387Y18783079D01*
X19610443Y18775227D01*
X19587834Y18769563D01*
X19564779Y18766144D01*
X19541500Y18765000D01*
X19066500Y18765000D01*
X19043221Y18766144D01*
X19020166Y18769563D01*
X18997557Y18775227D01*
X18975613Y18783079D01*
X18954543Y18793044D01*
X18934552Y18805026D01*
X18915832Y18818910D01*
X18898562Y18834562D01*
X18882910Y18851832D01*
X18869026Y18870552D01*
X18857044Y18890543D01*
X18847079Y18911613D01*
X18839227Y18933557D01*
X18833563Y18956166D01*
X18830144Y18979221D01*
X18829000Y19002500D01*
X18829000Y19577500D01*
X18830144Y19600779D01*
X18833563Y19623834D01*
X18839227Y19646443D01*
X18847079Y19668387D01*
X18857044Y19689457D01*
X18869026Y19709448D01*
X18882910Y19728168D01*
X18898562Y19745438D01*
X18915832Y19761090D01*
X18934552Y19774974D01*
X18954543Y19786956D01*
X18975613Y19796921D01*
X18997557Y19804773D01*
X19020166Y19810437D01*
X19043221Y19813856D01*
X19066500Y19815000D01*
X19541500Y19815000D01*
X19564779Y19813856D01*
G37*
G04 #@! TD.AperFunction*
G04 #@! TA.AperFunction,SMDPad,CuDef*
G36*
X19564779Y18063856D02*
G01*
X19587834Y18060437D01*
X19610443Y18054773D01*
X19632387Y18046921D01*
X19653457Y18036956D01*
X19673448Y18024974D01*
X19692168Y18011090D01*
X19709438Y17995438D01*
X19725090Y17978168D01*
X19738974Y17959448D01*
X19750956Y17939457D01*
X19760921Y17918387D01*
X19768773Y17896443D01*
X19774437Y17873834D01*
X19777856Y17850779D01*
X19779000Y17827500D01*
X19779000Y17252500D01*
X19777856Y17229221D01*
X19774437Y17206166D01*
X19768773Y17183557D01*
X19760921Y17161613D01*
X19750956Y17140543D01*
X19738974Y17120552D01*
X19725090Y17101832D01*
X19709438Y17084562D01*
X19692168Y17068910D01*
X19673448Y17055026D01*
X19653457Y17043044D01*
X19632387Y17033079D01*
X19610443Y17025227D01*
X19587834Y17019563D01*
X19564779Y17016144D01*
X19541500Y17015000D01*
X19066500Y17015000D01*
X19043221Y17016144D01*
X19020166Y17019563D01*
X18997557Y17025227D01*
X18975613Y17033079D01*
X18954543Y17043044D01*
X18934552Y17055026D01*
X18915832Y17068910D01*
X18898562Y17084562D01*
X18882910Y17101832D01*
X18869026Y17120552D01*
X18857044Y17140543D01*
X18847079Y17161613D01*
X18839227Y17183557D01*
X18833563Y17206166D01*
X18830144Y17229221D01*
X18829000Y17252500D01*
X18829000Y17827500D01*
X18830144Y17850779D01*
X18833563Y17873834D01*
X18839227Y17896443D01*
X18847079Y17918387D01*
X18857044Y17939457D01*
X18869026Y17959448D01*
X18882910Y17978168D01*
X18898562Y17995438D01*
X18915832Y18011090D01*
X18934552Y18024974D01*
X18954543Y18036956D01*
X18975613Y18046921D01*
X18997557Y18054773D01*
X19020166Y18060437D01*
X19043221Y18063856D01*
X19066500Y18065000D01*
X19541500Y18065000D01*
X19564779Y18063856D01*
G37*
G04 #@! TD.AperFunction*
G04 #@! TA.AperFunction,SMDPad,CuDef*
G36*
X35856779Y15332856D02*
G01*
X35879834Y15329437D01*
X35902443Y15323773D01*
X35924387Y15315921D01*
X35945457Y15305956D01*
X35965448Y15293974D01*
X35984168Y15280090D01*
X36001438Y15264438D01*
X36017090Y15247168D01*
X36030974Y15228448D01*
X36042956Y15208457D01*
X36052921Y15187387D01*
X36060773Y15165443D01*
X36066437Y15142834D01*
X36069856Y15119779D01*
X36071000Y15096500D01*
X36071000Y14621500D01*
X36069856Y14598221D01*
X36066437Y14575166D01*
X36060773Y14552557D01*
X36052921Y14530613D01*
X36042956Y14509543D01*
X36030974Y14489552D01*
X36017090Y14470832D01*
X36001438Y14453562D01*
X35984168Y14437910D01*
X35965448Y14424026D01*
X35945457Y14412044D01*
X35924387Y14402079D01*
X35902443Y14394227D01*
X35879834Y14388563D01*
X35856779Y14385144D01*
X35833500Y14384000D01*
X35258500Y14384000D01*
X35235221Y14385144D01*
X35212166Y14388563D01*
X35189557Y14394227D01*
X35167613Y14402079D01*
X35146543Y14412044D01*
X35126552Y14424026D01*
X35107832Y14437910D01*
X35090562Y14453562D01*
X35074910Y14470832D01*
X35061026Y14489552D01*
X35049044Y14509543D01*
X35039079Y14530613D01*
X35031227Y14552557D01*
X35025563Y14575166D01*
X35022144Y14598221D01*
X35021000Y14621500D01*
X35021000Y15096500D01*
X35022144Y15119779D01*
X35025563Y15142834D01*
X35031227Y15165443D01*
X35039079Y15187387D01*
X35049044Y15208457D01*
X35061026Y15228448D01*
X35074910Y15247168D01*
X35090562Y15264438D01*
X35107832Y15280090D01*
X35126552Y15293974D01*
X35146543Y15305956D01*
X35167613Y15315921D01*
X35189557Y15323773D01*
X35212166Y15329437D01*
X35235221Y15332856D01*
X35258500Y15334000D01*
X35833500Y15334000D01*
X35856779Y15332856D01*
G37*
G04 #@! TD.AperFunction*
G04 #@! TA.AperFunction,SMDPad,CuDef*
G36*
X34106779Y15332856D02*
G01*
X34129834Y15329437D01*
X34152443Y15323773D01*
X34174387Y15315921D01*
X34195457Y15305956D01*
X34215448Y15293974D01*
X34234168Y15280090D01*
X34251438Y15264438D01*
X34267090Y15247168D01*
X34280974Y15228448D01*
X34292956Y15208457D01*
X34302921Y15187387D01*
X34310773Y15165443D01*
X34316437Y15142834D01*
X34319856Y15119779D01*
X34321000Y15096500D01*
X34321000Y14621500D01*
X34319856Y14598221D01*
X34316437Y14575166D01*
X34310773Y14552557D01*
X34302921Y14530613D01*
X34292956Y14509543D01*
X34280974Y14489552D01*
X34267090Y14470832D01*
X34251438Y14453562D01*
X34234168Y14437910D01*
X34215448Y14424026D01*
X34195457Y14412044D01*
X34174387Y14402079D01*
X34152443Y14394227D01*
X34129834Y14388563D01*
X34106779Y14385144D01*
X34083500Y14384000D01*
X33508500Y14384000D01*
X33485221Y14385144D01*
X33462166Y14388563D01*
X33439557Y14394227D01*
X33417613Y14402079D01*
X33396543Y14412044D01*
X33376552Y14424026D01*
X33357832Y14437910D01*
X33340562Y14453562D01*
X33324910Y14470832D01*
X33311026Y14489552D01*
X33299044Y14509543D01*
X33289079Y14530613D01*
X33281227Y14552557D01*
X33275563Y14575166D01*
X33272144Y14598221D01*
X33271000Y14621500D01*
X33271000Y15096500D01*
X33272144Y15119779D01*
X33275563Y15142834D01*
X33281227Y15165443D01*
X33289079Y15187387D01*
X33299044Y15208457D01*
X33311026Y15228448D01*
X33324910Y15247168D01*
X33340562Y15264438D01*
X33357832Y15280090D01*
X33376552Y15293974D01*
X33396543Y15305956D01*
X33417613Y15315921D01*
X33439557Y15323773D01*
X33462166Y15329437D01*
X33485221Y15332856D01*
X33508500Y15334000D01*
X34083500Y15334000D01*
X34106779Y15332856D01*
G37*
G04 #@! TD.AperFunction*
G04 #@! TA.AperFunction,SMDPad,CuDef*
G36*
X35856779Y9744856D02*
G01*
X35879834Y9741437D01*
X35902443Y9735773D01*
X35924387Y9727921D01*
X35945457Y9717956D01*
X35965448Y9705974D01*
X35984168Y9692090D01*
X36001438Y9676438D01*
X36017090Y9659168D01*
X36030974Y9640448D01*
X36042956Y9620457D01*
X36052921Y9599387D01*
X36060773Y9577443D01*
X36066437Y9554834D01*
X36069856Y9531779D01*
X36071000Y9508500D01*
X36071000Y9033500D01*
X36069856Y9010221D01*
X36066437Y8987166D01*
X36060773Y8964557D01*
X36052921Y8942613D01*
X36042956Y8921543D01*
X36030974Y8901552D01*
X36017090Y8882832D01*
X36001438Y8865562D01*
X35984168Y8849910D01*
X35965448Y8836026D01*
X35945457Y8824044D01*
X35924387Y8814079D01*
X35902443Y8806227D01*
X35879834Y8800563D01*
X35856779Y8797144D01*
X35833500Y8796000D01*
X35258500Y8796000D01*
X35235221Y8797144D01*
X35212166Y8800563D01*
X35189557Y8806227D01*
X35167613Y8814079D01*
X35146543Y8824044D01*
X35126552Y8836026D01*
X35107832Y8849910D01*
X35090562Y8865562D01*
X35074910Y8882832D01*
X35061026Y8901552D01*
X35049044Y8921543D01*
X35039079Y8942613D01*
X35031227Y8964557D01*
X35025563Y8987166D01*
X35022144Y9010221D01*
X35021000Y9033500D01*
X35021000Y9508500D01*
X35022144Y9531779D01*
X35025563Y9554834D01*
X35031227Y9577443D01*
X35039079Y9599387D01*
X35049044Y9620457D01*
X35061026Y9640448D01*
X35074910Y9659168D01*
X35090562Y9676438D01*
X35107832Y9692090D01*
X35126552Y9705974D01*
X35146543Y9717956D01*
X35167613Y9727921D01*
X35189557Y9735773D01*
X35212166Y9741437D01*
X35235221Y9744856D01*
X35258500Y9746000D01*
X35833500Y9746000D01*
X35856779Y9744856D01*
G37*
G04 #@! TD.AperFunction*
G04 #@! TA.AperFunction,SMDPad,CuDef*
G36*
X34106779Y9744856D02*
G01*
X34129834Y9741437D01*
X34152443Y9735773D01*
X34174387Y9727921D01*
X34195457Y9717956D01*
X34215448Y9705974D01*
X34234168Y9692090D01*
X34251438Y9676438D01*
X34267090Y9659168D01*
X34280974Y9640448D01*
X34292956Y9620457D01*
X34302921Y9599387D01*
X34310773Y9577443D01*
X34316437Y9554834D01*
X34319856Y9531779D01*
X34321000Y9508500D01*
X34321000Y9033500D01*
X34319856Y9010221D01*
X34316437Y8987166D01*
X34310773Y8964557D01*
X34302921Y8942613D01*
X34292956Y8921543D01*
X34280974Y8901552D01*
X34267090Y8882832D01*
X34251438Y8865562D01*
X34234168Y8849910D01*
X34215448Y8836026D01*
X34195457Y8824044D01*
X34174387Y8814079D01*
X34152443Y8806227D01*
X34129834Y8800563D01*
X34106779Y8797144D01*
X34083500Y8796000D01*
X33508500Y8796000D01*
X33485221Y8797144D01*
X33462166Y8800563D01*
X33439557Y8806227D01*
X33417613Y8814079D01*
X33396543Y8824044D01*
X33376552Y8836026D01*
X33357832Y8849910D01*
X33340562Y8865562D01*
X33324910Y8882832D01*
X33311026Y8901552D01*
X33299044Y8921543D01*
X33289079Y8942613D01*
X33281227Y8964557D01*
X33275563Y8987166D01*
X33272144Y9010221D01*
X33271000Y9033500D01*
X33271000Y9508500D01*
X33272144Y9531779D01*
X33275563Y9554834D01*
X33281227Y9577443D01*
X33289079Y9599387D01*
X33299044Y9620457D01*
X33311026Y9640448D01*
X33324910Y9659168D01*
X33340562Y9676438D01*
X33357832Y9692090D01*
X33376552Y9705974D01*
X33396543Y9717956D01*
X33417613Y9727921D01*
X33439557Y9735773D01*
X33462166Y9741437D01*
X33485221Y9744856D01*
X33508500Y9746000D01*
X34083500Y9746000D01*
X34106779Y9744856D01*
G37*
G04 #@! TD.AperFunction*
G04 #@! TA.AperFunction,SMDPad,CuDef*
G36*
X35856779Y4283856D02*
G01*
X35879834Y4280437D01*
X35902443Y4274773D01*
X35924387Y4266921D01*
X35945457Y4256956D01*
X35965448Y4244974D01*
X35984168Y4231090D01*
X36001438Y4215438D01*
X36017090Y4198168D01*
X36030974Y4179448D01*
X36042956Y4159457D01*
X36052921Y4138387D01*
X36060773Y4116443D01*
X36066437Y4093834D01*
X36069856Y4070779D01*
X36071000Y4047500D01*
X36071000Y3572500D01*
X36069856Y3549221D01*
X36066437Y3526166D01*
X36060773Y3503557D01*
X36052921Y3481613D01*
X36042956Y3460543D01*
X36030974Y3440552D01*
X36017090Y3421832D01*
X36001438Y3404562D01*
X35984168Y3388910D01*
X35965448Y3375026D01*
X35945457Y3363044D01*
X35924387Y3353079D01*
X35902443Y3345227D01*
X35879834Y3339563D01*
X35856779Y3336144D01*
X35833500Y3335000D01*
X35258500Y3335000D01*
X35235221Y3336144D01*
X35212166Y3339563D01*
X35189557Y3345227D01*
X35167613Y3353079D01*
X35146543Y3363044D01*
X35126552Y3375026D01*
X35107832Y3388910D01*
X35090562Y3404562D01*
X35074910Y3421832D01*
X35061026Y3440552D01*
X35049044Y3460543D01*
X35039079Y3481613D01*
X35031227Y3503557D01*
X35025563Y3526166D01*
X35022144Y3549221D01*
X35021000Y3572500D01*
X35021000Y4047500D01*
X35022144Y4070779D01*
X35025563Y4093834D01*
X35031227Y4116443D01*
X35039079Y4138387D01*
X35049044Y4159457D01*
X35061026Y4179448D01*
X35074910Y4198168D01*
X35090562Y4215438D01*
X35107832Y4231090D01*
X35126552Y4244974D01*
X35146543Y4256956D01*
X35167613Y4266921D01*
X35189557Y4274773D01*
X35212166Y4280437D01*
X35235221Y4283856D01*
X35258500Y4285000D01*
X35833500Y4285000D01*
X35856779Y4283856D01*
G37*
G04 #@! TD.AperFunction*
G04 #@! TA.AperFunction,SMDPad,CuDef*
G36*
X34106779Y4283856D02*
G01*
X34129834Y4280437D01*
X34152443Y4274773D01*
X34174387Y4266921D01*
X34195457Y4256956D01*
X34215448Y4244974D01*
X34234168Y4231090D01*
X34251438Y4215438D01*
X34267090Y4198168D01*
X34280974Y4179448D01*
X34292956Y4159457D01*
X34302921Y4138387D01*
X34310773Y4116443D01*
X34316437Y4093834D01*
X34319856Y4070779D01*
X34321000Y4047500D01*
X34321000Y3572500D01*
X34319856Y3549221D01*
X34316437Y3526166D01*
X34310773Y3503557D01*
X34302921Y3481613D01*
X34292956Y3460543D01*
X34280974Y3440552D01*
X34267090Y3421832D01*
X34251438Y3404562D01*
X34234168Y3388910D01*
X34215448Y3375026D01*
X34195457Y3363044D01*
X34174387Y3353079D01*
X34152443Y3345227D01*
X34129834Y3339563D01*
X34106779Y3336144D01*
X34083500Y3335000D01*
X33508500Y3335000D01*
X33485221Y3336144D01*
X33462166Y3339563D01*
X33439557Y3345227D01*
X33417613Y3353079D01*
X33396543Y3363044D01*
X33376552Y3375026D01*
X33357832Y3388910D01*
X33340562Y3404562D01*
X33324910Y3421832D01*
X33311026Y3440552D01*
X33299044Y3460543D01*
X33289079Y3481613D01*
X33281227Y3503557D01*
X33275563Y3526166D01*
X33272144Y3549221D01*
X33271000Y3572500D01*
X33271000Y4047500D01*
X33272144Y4070779D01*
X33275563Y4093834D01*
X33281227Y4116443D01*
X33289079Y4138387D01*
X33299044Y4159457D01*
X33311026Y4179448D01*
X33324910Y4198168D01*
X33340562Y4215438D01*
X33357832Y4231090D01*
X33376552Y4244974D01*
X33396543Y4256956D01*
X33417613Y4266921D01*
X33439557Y4274773D01*
X33462166Y4280437D01*
X33485221Y4283856D01*
X33508500Y4285000D01*
X34083500Y4285000D01*
X34106779Y4283856D01*
G37*
G04 #@! TD.AperFunction*
G04 #@! TA.AperFunction,SMDPad,CuDef*
G36*
X35842779Y2759856D02*
G01*
X35865834Y2756437D01*
X35888443Y2750773D01*
X35910387Y2742921D01*
X35931457Y2732956D01*
X35951448Y2720974D01*
X35970168Y2707090D01*
X35987438Y2691438D01*
X36003090Y2674168D01*
X36016974Y2655448D01*
X36028956Y2635457D01*
X36038921Y2614387D01*
X36046773Y2592443D01*
X36052437Y2569834D01*
X36055856Y2546779D01*
X36057000Y2523500D01*
X36057000Y2048500D01*
X36055856Y2025221D01*
X36052437Y2002166D01*
X36046773Y1979557D01*
X36038921Y1957613D01*
X36028956Y1936543D01*
X36016974Y1916552D01*
X36003090Y1897832D01*
X35987438Y1880562D01*
X35970168Y1864910D01*
X35951448Y1851026D01*
X35931457Y1839044D01*
X35910387Y1829079D01*
X35888443Y1821227D01*
X35865834Y1815563D01*
X35842779Y1812144D01*
X35819500Y1811000D01*
X35244500Y1811000D01*
X35221221Y1812144D01*
X35198166Y1815563D01*
X35175557Y1821227D01*
X35153613Y1829079D01*
X35132543Y1839044D01*
X35112552Y1851026D01*
X35093832Y1864910D01*
X35076562Y1880562D01*
X35060910Y1897832D01*
X35047026Y1916552D01*
X35035044Y1936543D01*
X35025079Y1957613D01*
X35017227Y1979557D01*
X35011563Y2002166D01*
X35008144Y2025221D01*
X35007000Y2048500D01*
X35007000Y2523500D01*
X35008144Y2546779D01*
X35011563Y2569834D01*
X35017227Y2592443D01*
X35025079Y2614387D01*
X35035044Y2635457D01*
X35047026Y2655448D01*
X35060910Y2674168D01*
X35076562Y2691438D01*
X35093832Y2707090D01*
X35112552Y2720974D01*
X35132543Y2732956D01*
X35153613Y2742921D01*
X35175557Y2750773D01*
X35198166Y2756437D01*
X35221221Y2759856D01*
X35244500Y2761000D01*
X35819500Y2761000D01*
X35842779Y2759856D01*
G37*
G04 #@! TD.AperFunction*
G04 #@! TA.AperFunction,SMDPad,CuDef*
G36*
X34092779Y2759856D02*
G01*
X34115834Y2756437D01*
X34138443Y2750773D01*
X34160387Y2742921D01*
X34181457Y2732956D01*
X34201448Y2720974D01*
X34220168Y2707090D01*
X34237438Y2691438D01*
X34253090Y2674168D01*
X34266974Y2655448D01*
X34278956Y2635457D01*
X34288921Y2614387D01*
X34296773Y2592443D01*
X34302437Y2569834D01*
X34305856Y2546779D01*
X34307000Y2523500D01*
X34307000Y2048500D01*
X34305856Y2025221D01*
X34302437Y2002166D01*
X34296773Y1979557D01*
X34288921Y1957613D01*
X34278956Y1936543D01*
X34266974Y1916552D01*
X34253090Y1897832D01*
X34237438Y1880562D01*
X34220168Y1864910D01*
X34201448Y1851026D01*
X34181457Y1839044D01*
X34160387Y1829079D01*
X34138443Y1821227D01*
X34115834Y1815563D01*
X34092779Y1812144D01*
X34069500Y1811000D01*
X33494500Y1811000D01*
X33471221Y1812144D01*
X33448166Y1815563D01*
X33425557Y1821227D01*
X33403613Y1829079D01*
X33382543Y1839044D01*
X33362552Y1851026D01*
X33343832Y1864910D01*
X33326562Y1880562D01*
X33310910Y1897832D01*
X33297026Y1916552D01*
X33285044Y1936543D01*
X33275079Y1957613D01*
X33267227Y1979557D01*
X33261563Y2002166D01*
X33258144Y2025221D01*
X33257000Y2048500D01*
X33257000Y2523500D01*
X33258144Y2546779D01*
X33261563Y2569834D01*
X33267227Y2592443D01*
X33275079Y2614387D01*
X33285044Y2635457D01*
X33297026Y2655448D01*
X33310910Y2674168D01*
X33326562Y2691438D01*
X33343832Y2707090D01*
X33362552Y2720974D01*
X33382543Y2732956D01*
X33403613Y2742921D01*
X33425557Y2750773D01*
X33448166Y2756437D01*
X33471221Y2759856D01*
X33494500Y2761000D01*
X34069500Y2761000D01*
X34092779Y2759856D01*
G37*
G04 #@! TD.AperFunction*
D11*
X39497000Y20447000D03*
X39497000Y22987000D03*
X39497000Y25527000D03*
D10*
X39497000Y28067000D03*
D11*
X9525000Y11557000D03*
D10*
X9525000Y14097000D03*
D19*
X13462000Y24139000D03*
X13462000Y28439000D03*
G04 #@! TA.AperFunction,SMDPad,CuDef*
D18*
G36*
X6660779Y3521856D02*
G01*
X6683834Y3518437D01*
X6706443Y3512773D01*
X6728387Y3504921D01*
X6749457Y3494956D01*
X6769448Y3482974D01*
X6788168Y3469090D01*
X6805438Y3453438D01*
X6821090Y3436168D01*
X6834974Y3417448D01*
X6846956Y3397457D01*
X6856921Y3376387D01*
X6864773Y3354443D01*
X6870437Y3331834D01*
X6873856Y3308779D01*
X6875000Y3285500D01*
X6875000Y2810500D01*
X6873856Y2787221D01*
X6870437Y2764166D01*
X6864773Y2741557D01*
X6856921Y2719613D01*
X6846956Y2698543D01*
X6834974Y2678552D01*
X6821090Y2659832D01*
X6805438Y2642562D01*
X6788168Y2626910D01*
X6769448Y2613026D01*
X6749457Y2601044D01*
X6728387Y2591079D01*
X6706443Y2583227D01*
X6683834Y2577563D01*
X6660779Y2574144D01*
X6637500Y2573000D01*
X6062500Y2573000D01*
X6039221Y2574144D01*
X6016166Y2577563D01*
X5993557Y2583227D01*
X5971613Y2591079D01*
X5950543Y2601044D01*
X5930552Y2613026D01*
X5911832Y2626910D01*
X5894562Y2642562D01*
X5878910Y2659832D01*
X5865026Y2678552D01*
X5853044Y2698543D01*
X5843079Y2719613D01*
X5835227Y2741557D01*
X5829563Y2764166D01*
X5826144Y2787221D01*
X5825000Y2810500D01*
X5825000Y3285500D01*
X5826144Y3308779D01*
X5829563Y3331834D01*
X5835227Y3354443D01*
X5843079Y3376387D01*
X5853044Y3397457D01*
X5865026Y3417448D01*
X5878910Y3436168D01*
X5894562Y3453438D01*
X5911832Y3469090D01*
X5930552Y3482974D01*
X5950543Y3494956D01*
X5971613Y3504921D01*
X5993557Y3512773D01*
X6016166Y3518437D01*
X6039221Y3521856D01*
X6062500Y3523000D01*
X6637500Y3523000D01*
X6660779Y3521856D01*
G37*
G04 #@! TD.AperFunction*
G04 #@! TA.AperFunction,SMDPad,CuDef*
G36*
X4910779Y3521856D02*
G01*
X4933834Y3518437D01*
X4956443Y3512773D01*
X4978387Y3504921D01*
X4999457Y3494956D01*
X5019448Y3482974D01*
X5038168Y3469090D01*
X5055438Y3453438D01*
X5071090Y3436168D01*
X5084974Y3417448D01*
X5096956Y3397457D01*
X5106921Y3376387D01*
X5114773Y3354443D01*
X5120437Y3331834D01*
X5123856Y3308779D01*
X5125000Y3285500D01*
X5125000Y2810500D01*
X5123856Y2787221D01*
X5120437Y2764166D01*
X5114773Y2741557D01*
X5106921Y2719613D01*
X5096956Y2698543D01*
X5084974Y2678552D01*
X5071090Y2659832D01*
X5055438Y2642562D01*
X5038168Y2626910D01*
X5019448Y2613026D01*
X4999457Y2601044D01*
X4978387Y2591079D01*
X4956443Y2583227D01*
X4933834Y2577563D01*
X4910779Y2574144D01*
X4887500Y2573000D01*
X4312500Y2573000D01*
X4289221Y2574144D01*
X4266166Y2577563D01*
X4243557Y2583227D01*
X4221613Y2591079D01*
X4200543Y2601044D01*
X4180552Y2613026D01*
X4161832Y2626910D01*
X4144562Y2642562D01*
X4128910Y2659832D01*
X4115026Y2678552D01*
X4103044Y2698543D01*
X4093079Y2719613D01*
X4085227Y2741557D01*
X4079563Y2764166D01*
X4076144Y2787221D01*
X4075000Y2810500D01*
X4075000Y3285500D01*
X4076144Y3308779D01*
X4079563Y3331834D01*
X4085227Y3354443D01*
X4093079Y3376387D01*
X4103044Y3397457D01*
X4115026Y3417448D01*
X4128910Y3436168D01*
X4144562Y3453438D01*
X4161832Y3469090D01*
X4180552Y3482974D01*
X4200543Y3494956D01*
X4221613Y3504921D01*
X4243557Y3512773D01*
X4266166Y3518437D01*
X4289221Y3521856D01*
X4312500Y3523000D01*
X4887500Y3523000D01*
X4910779Y3521856D01*
G37*
G04 #@! TD.AperFunction*
G04 #@! TA.AperFunction,SMDPad,CuDef*
G36*
X6660779Y7331856D02*
G01*
X6683834Y7328437D01*
X6706443Y7322773D01*
X6728387Y7314921D01*
X6749457Y7304956D01*
X6769448Y7292974D01*
X6788168Y7279090D01*
X6805438Y7263438D01*
X6821090Y7246168D01*
X6834974Y7227448D01*
X6846956Y7207457D01*
X6856921Y7186387D01*
X6864773Y7164443D01*
X6870437Y7141834D01*
X6873856Y7118779D01*
X6875000Y7095500D01*
X6875000Y6620500D01*
X6873856Y6597221D01*
X6870437Y6574166D01*
X6864773Y6551557D01*
X6856921Y6529613D01*
X6846956Y6508543D01*
X6834974Y6488552D01*
X6821090Y6469832D01*
X6805438Y6452562D01*
X6788168Y6436910D01*
X6769448Y6423026D01*
X6749457Y6411044D01*
X6728387Y6401079D01*
X6706443Y6393227D01*
X6683834Y6387563D01*
X6660779Y6384144D01*
X6637500Y6383000D01*
X6062500Y6383000D01*
X6039221Y6384144D01*
X6016166Y6387563D01*
X5993557Y6393227D01*
X5971613Y6401079D01*
X5950543Y6411044D01*
X5930552Y6423026D01*
X5911832Y6436910D01*
X5894562Y6452562D01*
X5878910Y6469832D01*
X5865026Y6488552D01*
X5853044Y6508543D01*
X5843079Y6529613D01*
X5835227Y6551557D01*
X5829563Y6574166D01*
X5826144Y6597221D01*
X5825000Y6620500D01*
X5825000Y7095500D01*
X5826144Y7118779D01*
X5829563Y7141834D01*
X5835227Y7164443D01*
X5843079Y7186387D01*
X5853044Y7207457D01*
X5865026Y7227448D01*
X5878910Y7246168D01*
X5894562Y7263438D01*
X5911832Y7279090D01*
X5930552Y7292974D01*
X5950543Y7304956D01*
X5971613Y7314921D01*
X5993557Y7322773D01*
X6016166Y7328437D01*
X6039221Y7331856D01*
X6062500Y7333000D01*
X6637500Y7333000D01*
X6660779Y7331856D01*
G37*
G04 #@! TD.AperFunction*
G04 #@! TA.AperFunction,SMDPad,CuDef*
G36*
X4910779Y7331856D02*
G01*
X4933834Y7328437D01*
X4956443Y7322773D01*
X4978387Y7314921D01*
X4999457Y7304956D01*
X5019448Y7292974D01*
X5038168Y7279090D01*
X5055438Y7263438D01*
X5071090Y7246168D01*
X5084974Y7227448D01*
X5096956Y7207457D01*
X5106921Y7186387D01*
X5114773Y7164443D01*
X5120437Y7141834D01*
X5123856Y7118779D01*
X5125000Y7095500D01*
X5125000Y6620500D01*
X5123856Y6597221D01*
X5120437Y6574166D01*
X5114773Y6551557D01*
X5106921Y6529613D01*
X5096956Y6508543D01*
X5084974Y6488552D01*
X5071090Y6469832D01*
X5055438Y6452562D01*
X5038168Y6436910D01*
X5019448Y6423026D01*
X4999457Y6411044D01*
X4978387Y6401079D01*
X4956443Y6393227D01*
X4933834Y6387563D01*
X4910779Y6384144D01*
X4887500Y6383000D01*
X4312500Y6383000D01*
X4289221Y6384144D01*
X4266166Y6387563D01*
X4243557Y6393227D01*
X4221613Y6401079D01*
X4200543Y6411044D01*
X4180552Y6423026D01*
X4161832Y6436910D01*
X4144562Y6452562D01*
X4128910Y6469832D01*
X4115026Y6488552D01*
X4103044Y6508543D01*
X4093079Y6529613D01*
X4085227Y6551557D01*
X4079563Y6574166D01*
X4076144Y6597221D01*
X4075000Y6620500D01*
X4075000Y7095500D01*
X4076144Y7118779D01*
X4079563Y7141834D01*
X4085227Y7164443D01*
X4093079Y7186387D01*
X4103044Y7207457D01*
X4115026Y7227448D01*
X4128910Y7246168D01*
X4144562Y7263438D01*
X4161832Y7279090D01*
X4180552Y7292974D01*
X4200543Y7304956D01*
X4221613Y7314921D01*
X4243557Y7322773D01*
X4266166Y7328437D01*
X4289221Y7331856D01*
X4312500Y7333000D01*
X4887500Y7333000D01*
X4910779Y7331856D01*
G37*
G04 #@! TD.AperFunction*
G04 #@! TA.AperFunction,SMDPad,CuDef*
G36*
X18040779Y19813856D02*
G01*
X18063834Y19810437D01*
X18086443Y19804773D01*
X18108387Y19796921D01*
X18129457Y19786956D01*
X18149448Y19774974D01*
X18168168Y19761090D01*
X18185438Y19745438D01*
X18201090Y19728168D01*
X18214974Y19709448D01*
X18226956Y19689457D01*
X18236921Y19668387D01*
X18244773Y19646443D01*
X18250437Y19623834D01*
X18253856Y19600779D01*
X18255000Y19577500D01*
X18255000Y19002500D01*
X18253856Y18979221D01*
X18250437Y18956166D01*
X18244773Y18933557D01*
X18236921Y18911613D01*
X18226956Y18890543D01*
X18214974Y18870552D01*
X18201090Y18851832D01*
X18185438Y18834562D01*
X18168168Y18818910D01*
X18149448Y18805026D01*
X18129457Y18793044D01*
X18108387Y18783079D01*
X18086443Y18775227D01*
X18063834Y18769563D01*
X18040779Y18766144D01*
X18017500Y18765000D01*
X17542500Y18765000D01*
X17519221Y18766144D01*
X17496166Y18769563D01*
X17473557Y18775227D01*
X17451613Y18783079D01*
X17430543Y18793044D01*
X17410552Y18805026D01*
X17391832Y18818910D01*
X17374562Y18834562D01*
X17358910Y18851832D01*
X17345026Y18870552D01*
X17333044Y18890543D01*
X17323079Y18911613D01*
X17315227Y18933557D01*
X17309563Y18956166D01*
X17306144Y18979221D01*
X17305000Y19002500D01*
X17305000Y19577500D01*
X17306144Y19600779D01*
X17309563Y19623834D01*
X17315227Y19646443D01*
X17323079Y19668387D01*
X17333044Y19689457D01*
X17345026Y19709448D01*
X17358910Y19728168D01*
X17374562Y19745438D01*
X17391832Y19761090D01*
X17410552Y19774974D01*
X17430543Y19786956D01*
X17451613Y19796921D01*
X17473557Y19804773D01*
X17496166Y19810437D01*
X17519221Y19813856D01*
X17542500Y19815000D01*
X18017500Y19815000D01*
X18040779Y19813856D01*
G37*
G04 #@! TD.AperFunction*
G04 #@! TA.AperFunction,SMDPad,CuDef*
G36*
X18040779Y18063856D02*
G01*
X18063834Y18060437D01*
X18086443Y18054773D01*
X18108387Y18046921D01*
X18129457Y18036956D01*
X18149448Y18024974D01*
X18168168Y18011090D01*
X18185438Y17995438D01*
X18201090Y17978168D01*
X18214974Y17959448D01*
X18226956Y17939457D01*
X18236921Y17918387D01*
X18244773Y17896443D01*
X18250437Y17873834D01*
X18253856Y17850779D01*
X18255000Y17827500D01*
X18255000Y17252500D01*
X18253856Y17229221D01*
X18250437Y17206166D01*
X18244773Y17183557D01*
X18236921Y17161613D01*
X18226956Y17140543D01*
X18214974Y17120552D01*
X18201090Y17101832D01*
X18185438Y17084562D01*
X18168168Y17068910D01*
X18149448Y17055026D01*
X18129457Y17043044D01*
X18108387Y17033079D01*
X18086443Y17025227D01*
X18063834Y17019563D01*
X18040779Y17016144D01*
X18017500Y17015000D01*
X17542500Y17015000D01*
X17519221Y17016144D01*
X17496166Y17019563D01*
X17473557Y17025227D01*
X17451613Y17033079D01*
X17430543Y17043044D01*
X17410552Y17055026D01*
X17391832Y17068910D01*
X17374562Y17084562D01*
X17358910Y17101832D01*
X17345026Y17120552D01*
X17333044Y17140543D01*
X17323079Y17161613D01*
X17315227Y17183557D01*
X17309563Y17206166D01*
X17306144Y17229221D01*
X17305000Y17252500D01*
X17305000Y17827500D01*
X17306144Y17850779D01*
X17309563Y17873834D01*
X17315227Y17896443D01*
X17323079Y17918387D01*
X17333044Y17939457D01*
X17345026Y17959448D01*
X17358910Y17978168D01*
X17374562Y17995438D01*
X17391832Y18011090D01*
X17410552Y18024974D01*
X17430543Y18036956D01*
X17451613Y18046921D01*
X17473557Y18054773D01*
X17496166Y18060437D01*
X17519221Y18063856D01*
X17542500Y18065000D01*
X18017500Y18065000D01*
X18040779Y18063856D01*
G37*
G04 #@! TD.AperFunction*
G04 #@! TA.AperFunction,SMDPad,CuDef*
G36*
X12833779Y10796856D02*
G01*
X12856834Y10793437D01*
X12879443Y10787773D01*
X12901387Y10779921D01*
X12922457Y10769956D01*
X12942448Y10757974D01*
X12961168Y10744090D01*
X12978438Y10728438D01*
X12994090Y10711168D01*
X13007974Y10692448D01*
X13019956Y10672457D01*
X13029921Y10651387D01*
X13037773Y10629443D01*
X13043437Y10606834D01*
X13046856Y10583779D01*
X13048000Y10560500D01*
X13048000Y9985500D01*
X13046856Y9962221D01*
X13043437Y9939166D01*
X13037773Y9916557D01*
X13029921Y9894613D01*
X13019956Y9873543D01*
X13007974Y9853552D01*
X12994090Y9834832D01*
X12978438Y9817562D01*
X12961168Y9801910D01*
X12942448Y9788026D01*
X12922457Y9776044D01*
X12901387Y9766079D01*
X12879443Y9758227D01*
X12856834Y9752563D01*
X12833779Y9749144D01*
X12810500Y9748000D01*
X12335500Y9748000D01*
X12312221Y9749144D01*
X12289166Y9752563D01*
X12266557Y9758227D01*
X12244613Y9766079D01*
X12223543Y9776044D01*
X12203552Y9788026D01*
X12184832Y9801910D01*
X12167562Y9817562D01*
X12151910Y9834832D01*
X12138026Y9853552D01*
X12126044Y9873543D01*
X12116079Y9894613D01*
X12108227Y9916557D01*
X12102563Y9939166D01*
X12099144Y9962221D01*
X12098000Y9985500D01*
X12098000Y10560500D01*
X12099144Y10583779D01*
X12102563Y10606834D01*
X12108227Y10629443D01*
X12116079Y10651387D01*
X12126044Y10672457D01*
X12138026Y10692448D01*
X12151910Y10711168D01*
X12167562Y10728438D01*
X12184832Y10744090D01*
X12203552Y10757974D01*
X12223543Y10769956D01*
X12244613Y10779921D01*
X12266557Y10787773D01*
X12289166Y10793437D01*
X12312221Y10796856D01*
X12335500Y10798000D01*
X12810500Y10798000D01*
X12833779Y10796856D01*
G37*
G04 #@! TD.AperFunction*
G04 #@! TA.AperFunction,SMDPad,CuDef*
G36*
X12833779Y9046856D02*
G01*
X12856834Y9043437D01*
X12879443Y9037773D01*
X12901387Y9029921D01*
X12922457Y9019956D01*
X12942448Y9007974D01*
X12961168Y8994090D01*
X12978438Y8978438D01*
X12994090Y8961168D01*
X13007974Y8942448D01*
X13019956Y8922457D01*
X13029921Y8901387D01*
X13037773Y8879443D01*
X13043437Y8856834D01*
X13046856Y8833779D01*
X13048000Y8810500D01*
X13048000Y8235500D01*
X13046856Y8212221D01*
X13043437Y8189166D01*
X13037773Y8166557D01*
X13029921Y8144613D01*
X13019956Y8123543D01*
X13007974Y8103552D01*
X12994090Y8084832D01*
X12978438Y8067562D01*
X12961168Y8051910D01*
X12942448Y8038026D01*
X12922457Y8026044D01*
X12901387Y8016079D01*
X12879443Y8008227D01*
X12856834Y8002563D01*
X12833779Y7999144D01*
X12810500Y7998000D01*
X12335500Y7998000D01*
X12312221Y7999144D01*
X12289166Y8002563D01*
X12266557Y8008227D01*
X12244613Y8016079D01*
X12223543Y8026044D01*
X12203552Y8038026D01*
X12184832Y8051910D01*
X12167562Y8067562D01*
X12151910Y8084832D01*
X12138026Y8103552D01*
X12126044Y8123543D01*
X12116079Y8144613D01*
X12108227Y8166557D01*
X12102563Y8189166D01*
X12099144Y8212221D01*
X12098000Y8235500D01*
X12098000Y8810500D01*
X12099144Y8833779D01*
X12102563Y8856834D01*
X12108227Y8879443D01*
X12116079Y8901387D01*
X12126044Y8922457D01*
X12138026Y8942448D01*
X12151910Y8961168D01*
X12167562Y8978438D01*
X12184832Y8994090D01*
X12203552Y9007974D01*
X12223543Y9019956D01*
X12244613Y9029921D01*
X12266557Y9037773D01*
X12289166Y9043437D01*
X12312221Y9046856D01*
X12335500Y9048000D01*
X12810500Y9048000D01*
X12833779Y9046856D01*
G37*
G04 #@! TD.AperFunction*
G04 #@! TA.AperFunction,SMDPad,CuDef*
G36*
X27460779Y7712856D02*
G01*
X27483834Y7709437D01*
X27506443Y7703773D01*
X27528387Y7695921D01*
X27549457Y7685956D01*
X27569448Y7673974D01*
X27588168Y7660090D01*
X27605438Y7644438D01*
X27621090Y7627168D01*
X27634974Y7608448D01*
X27646956Y7588457D01*
X27656921Y7567387D01*
X27664773Y7545443D01*
X27670437Y7522834D01*
X27673856Y7499779D01*
X27675000Y7476500D01*
X27675000Y7001500D01*
X27673856Y6978221D01*
X27670437Y6955166D01*
X27664773Y6932557D01*
X27656921Y6910613D01*
X27646956Y6889543D01*
X27634974Y6869552D01*
X27621090Y6850832D01*
X27605438Y6833562D01*
X27588168Y6817910D01*
X27569448Y6804026D01*
X27549457Y6792044D01*
X27528387Y6782079D01*
X27506443Y6774227D01*
X27483834Y6768563D01*
X27460779Y6765144D01*
X27437500Y6764000D01*
X26862500Y6764000D01*
X26839221Y6765144D01*
X26816166Y6768563D01*
X26793557Y6774227D01*
X26771613Y6782079D01*
X26750543Y6792044D01*
X26730552Y6804026D01*
X26711832Y6817910D01*
X26694562Y6833562D01*
X26678910Y6850832D01*
X26665026Y6869552D01*
X26653044Y6889543D01*
X26643079Y6910613D01*
X26635227Y6932557D01*
X26629563Y6955166D01*
X26626144Y6978221D01*
X26625000Y7001500D01*
X26625000Y7476500D01*
X26626144Y7499779D01*
X26629563Y7522834D01*
X26635227Y7545443D01*
X26643079Y7567387D01*
X26653044Y7588457D01*
X26665026Y7608448D01*
X26678910Y7627168D01*
X26694562Y7644438D01*
X26711832Y7660090D01*
X26730552Y7673974D01*
X26750543Y7685956D01*
X26771613Y7695921D01*
X26793557Y7703773D01*
X26816166Y7709437D01*
X26839221Y7712856D01*
X26862500Y7714000D01*
X27437500Y7714000D01*
X27460779Y7712856D01*
G37*
G04 #@! TD.AperFunction*
G04 #@! TA.AperFunction,SMDPad,CuDef*
G36*
X25710779Y7712856D02*
G01*
X25733834Y7709437D01*
X25756443Y7703773D01*
X25778387Y7695921D01*
X25799457Y7685956D01*
X25819448Y7673974D01*
X25838168Y7660090D01*
X25855438Y7644438D01*
X25871090Y7627168D01*
X25884974Y7608448D01*
X25896956Y7588457D01*
X25906921Y7567387D01*
X25914773Y7545443D01*
X25920437Y7522834D01*
X25923856Y7499779D01*
X25925000Y7476500D01*
X25925000Y7001500D01*
X25923856Y6978221D01*
X25920437Y6955166D01*
X25914773Y6932557D01*
X25906921Y6910613D01*
X25896956Y6889543D01*
X25884974Y6869552D01*
X25871090Y6850832D01*
X25855438Y6833562D01*
X25838168Y6817910D01*
X25819448Y6804026D01*
X25799457Y6792044D01*
X25778387Y6782079D01*
X25756443Y6774227D01*
X25733834Y6768563D01*
X25710779Y6765144D01*
X25687500Y6764000D01*
X25112500Y6764000D01*
X25089221Y6765144D01*
X25066166Y6768563D01*
X25043557Y6774227D01*
X25021613Y6782079D01*
X25000543Y6792044D01*
X24980552Y6804026D01*
X24961832Y6817910D01*
X24944562Y6833562D01*
X24928910Y6850832D01*
X24915026Y6869552D01*
X24903044Y6889543D01*
X24893079Y6910613D01*
X24885227Y6932557D01*
X24879563Y6955166D01*
X24876144Y6978221D01*
X24875000Y7001500D01*
X24875000Y7476500D01*
X24876144Y7499779D01*
X24879563Y7522834D01*
X24885227Y7545443D01*
X24893079Y7567387D01*
X24903044Y7588457D01*
X24915026Y7608448D01*
X24928910Y7627168D01*
X24944562Y7644438D01*
X24961832Y7660090D01*
X24980552Y7673974D01*
X25000543Y7685956D01*
X25021613Y7695921D01*
X25043557Y7703773D01*
X25066166Y7709437D01*
X25089221Y7712856D01*
X25112500Y7714000D01*
X25687500Y7714000D01*
X25710779Y7712856D01*
G37*
G04 #@! TD.AperFunction*
G04 #@! TA.AperFunction,SMDPad,CuDef*
G36*
X27474779Y9363856D02*
G01*
X27497834Y9360437D01*
X27520443Y9354773D01*
X27542387Y9346921D01*
X27563457Y9336956D01*
X27583448Y9324974D01*
X27602168Y9311090D01*
X27619438Y9295438D01*
X27635090Y9278168D01*
X27648974Y9259448D01*
X27660956Y9239457D01*
X27670921Y9218387D01*
X27678773Y9196443D01*
X27684437Y9173834D01*
X27687856Y9150779D01*
X27689000Y9127500D01*
X27689000Y8652500D01*
X27687856Y8629221D01*
X27684437Y8606166D01*
X27678773Y8583557D01*
X27670921Y8561613D01*
X27660956Y8540543D01*
X27648974Y8520552D01*
X27635090Y8501832D01*
X27619438Y8484562D01*
X27602168Y8468910D01*
X27583448Y8455026D01*
X27563457Y8443044D01*
X27542387Y8433079D01*
X27520443Y8425227D01*
X27497834Y8419563D01*
X27474779Y8416144D01*
X27451500Y8415000D01*
X26876500Y8415000D01*
X26853221Y8416144D01*
X26830166Y8419563D01*
X26807557Y8425227D01*
X26785613Y8433079D01*
X26764543Y8443044D01*
X26744552Y8455026D01*
X26725832Y8468910D01*
X26708562Y8484562D01*
X26692910Y8501832D01*
X26679026Y8520552D01*
X26667044Y8540543D01*
X26657079Y8561613D01*
X26649227Y8583557D01*
X26643563Y8606166D01*
X26640144Y8629221D01*
X26639000Y8652500D01*
X26639000Y9127500D01*
X26640144Y9150779D01*
X26643563Y9173834D01*
X26649227Y9196443D01*
X26657079Y9218387D01*
X26667044Y9239457D01*
X26679026Y9259448D01*
X26692910Y9278168D01*
X26708562Y9295438D01*
X26725832Y9311090D01*
X26744552Y9324974D01*
X26764543Y9336956D01*
X26785613Y9346921D01*
X26807557Y9354773D01*
X26830166Y9360437D01*
X26853221Y9363856D01*
X26876500Y9365000D01*
X27451500Y9365000D01*
X27474779Y9363856D01*
G37*
G04 #@! TD.AperFunction*
G04 #@! TA.AperFunction,SMDPad,CuDef*
G36*
X25724779Y9363856D02*
G01*
X25747834Y9360437D01*
X25770443Y9354773D01*
X25792387Y9346921D01*
X25813457Y9336956D01*
X25833448Y9324974D01*
X25852168Y9311090D01*
X25869438Y9295438D01*
X25885090Y9278168D01*
X25898974Y9259448D01*
X25910956Y9239457D01*
X25920921Y9218387D01*
X25928773Y9196443D01*
X25934437Y9173834D01*
X25937856Y9150779D01*
X25939000Y9127500D01*
X25939000Y8652500D01*
X25937856Y8629221D01*
X25934437Y8606166D01*
X25928773Y8583557D01*
X25920921Y8561613D01*
X25910956Y8540543D01*
X25898974Y8520552D01*
X25885090Y8501832D01*
X25869438Y8484562D01*
X25852168Y8468910D01*
X25833448Y8455026D01*
X25813457Y8443044D01*
X25792387Y8433079D01*
X25770443Y8425227D01*
X25747834Y8419563D01*
X25724779Y8416144D01*
X25701500Y8415000D01*
X25126500Y8415000D01*
X25103221Y8416144D01*
X25080166Y8419563D01*
X25057557Y8425227D01*
X25035613Y8433079D01*
X25014543Y8443044D01*
X24994552Y8455026D01*
X24975832Y8468910D01*
X24958562Y8484562D01*
X24942910Y8501832D01*
X24929026Y8520552D01*
X24917044Y8540543D01*
X24907079Y8561613D01*
X24899227Y8583557D01*
X24893563Y8606166D01*
X24890144Y8629221D01*
X24889000Y8652500D01*
X24889000Y9127500D01*
X24890144Y9150779D01*
X24893563Y9173834D01*
X24899227Y9196443D01*
X24907079Y9218387D01*
X24917044Y9239457D01*
X24929026Y9259448D01*
X24942910Y9278168D01*
X24958562Y9295438D01*
X24975832Y9311090D01*
X24994552Y9324974D01*
X25014543Y9336956D01*
X25035613Y9346921D01*
X25057557Y9354773D01*
X25080166Y9360437D01*
X25103221Y9363856D01*
X25126500Y9365000D01*
X25701500Y9365000D01*
X25724779Y9363856D01*
G37*
G04 #@! TD.AperFunction*
G04 #@! TA.AperFunction,SMDPad,CuDef*
G36*
X24351504Y30106796D02*
G01*
X24375773Y30103196D01*
X24399571Y30097235D01*
X24422671Y30088970D01*
X24444849Y30078480D01*
X24465893Y30065867D01*
X24485598Y30051253D01*
X24503777Y30034777D01*
X24520253Y30016598D01*
X24534867Y29996893D01*
X24547480Y29975849D01*
X24557970Y29953671D01*
X24566235Y29930571D01*
X24572196Y29906773D01*
X24575796Y29882504D01*
X24577000Y29858000D01*
X24577000Y27158000D01*
X24575796Y27133496D01*
X24572196Y27109227D01*
X24566235Y27085429D01*
X24557970Y27062329D01*
X24547480Y27040151D01*
X24534867Y27019107D01*
X24520253Y26999402D01*
X24503777Y26981223D01*
X24485598Y26964747D01*
X24465893Y26950133D01*
X24444849Y26937520D01*
X24422671Y26927030D01*
X24399571Y26918765D01*
X24375773Y26912804D01*
X24351504Y26909204D01*
X24327000Y26908000D01*
X20377000Y26908000D01*
X20352496Y26909204D01*
X20328227Y26912804D01*
X20304429Y26918765D01*
X20281329Y26927030D01*
X20259151Y26937520D01*
X20238107Y26950133D01*
X20218402Y26964747D01*
X20200223Y26981223D01*
X20183747Y26999402D01*
X20169133Y27019107D01*
X20156520Y27040151D01*
X20146030Y27062329D01*
X20137765Y27085429D01*
X20131804Y27109227D01*
X20128204Y27133496D01*
X20127000Y27158000D01*
X20127000Y29858000D01*
X20128204Y29882504D01*
X20131804Y29906773D01*
X20137765Y29930571D01*
X20146030Y29953671D01*
X20156520Y29975849D01*
X20169133Y29996893D01*
X20183747Y30016598D01*
X20200223Y30034777D01*
X20218402Y30051253D01*
X20238107Y30065867D01*
X20259151Y30078480D01*
X20281329Y30088970D01*
X20304429Y30097235D01*
X20328227Y30103196D01*
X20352496Y30106796D01*
X20377000Y30108000D01*
X24327000Y30108000D01*
X24351504Y30106796D01*
G37*
G04 #@! TD.AperFunction*
G04 #@! TA.AperFunction,SMDPad,CuDef*
G36*
X24351504Y24906796D02*
G01*
X24375773Y24903196D01*
X24399571Y24897235D01*
X24422671Y24888970D01*
X24444849Y24878480D01*
X24465893Y24865867D01*
X24485598Y24851253D01*
X24503777Y24834777D01*
X24520253Y24816598D01*
X24534867Y24796893D01*
X24547480Y24775849D01*
X24557970Y24753671D01*
X24566235Y24730571D01*
X24572196Y24706773D01*
X24575796Y24682504D01*
X24577000Y24658000D01*
X24577000Y21958000D01*
X24575796Y21933496D01*
X24572196Y21909227D01*
X24566235Y21885429D01*
X24557970Y21862329D01*
X24547480Y21840151D01*
X24534867Y21819107D01*
X24520253Y21799402D01*
X24503777Y21781223D01*
X24485598Y21764747D01*
X24465893Y21750133D01*
X24444849Y21737520D01*
X24422671Y21727030D01*
X24399571Y21718765D01*
X24375773Y21712804D01*
X24351504Y21709204D01*
X24327000Y21708000D01*
X20377000Y21708000D01*
X20352496Y21709204D01*
X20328227Y21712804D01*
X20304429Y21718765D01*
X20281329Y21727030D01*
X20259151Y21737520D01*
X20238107Y21750133D01*
X20218402Y21764747D01*
X20200223Y21781223D01*
X20183747Y21799402D01*
X20169133Y21819107D01*
X20156520Y21840151D01*
X20146030Y21862329D01*
X20137765Y21885429D01*
X20131804Y21909227D01*
X20128204Y21933496D01*
X20127000Y21958000D01*
X20127000Y24658000D01*
X20128204Y24682504D01*
X20131804Y24706773D01*
X20137765Y24730571D01*
X20146030Y24753671D01*
X20156520Y24775849D01*
X20169133Y24796893D01*
X20183747Y24816598D01*
X20200223Y24834777D01*
X20218402Y24851253D01*
X20238107Y24865867D01*
X20259151Y24878480D01*
X20281329Y24888970D01*
X20304429Y24897235D01*
X20328227Y24903196D01*
X20352496Y24906796D01*
X20377000Y24908000D01*
X24327000Y24908000D01*
X24351504Y24906796D01*
G37*
G04 #@! TD.AperFunction*
G04 #@! TA.AperFunction,SMDPad,CuDef*
G36*
X30701504Y30106796D02*
G01*
X30725773Y30103196D01*
X30749571Y30097235D01*
X30772671Y30088970D01*
X30794849Y30078480D01*
X30815893Y30065867D01*
X30835598Y30051253D01*
X30853777Y30034777D01*
X30870253Y30016598D01*
X30884867Y29996893D01*
X30897480Y29975849D01*
X30907970Y29953671D01*
X30916235Y29930571D01*
X30922196Y29906773D01*
X30925796Y29882504D01*
X30927000Y29858000D01*
X30927000Y27158000D01*
X30925796Y27133496D01*
X30922196Y27109227D01*
X30916235Y27085429D01*
X30907970Y27062329D01*
X30897480Y27040151D01*
X30884867Y27019107D01*
X30870253Y26999402D01*
X30853777Y26981223D01*
X30835598Y26964747D01*
X30815893Y26950133D01*
X30794849Y26937520D01*
X30772671Y26927030D01*
X30749571Y26918765D01*
X30725773Y26912804D01*
X30701504Y26909204D01*
X30677000Y26908000D01*
X26727000Y26908000D01*
X26702496Y26909204D01*
X26678227Y26912804D01*
X26654429Y26918765D01*
X26631329Y26927030D01*
X26609151Y26937520D01*
X26588107Y26950133D01*
X26568402Y26964747D01*
X26550223Y26981223D01*
X26533747Y26999402D01*
X26519133Y27019107D01*
X26506520Y27040151D01*
X26496030Y27062329D01*
X26487765Y27085429D01*
X26481804Y27109227D01*
X26478204Y27133496D01*
X26477000Y27158000D01*
X26477000Y29858000D01*
X26478204Y29882504D01*
X26481804Y29906773D01*
X26487765Y29930571D01*
X26496030Y29953671D01*
X26506520Y29975849D01*
X26519133Y29996893D01*
X26533747Y30016598D01*
X26550223Y30034777D01*
X26568402Y30051253D01*
X26588107Y30065867D01*
X26609151Y30078480D01*
X26631329Y30088970D01*
X26654429Y30097235D01*
X26678227Y30103196D01*
X26702496Y30106796D01*
X26727000Y30108000D01*
X30677000Y30108000D01*
X30701504Y30106796D01*
G37*
G04 #@! TD.AperFunction*
G04 #@! TA.AperFunction,SMDPad,CuDef*
G36*
X30701504Y24906796D02*
G01*
X30725773Y24903196D01*
X30749571Y24897235D01*
X30772671Y24888970D01*
X30794849Y24878480D01*
X30815893Y24865867D01*
X30835598Y24851253D01*
X30853777Y24834777D01*
X30870253Y24816598D01*
X30884867Y24796893D01*
X30897480Y24775849D01*
X30907970Y24753671D01*
X30916235Y24730571D01*
X30922196Y24706773D01*
X30925796Y24682504D01*
X30927000Y24658000D01*
X30927000Y21958000D01*
X30925796Y21933496D01*
X30922196Y21909227D01*
X30916235Y21885429D01*
X30907970Y21862329D01*
X30897480Y21840151D01*
X30884867Y21819107D01*
X30870253Y21799402D01*
X30853777Y21781223D01*
X30835598Y21764747D01*
X30815893Y21750133D01*
X30794849Y21737520D01*
X30772671Y21727030D01*
X30749571Y21718765D01*
X30725773Y21712804D01*
X30701504Y21709204D01*
X30677000Y21708000D01*
X26727000Y21708000D01*
X26702496Y21709204D01*
X26678227Y21712804D01*
X26654429Y21718765D01*
X26631329Y21727030D01*
X26609151Y21737520D01*
X26588107Y21750133D01*
X26568402Y21764747D01*
X26550223Y21781223D01*
X26533747Y21799402D01*
X26519133Y21819107D01*
X26506520Y21840151D01*
X26496030Y21862329D01*
X26487765Y21885429D01*
X26481804Y21909227D01*
X26478204Y21933496D01*
X26477000Y21958000D01*
X26477000Y24658000D01*
X26478204Y24682504D01*
X26481804Y24706773D01*
X26487765Y24730571D01*
X26496030Y24753671D01*
X26506520Y24775849D01*
X26519133Y24796893D01*
X26533747Y24816598D01*
X26550223Y24834777D01*
X26568402Y24851253D01*
X26588107Y24865867D01*
X26609151Y24878480D01*
X26631329Y24888970D01*
X26654429Y24897235D01*
X26678227Y24903196D01*
X26702496Y24906796D01*
X26727000Y24908000D01*
X30677000Y24908000D01*
X30701504Y24906796D01*
G37*
G04 #@! TD.AperFunction*
G04 #@! TA.AperFunction,SMDPad,CuDef*
G36*
X35856779Y13808856D02*
G01*
X35879834Y13805437D01*
X35902443Y13799773D01*
X35924387Y13791921D01*
X35945457Y13781956D01*
X35965448Y13769974D01*
X35984168Y13756090D01*
X36001438Y13740438D01*
X36017090Y13723168D01*
X36030974Y13704448D01*
X36042956Y13684457D01*
X36052921Y13663387D01*
X36060773Y13641443D01*
X36066437Y13618834D01*
X36069856Y13595779D01*
X36071000Y13572500D01*
X36071000Y13097500D01*
X36069856Y13074221D01*
X36066437Y13051166D01*
X36060773Y13028557D01*
X36052921Y13006613D01*
X36042956Y12985543D01*
X36030974Y12965552D01*
X36017090Y12946832D01*
X36001438Y12929562D01*
X35984168Y12913910D01*
X35965448Y12900026D01*
X35945457Y12888044D01*
X35924387Y12878079D01*
X35902443Y12870227D01*
X35879834Y12864563D01*
X35856779Y12861144D01*
X35833500Y12860000D01*
X35258500Y12860000D01*
X35235221Y12861144D01*
X35212166Y12864563D01*
X35189557Y12870227D01*
X35167613Y12878079D01*
X35146543Y12888044D01*
X35126552Y12900026D01*
X35107832Y12913910D01*
X35090562Y12929562D01*
X35074910Y12946832D01*
X35061026Y12965552D01*
X35049044Y12985543D01*
X35039079Y13006613D01*
X35031227Y13028557D01*
X35025563Y13051166D01*
X35022144Y13074221D01*
X35021000Y13097500D01*
X35021000Y13572500D01*
X35022144Y13595779D01*
X35025563Y13618834D01*
X35031227Y13641443D01*
X35039079Y13663387D01*
X35049044Y13684457D01*
X35061026Y13704448D01*
X35074910Y13723168D01*
X35090562Y13740438D01*
X35107832Y13756090D01*
X35126552Y13769974D01*
X35146543Y13781956D01*
X35167613Y13791921D01*
X35189557Y13799773D01*
X35212166Y13805437D01*
X35235221Y13808856D01*
X35258500Y13810000D01*
X35833500Y13810000D01*
X35856779Y13808856D01*
G37*
G04 #@! TD.AperFunction*
G04 #@! TA.AperFunction,SMDPad,CuDef*
G36*
X34106779Y13808856D02*
G01*
X34129834Y13805437D01*
X34152443Y13799773D01*
X34174387Y13791921D01*
X34195457Y13781956D01*
X34215448Y13769974D01*
X34234168Y13756090D01*
X34251438Y13740438D01*
X34267090Y13723168D01*
X34280974Y13704448D01*
X34292956Y13684457D01*
X34302921Y13663387D01*
X34310773Y13641443D01*
X34316437Y13618834D01*
X34319856Y13595779D01*
X34321000Y13572500D01*
X34321000Y13097500D01*
X34319856Y13074221D01*
X34316437Y13051166D01*
X34310773Y13028557D01*
X34302921Y13006613D01*
X34292956Y12985543D01*
X34280974Y12965552D01*
X34267090Y12946832D01*
X34251438Y12929562D01*
X34234168Y12913910D01*
X34215448Y12900026D01*
X34195457Y12888044D01*
X34174387Y12878079D01*
X34152443Y12870227D01*
X34129834Y12864563D01*
X34106779Y12861144D01*
X34083500Y12860000D01*
X33508500Y12860000D01*
X33485221Y12861144D01*
X33462166Y12864563D01*
X33439557Y12870227D01*
X33417613Y12878079D01*
X33396543Y12888044D01*
X33376552Y12900026D01*
X33357832Y12913910D01*
X33340562Y12929562D01*
X33324910Y12946832D01*
X33311026Y12965552D01*
X33299044Y12985543D01*
X33289079Y13006613D01*
X33281227Y13028557D01*
X33275563Y13051166D01*
X33272144Y13074221D01*
X33271000Y13097500D01*
X33271000Y13572500D01*
X33272144Y13595779D01*
X33275563Y13618834D01*
X33281227Y13641443D01*
X33289079Y13663387D01*
X33299044Y13684457D01*
X33311026Y13704448D01*
X33324910Y13723168D01*
X33340562Y13740438D01*
X33357832Y13756090D01*
X33376552Y13769974D01*
X33396543Y13781956D01*
X33417613Y13791921D01*
X33439557Y13799773D01*
X33462166Y13805437D01*
X33485221Y13808856D01*
X33508500Y13810000D01*
X34083500Y13810000D01*
X34106779Y13808856D01*
G37*
G04 #@! TD.AperFunction*
G04 #@! TA.AperFunction,SMDPad,CuDef*
G36*
X35856779Y8220856D02*
G01*
X35879834Y8217437D01*
X35902443Y8211773D01*
X35924387Y8203921D01*
X35945457Y8193956D01*
X35965448Y8181974D01*
X35984168Y8168090D01*
X36001438Y8152438D01*
X36017090Y8135168D01*
X36030974Y8116448D01*
X36042956Y8096457D01*
X36052921Y8075387D01*
X36060773Y8053443D01*
X36066437Y8030834D01*
X36069856Y8007779D01*
X36071000Y7984500D01*
X36071000Y7509500D01*
X36069856Y7486221D01*
X36066437Y7463166D01*
X36060773Y7440557D01*
X36052921Y7418613D01*
X36042956Y7397543D01*
X36030974Y7377552D01*
X36017090Y7358832D01*
X36001438Y7341562D01*
X35984168Y7325910D01*
X35965448Y7312026D01*
X35945457Y7300044D01*
X35924387Y7290079D01*
X35902443Y7282227D01*
X35879834Y7276563D01*
X35856779Y7273144D01*
X35833500Y7272000D01*
X35258500Y7272000D01*
X35235221Y7273144D01*
X35212166Y7276563D01*
X35189557Y7282227D01*
X35167613Y7290079D01*
X35146543Y7300044D01*
X35126552Y7312026D01*
X35107832Y7325910D01*
X35090562Y7341562D01*
X35074910Y7358832D01*
X35061026Y7377552D01*
X35049044Y7397543D01*
X35039079Y7418613D01*
X35031227Y7440557D01*
X35025563Y7463166D01*
X35022144Y7486221D01*
X35021000Y7509500D01*
X35021000Y7984500D01*
X35022144Y8007779D01*
X35025563Y8030834D01*
X35031227Y8053443D01*
X35039079Y8075387D01*
X35049044Y8096457D01*
X35061026Y8116448D01*
X35074910Y8135168D01*
X35090562Y8152438D01*
X35107832Y8168090D01*
X35126552Y8181974D01*
X35146543Y8193956D01*
X35167613Y8203921D01*
X35189557Y8211773D01*
X35212166Y8217437D01*
X35235221Y8220856D01*
X35258500Y8222000D01*
X35833500Y8222000D01*
X35856779Y8220856D01*
G37*
G04 #@! TD.AperFunction*
G04 #@! TA.AperFunction,SMDPad,CuDef*
G36*
X34106779Y8220856D02*
G01*
X34129834Y8217437D01*
X34152443Y8211773D01*
X34174387Y8203921D01*
X34195457Y8193956D01*
X34215448Y8181974D01*
X34234168Y8168090D01*
X34251438Y8152438D01*
X34267090Y8135168D01*
X34280974Y8116448D01*
X34292956Y8096457D01*
X34302921Y8075387D01*
X34310773Y8053443D01*
X34316437Y8030834D01*
X34319856Y8007779D01*
X34321000Y7984500D01*
X34321000Y7509500D01*
X34319856Y7486221D01*
X34316437Y7463166D01*
X34310773Y7440557D01*
X34302921Y7418613D01*
X34292956Y7397543D01*
X34280974Y7377552D01*
X34267090Y7358832D01*
X34251438Y7341562D01*
X34234168Y7325910D01*
X34215448Y7312026D01*
X34195457Y7300044D01*
X34174387Y7290079D01*
X34152443Y7282227D01*
X34129834Y7276563D01*
X34106779Y7273144D01*
X34083500Y7272000D01*
X33508500Y7272000D01*
X33485221Y7273144D01*
X33462166Y7276563D01*
X33439557Y7282227D01*
X33417613Y7290079D01*
X33396543Y7300044D01*
X33376552Y7312026D01*
X33357832Y7325910D01*
X33340562Y7341562D01*
X33324910Y7358832D01*
X33311026Y7377552D01*
X33299044Y7397543D01*
X33289079Y7418613D01*
X33281227Y7440557D01*
X33275563Y7463166D01*
X33272144Y7486221D01*
X33271000Y7509500D01*
X33271000Y7984500D01*
X33272144Y8007779D01*
X33275563Y8030834D01*
X33281227Y8053443D01*
X33289079Y8075387D01*
X33299044Y8096457D01*
X33311026Y8116448D01*
X33324910Y8135168D01*
X33340562Y8152438D01*
X33357832Y8168090D01*
X33376552Y8181974D01*
X33396543Y8193956D01*
X33417613Y8203921D01*
X33439557Y8211773D01*
X33462166Y8217437D01*
X33485221Y8220856D01*
X33508500Y8222000D01*
X34083500Y8222000D01*
X34106779Y8220856D01*
G37*
G04 #@! TD.AperFunction*
G04 #@! TA.AperFunction,SMDPad,CuDef*
G36*
X34106779Y16856856D02*
G01*
X34129834Y16853437D01*
X34152443Y16847773D01*
X34174387Y16839921D01*
X34195457Y16829956D01*
X34215448Y16817974D01*
X34234168Y16804090D01*
X34251438Y16788438D01*
X34267090Y16771168D01*
X34280974Y16752448D01*
X34292956Y16732457D01*
X34302921Y16711387D01*
X34310773Y16689443D01*
X34316437Y16666834D01*
X34319856Y16643779D01*
X34321000Y16620500D01*
X34321000Y16145500D01*
X34319856Y16122221D01*
X34316437Y16099166D01*
X34310773Y16076557D01*
X34302921Y16054613D01*
X34292956Y16033543D01*
X34280974Y16013552D01*
X34267090Y15994832D01*
X34251438Y15977562D01*
X34234168Y15961910D01*
X34215448Y15948026D01*
X34195457Y15936044D01*
X34174387Y15926079D01*
X34152443Y15918227D01*
X34129834Y15912563D01*
X34106779Y15909144D01*
X34083500Y15908000D01*
X33508500Y15908000D01*
X33485221Y15909144D01*
X33462166Y15912563D01*
X33439557Y15918227D01*
X33417613Y15926079D01*
X33396543Y15936044D01*
X33376552Y15948026D01*
X33357832Y15961910D01*
X33340562Y15977562D01*
X33324910Y15994832D01*
X33311026Y16013552D01*
X33299044Y16033543D01*
X33289079Y16054613D01*
X33281227Y16076557D01*
X33275563Y16099166D01*
X33272144Y16122221D01*
X33271000Y16145500D01*
X33271000Y16620500D01*
X33272144Y16643779D01*
X33275563Y16666834D01*
X33281227Y16689443D01*
X33289079Y16711387D01*
X33299044Y16732457D01*
X33311026Y16752448D01*
X33324910Y16771168D01*
X33340562Y16788438D01*
X33357832Y16804090D01*
X33376552Y16817974D01*
X33396543Y16829956D01*
X33417613Y16839921D01*
X33439557Y16847773D01*
X33462166Y16853437D01*
X33485221Y16856856D01*
X33508500Y16858000D01*
X34083500Y16858000D01*
X34106779Y16856856D01*
G37*
G04 #@! TD.AperFunction*
G04 #@! TA.AperFunction,SMDPad,CuDef*
G36*
X35856779Y16856856D02*
G01*
X35879834Y16853437D01*
X35902443Y16847773D01*
X35924387Y16839921D01*
X35945457Y16829956D01*
X35965448Y16817974D01*
X35984168Y16804090D01*
X36001438Y16788438D01*
X36017090Y16771168D01*
X36030974Y16752448D01*
X36042956Y16732457D01*
X36052921Y16711387D01*
X36060773Y16689443D01*
X36066437Y16666834D01*
X36069856Y16643779D01*
X36071000Y16620500D01*
X36071000Y16145500D01*
X36069856Y16122221D01*
X36066437Y16099166D01*
X36060773Y16076557D01*
X36052921Y16054613D01*
X36042956Y16033543D01*
X36030974Y16013552D01*
X36017090Y15994832D01*
X36001438Y15977562D01*
X35984168Y15961910D01*
X35965448Y15948026D01*
X35945457Y15936044D01*
X35924387Y15926079D01*
X35902443Y15918227D01*
X35879834Y15912563D01*
X35856779Y15909144D01*
X35833500Y15908000D01*
X35258500Y15908000D01*
X35235221Y15909144D01*
X35212166Y15912563D01*
X35189557Y15918227D01*
X35167613Y15926079D01*
X35146543Y15936044D01*
X35126552Y15948026D01*
X35107832Y15961910D01*
X35090562Y15977562D01*
X35074910Y15994832D01*
X35061026Y16013552D01*
X35049044Y16033543D01*
X35039079Y16054613D01*
X35031227Y16076557D01*
X35025563Y16099166D01*
X35022144Y16122221D01*
X35021000Y16145500D01*
X35021000Y16620500D01*
X35022144Y16643779D01*
X35025563Y16666834D01*
X35031227Y16689443D01*
X35039079Y16711387D01*
X35049044Y16732457D01*
X35061026Y16752448D01*
X35074910Y16771168D01*
X35090562Y16788438D01*
X35107832Y16804090D01*
X35126552Y16817974D01*
X35146543Y16829956D01*
X35167613Y16839921D01*
X35189557Y16847773D01*
X35212166Y16853437D01*
X35235221Y16856856D01*
X35258500Y16858000D01*
X35833500Y16858000D01*
X35856779Y16856856D01*
G37*
G04 #@! TD.AperFunction*
G04 #@! TA.AperFunction,SMDPad,CuDef*
G36*
X34106779Y11268856D02*
G01*
X34129834Y11265437D01*
X34152443Y11259773D01*
X34174387Y11251921D01*
X34195457Y11241956D01*
X34215448Y11229974D01*
X34234168Y11216090D01*
X34251438Y11200438D01*
X34267090Y11183168D01*
X34280974Y11164448D01*
X34292956Y11144457D01*
X34302921Y11123387D01*
X34310773Y11101443D01*
X34316437Y11078834D01*
X34319856Y11055779D01*
X34321000Y11032500D01*
X34321000Y10557500D01*
X34319856Y10534221D01*
X34316437Y10511166D01*
X34310773Y10488557D01*
X34302921Y10466613D01*
X34292956Y10445543D01*
X34280974Y10425552D01*
X34267090Y10406832D01*
X34251438Y10389562D01*
X34234168Y10373910D01*
X34215448Y10360026D01*
X34195457Y10348044D01*
X34174387Y10338079D01*
X34152443Y10330227D01*
X34129834Y10324563D01*
X34106779Y10321144D01*
X34083500Y10320000D01*
X33508500Y10320000D01*
X33485221Y10321144D01*
X33462166Y10324563D01*
X33439557Y10330227D01*
X33417613Y10338079D01*
X33396543Y10348044D01*
X33376552Y10360026D01*
X33357832Y10373910D01*
X33340562Y10389562D01*
X33324910Y10406832D01*
X33311026Y10425552D01*
X33299044Y10445543D01*
X33289079Y10466613D01*
X33281227Y10488557D01*
X33275563Y10511166D01*
X33272144Y10534221D01*
X33271000Y10557500D01*
X33271000Y11032500D01*
X33272144Y11055779D01*
X33275563Y11078834D01*
X33281227Y11101443D01*
X33289079Y11123387D01*
X33299044Y11144457D01*
X33311026Y11164448D01*
X33324910Y11183168D01*
X33340562Y11200438D01*
X33357832Y11216090D01*
X33376552Y11229974D01*
X33396543Y11241956D01*
X33417613Y11251921D01*
X33439557Y11259773D01*
X33462166Y11265437D01*
X33485221Y11268856D01*
X33508500Y11270000D01*
X34083500Y11270000D01*
X34106779Y11268856D01*
G37*
G04 #@! TD.AperFunction*
G04 #@! TA.AperFunction,SMDPad,CuDef*
G36*
X35856779Y11268856D02*
G01*
X35879834Y11265437D01*
X35902443Y11259773D01*
X35924387Y11251921D01*
X35945457Y11241956D01*
X35965448Y11229974D01*
X35984168Y11216090D01*
X36001438Y11200438D01*
X36017090Y11183168D01*
X36030974Y11164448D01*
X36042956Y11144457D01*
X36052921Y11123387D01*
X36060773Y11101443D01*
X36066437Y11078834D01*
X36069856Y11055779D01*
X36071000Y11032500D01*
X36071000Y10557500D01*
X36069856Y10534221D01*
X36066437Y10511166D01*
X36060773Y10488557D01*
X36052921Y10466613D01*
X36042956Y10445543D01*
X36030974Y10425552D01*
X36017090Y10406832D01*
X36001438Y10389562D01*
X35984168Y10373910D01*
X35965448Y10360026D01*
X35945457Y10348044D01*
X35924387Y10338079D01*
X35902443Y10330227D01*
X35879834Y10324563D01*
X35856779Y10321144D01*
X35833500Y10320000D01*
X35258500Y10320000D01*
X35235221Y10321144D01*
X35212166Y10324563D01*
X35189557Y10330227D01*
X35167613Y10338079D01*
X35146543Y10348044D01*
X35126552Y10360026D01*
X35107832Y10373910D01*
X35090562Y10389562D01*
X35074910Y10406832D01*
X35061026Y10425552D01*
X35049044Y10445543D01*
X35039079Y10466613D01*
X35031227Y10488557D01*
X35025563Y10511166D01*
X35022144Y10534221D01*
X35021000Y10557500D01*
X35021000Y11032500D01*
X35022144Y11055779D01*
X35025563Y11078834D01*
X35031227Y11101443D01*
X35039079Y11123387D01*
X35049044Y11144457D01*
X35061026Y11164448D01*
X35074910Y11183168D01*
X35090562Y11200438D01*
X35107832Y11216090D01*
X35126552Y11229974D01*
X35146543Y11241956D01*
X35167613Y11251921D01*
X35189557Y11259773D01*
X35212166Y11265437D01*
X35235221Y11268856D01*
X35258500Y11270000D01*
X35833500Y11270000D01*
X35856779Y11268856D01*
G37*
G04 #@! TD.AperFunction*
G04 #@! TA.AperFunction,SMDPad,CuDef*
G36*
X34106779Y5807856D02*
G01*
X34129834Y5804437D01*
X34152443Y5798773D01*
X34174387Y5790921D01*
X34195457Y5780956D01*
X34215448Y5768974D01*
X34234168Y5755090D01*
X34251438Y5739438D01*
X34267090Y5722168D01*
X34280974Y5703448D01*
X34292956Y5683457D01*
X34302921Y5662387D01*
X34310773Y5640443D01*
X34316437Y5617834D01*
X34319856Y5594779D01*
X34321000Y5571500D01*
X34321000Y5096500D01*
X34319856Y5073221D01*
X34316437Y5050166D01*
X34310773Y5027557D01*
X34302921Y5005613D01*
X34292956Y4984543D01*
X34280974Y4964552D01*
X34267090Y4945832D01*
X34251438Y4928562D01*
X34234168Y4912910D01*
X34215448Y4899026D01*
X34195457Y4887044D01*
X34174387Y4877079D01*
X34152443Y4869227D01*
X34129834Y4863563D01*
X34106779Y4860144D01*
X34083500Y4859000D01*
X33508500Y4859000D01*
X33485221Y4860144D01*
X33462166Y4863563D01*
X33439557Y4869227D01*
X33417613Y4877079D01*
X33396543Y4887044D01*
X33376552Y4899026D01*
X33357832Y4912910D01*
X33340562Y4928562D01*
X33324910Y4945832D01*
X33311026Y4964552D01*
X33299044Y4984543D01*
X33289079Y5005613D01*
X33281227Y5027557D01*
X33275563Y5050166D01*
X33272144Y5073221D01*
X33271000Y5096500D01*
X33271000Y5571500D01*
X33272144Y5594779D01*
X33275563Y5617834D01*
X33281227Y5640443D01*
X33289079Y5662387D01*
X33299044Y5683457D01*
X33311026Y5703448D01*
X33324910Y5722168D01*
X33340562Y5739438D01*
X33357832Y5755090D01*
X33376552Y5768974D01*
X33396543Y5780956D01*
X33417613Y5790921D01*
X33439557Y5798773D01*
X33462166Y5804437D01*
X33485221Y5807856D01*
X33508500Y5809000D01*
X34083500Y5809000D01*
X34106779Y5807856D01*
G37*
G04 #@! TD.AperFunction*
G04 #@! TA.AperFunction,SMDPad,CuDef*
G36*
X35856779Y5807856D02*
G01*
X35879834Y5804437D01*
X35902443Y5798773D01*
X35924387Y5790921D01*
X35945457Y5780956D01*
X35965448Y5768974D01*
X35984168Y5755090D01*
X36001438Y5739438D01*
X36017090Y5722168D01*
X36030974Y5703448D01*
X36042956Y5683457D01*
X36052921Y5662387D01*
X36060773Y5640443D01*
X36066437Y5617834D01*
X36069856Y5594779D01*
X36071000Y5571500D01*
X36071000Y5096500D01*
X36069856Y5073221D01*
X36066437Y5050166D01*
X36060773Y5027557D01*
X36052921Y5005613D01*
X36042956Y4984543D01*
X36030974Y4964552D01*
X36017090Y4945832D01*
X36001438Y4928562D01*
X35984168Y4912910D01*
X35965448Y4899026D01*
X35945457Y4887044D01*
X35924387Y4877079D01*
X35902443Y4869227D01*
X35879834Y4863563D01*
X35856779Y4860144D01*
X35833500Y4859000D01*
X35258500Y4859000D01*
X35235221Y4860144D01*
X35212166Y4863563D01*
X35189557Y4869227D01*
X35167613Y4877079D01*
X35146543Y4887044D01*
X35126552Y4899026D01*
X35107832Y4912910D01*
X35090562Y4928562D01*
X35074910Y4945832D01*
X35061026Y4964552D01*
X35049044Y4984543D01*
X35039079Y5005613D01*
X35031227Y5027557D01*
X35025563Y5050166D01*
X35022144Y5073221D01*
X35021000Y5096500D01*
X35021000Y5571500D01*
X35022144Y5594779D01*
X35025563Y5617834D01*
X35031227Y5640443D01*
X35039079Y5662387D01*
X35049044Y5683457D01*
X35061026Y5703448D01*
X35074910Y5722168D01*
X35090562Y5739438D01*
X35107832Y5755090D01*
X35126552Y5768974D01*
X35146543Y5780956D01*
X35167613Y5790921D01*
X35189557Y5798773D01*
X35212166Y5804437D01*
X35235221Y5807856D01*
X35258500Y5809000D01*
X35833500Y5809000D01*
X35856779Y5807856D01*
G37*
G04 #@! TD.AperFunction*
D20*
X27432000Y18923000D03*
X27265000Y5294000D03*
D21*
X13152000Y10852000D02*
X12573000Y10273000D01*
X14673000Y10852000D02*
X13152000Y10852000D01*
X13594000Y9252000D02*
X12573000Y10273000D01*
X14673000Y9252000D02*
X13594000Y9252000D01*
X16773000Y10052000D02*
X21873000Y10052000D01*
X21873000Y10052000D02*
X23173000Y10052000D01*
X15973000Y10852000D02*
X16773000Y10052000D01*
X14673000Y10852000D02*
X15973000Y10852000D01*
X23173000Y10052000D02*
X26040000Y10052000D01*
X27164000Y7253000D02*
X27150000Y7239000D01*
X27164000Y8890000D02*
X27164000Y7253000D01*
X38862000Y3810000D02*
X35532000Y3810000D01*
X35546000Y2300000D02*
X35532000Y2286000D01*
X35546000Y5334000D02*
X35546000Y2300000D01*
X35546000Y10795000D02*
X35546000Y9271000D01*
X38862000Y9271000D02*
X35546000Y9271000D01*
X35546000Y16383000D02*
X35546000Y14859000D01*
X38862000Y14859000D02*
X35546000Y14859000D01*
X23173000Y12452000D02*
X29839000Y12452000D01*
X33796000Y7747000D02*
X33796000Y9271000D01*
X33020000Y9271000D02*
X33796000Y9271000D01*
X29839000Y12452000D02*
X33020000Y9271000D01*
X21723000Y13902000D02*
X33714000Y13902000D01*
X33796000Y14859000D02*
X33782000Y13970000D01*
X33714000Y13902000D02*
X33782000Y13970000D01*
X33782000Y13970000D02*
X33796000Y13335000D01*
X12644000Y8452000D02*
X12573000Y8523000D01*
X14673000Y8452000D02*
X12644000Y8452000D01*
X21873000Y7652000D02*
X23173000Y7652000D01*
X16773000Y7652000D02*
X21873000Y7652000D01*
X15973000Y8452000D02*
X16773000Y7652000D01*
X14673000Y8452000D02*
X15973000Y8452000D01*
X15973000Y9837002D02*
X15973000Y8452000D01*
X15758002Y10052000D02*
X15973000Y9837002D01*
X14673000Y10052000D02*
X15758002Y10052000D01*
D22*
X31302000Y23308000D02*
X33020000Y21590000D01*
X28702000Y23308000D02*
X31302000Y23308000D01*
X33020000Y22590000D02*
X33020000Y21590000D01*
X35957000Y25527000D02*
X33020000Y22590000D01*
X39497000Y25527000D02*
X35957000Y25527000D01*
D21*
X19779000Y19290000D02*
X21063000Y20574000D01*
X19304000Y19290000D02*
X19779000Y19290000D01*
X21063000Y20574000D02*
X27568000Y20574000D01*
X27265000Y5294000D02*
X30273000Y2286000D01*
D22*
X27432000Y22038000D02*
X28702000Y23308000D01*
X27432000Y18923000D02*
X27432000Y22038000D01*
D21*
X24987000Y7652000D02*
X25400000Y7239000D01*
X23173000Y7652000D02*
X24987000Y7652000D01*
D22*
X25850787Y5294000D02*
X25400000Y5744787D01*
X27265000Y5294000D02*
X25850787Y5294000D01*
X25400000Y5744787D02*
X25400000Y7239000D01*
D21*
X30273000Y2286000D02*
X33782000Y2286000D01*
D22*
X17780000Y22590000D02*
X17780000Y21590000D01*
X17780000Y26071000D02*
X17780000Y22590000D01*
X15412000Y28439000D02*
X17780000Y26071000D01*
X13462000Y28439000D02*
X15412000Y28439000D01*
X19498000Y23308000D02*
X17780000Y21590000D01*
X22352000Y23308000D02*
X19498000Y23308000D01*
X13453000Y28448000D02*
X13462000Y28439000D01*
X4191000Y28448000D02*
X13453000Y28448000D01*
D21*
X25052000Y9252000D02*
X25414000Y8890000D01*
X23173000Y9252000D02*
X25052000Y9252000D01*
X18523000Y15202000D02*
X18542000Y15221000D01*
X18523000Y13902000D02*
X18523000Y15202000D01*
X18542000Y15221000D02*
X18542000Y17526000D01*
X18528000Y17540000D02*
X17780000Y17540000D01*
X18542000Y17526000D02*
X18528000Y17540000D01*
X20748000Y18796000D02*
X22098000Y18796000D01*
X19492000Y17540000D02*
X20748000Y18796000D01*
X18556000Y17540000D02*
X19492000Y17540000D01*
X18542000Y17526000D02*
X18556000Y17540000D01*
X13587998Y7652000D02*
X14673000Y7652000D01*
X12793998Y6858000D02*
X13587998Y7652000D01*
X6350000Y6858000D02*
X12793998Y6858000D01*
X9388000Y3048000D02*
X9398000Y3058000D01*
X6350000Y3048000D02*
X9388000Y3048000D01*
X10458660Y3058000D02*
X9398000Y3058000D01*
X11654000Y3058000D02*
X10458660Y3058000D01*
X14673000Y6077000D02*
X11654000Y3058000D01*
X14673000Y6852000D02*
X14673000Y6077000D01*
D22*
X12818000Y23495000D02*
X13462000Y24139000D01*
X4191000Y23495000D02*
X12818000Y23495000D01*
D21*
X9720000Y13902000D02*
X9525000Y14097000D01*
X16123000Y13902000D02*
X9720000Y13902000D01*
X20123000Y13902000D02*
X20123000Y14987002D01*
X20123000Y14987002D02*
X21518998Y16383000D01*
X38294919Y20447000D02*
X36135919Y18288000D01*
X39497000Y20447000D02*
X38294919Y20447000D01*
X36135919Y18288000D02*
X32385000Y18288000D01*
X30480000Y16383000D02*
X32385000Y18288000D01*
X21518998Y16383000D02*
X30480000Y16383000D01*
X19323000Y15202000D02*
X19323000Y13902000D01*
X21266000Y17145000D02*
X19323000Y15202000D01*
X38294919Y22987000D02*
X34738919Y19431000D01*
X39497000Y22987000D02*
X38294919Y22987000D01*
X34738919Y19431000D02*
X31496000Y19431000D01*
X31496000Y19431000D02*
X29210000Y17145000D01*
X29210000Y17145000D02*
X21266000Y17145000D01*
X23173000Y11652000D02*
X28353000Y11652000D01*
X32385000Y3810000D02*
X30734000Y5461000D01*
X33796000Y3810000D02*
X32385000Y3810000D01*
X29634000Y5461000D02*
X28956000Y6139000D01*
X30734000Y5461000D02*
X29634000Y5461000D01*
X28956000Y11049000D02*
X28353000Y11652000D01*
X28956000Y6139000D02*
X28956000Y11049000D01*
X20923000Y3397000D02*
X20320000Y2794000D01*
X20923000Y5402000D02*
X20923000Y3397000D01*
X21723000Y3931000D02*
X22860000Y2794000D01*
X21723000Y5402000D02*
X21723000Y3931000D01*
X23173000Y5021000D02*
X25400000Y2794000D01*
X23173000Y6852000D02*
X23173000Y5021000D01*
X17723000Y13902000D02*
X17723000Y15932000D01*
X14986000Y18669000D02*
X12065000Y18669000D01*
X17723000Y15932000D02*
X14986000Y18669000D01*
X16923000Y15202000D02*
X15107000Y17018000D01*
X16923000Y13902000D02*
X16923000Y15202000D01*
X9525000Y17319000D02*
X9525000Y18669000D01*
X9826000Y17018000D02*
X9525000Y17319000D01*
X15107000Y17018000D02*
X9826000Y17018000D01*
D23*
G36*
X16362243Y31907041D02*
G01*
X16336511Y31822215D01*
X16327823Y31734000D01*
X16327823Y30834000D01*
X17680000Y30834000D01*
X17680000Y30854000D01*
X17880000Y30854000D01*
X17880000Y30834000D01*
X19232177Y30834000D01*
X19232177Y31734000D01*
X19223489Y31822215D01*
X19197757Y31907041D01*
X19189761Y31922000D01*
X31610239Y31922000D01*
X31602243Y31907041D01*
X31576511Y31822215D01*
X31567823Y31734000D01*
X31567823Y30834000D01*
X32920000Y30834000D01*
X32920000Y30854000D01*
X33120000Y30854000D01*
X33120000Y30834000D01*
X34472177Y30834000D01*
X34472177Y31734000D01*
X34463489Y31822215D01*
X34437757Y31907041D01*
X34429761Y31922000D01*
X41654000Y31922000D01*
X41654001Y1122000D01*
X854000Y1122000D01*
X854000Y2573000D01*
X3622823Y2573000D01*
X3631511Y2484785D01*
X3657243Y2399959D01*
X3699029Y2321784D01*
X3755263Y2253263D01*
X3823784Y2197029D01*
X3901959Y2155243D01*
X3986785Y2129511D01*
X4075000Y2120823D01*
X4387500Y2123000D01*
X4500000Y2235500D01*
X4500000Y2948000D01*
X3737500Y2948000D01*
X3625000Y2835500D01*
X3622823Y2573000D01*
X854000Y2573000D01*
X854000Y3523000D01*
X3622823Y3523000D01*
X3625000Y3260500D01*
X3737500Y3148000D01*
X4500000Y3148000D01*
X4500000Y3860500D01*
X4387500Y3973000D01*
X4075000Y3975177D01*
X3986785Y3966489D01*
X3901959Y3940757D01*
X3823784Y3898971D01*
X3755263Y3842737D01*
X3699029Y3774216D01*
X3657243Y3696041D01*
X3631511Y3611215D01*
X3622823Y3523000D01*
X854000Y3523000D01*
X854000Y6383000D01*
X3622823Y6383000D01*
X3631511Y6294785D01*
X3657243Y6209959D01*
X3699029Y6131784D01*
X3755263Y6063263D01*
X3823784Y6007029D01*
X3901959Y5965243D01*
X3986785Y5939511D01*
X4075000Y5930823D01*
X4387500Y5933000D01*
X4500000Y6045500D01*
X4500000Y6758000D01*
X3737500Y6758000D01*
X3625000Y6645500D01*
X3622823Y6383000D01*
X854000Y6383000D01*
X854000Y7333000D01*
X3622823Y7333000D01*
X3625000Y7070500D01*
X3737500Y6958000D01*
X4500000Y6958000D01*
X4500000Y7670500D01*
X4387500Y7783000D01*
X4075000Y7785177D01*
X3986785Y7776489D01*
X3901959Y7750757D01*
X3823784Y7708971D01*
X3755263Y7652737D01*
X3699029Y7584216D01*
X3657243Y7506041D01*
X3631511Y7421215D01*
X3622823Y7333000D01*
X854000Y7333000D01*
X854000Y11255469D01*
X8260453Y11255469D01*
X8306042Y11105168D01*
X8417612Y10876043D01*
X8571738Y10673087D01*
X8762498Y10504099D01*
X8982560Y10375573D01*
X9223468Y10292449D01*
X9425000Y10373348D01*
X9425000Y11457000D01*
X9625000Y11457000D01*
X9625000Y10373348D01*
X9826532Y10292449D01*
X10067440Y10375573D01*
X10287502Y10504099D01*
X10478262Y10673087D01*
X10573121Y10798000D01*
X11645823Y10798000D01*
X11648000Y10485500D01*
X11760500Y10373000D01*
X12473000Y10373000D01*
X12473000Y11135500D01*
X12360500Y11248000D01*
X12098000Y11250177D01*
X12009785Y11241489D01*
X11924959Y11215757D01*
X11846784Y11173971D01*
X11778263Y11117737D01*
X11722029Y11049216D01*
X11680243Y10971041D01*
X11654511Y10886215D01*
X11645823Y10798000D01*
X10573121Y10798000D01*
X10632388Y10876043D01*
X10743958Y11105168D01*
X10789547Y11255469D01*
X10708282Y11457000D01*
X9625000Y11457000D01*
X9425000Y11457000D01*
X8341718Y11457000D01*
X8260453Y11255469D01*
X854000Y11255469D01*
X854000Y16989320D01*
X2779741Y16989320D01*
X2973812Y16696555D01*
X3357228Y16494553D01*
X3772686Y16371233D01*
X4204219Y16331335D01*
X4635245Y16376391D01*
X5049198Y16504671D01*
X5408188Y16696555D01*
X5602259Y16989320D01*
X4191000Y18400579D01*
X2779741Y16989320D01*
X854000Y16989320D01*
X854000Y18528781D01*
X1980335Y18528781D01*
X2025391Y18097755D01*
X2153671Y17683802D01*
X2345555Y17324812D01*
X2638320Y17130741D01*
X4049579Y18542000D01*
X4332421Y18542000D01*
X5743680Y17130741D01*
X6036445Y17324812D01*
X6238447Y17708228D01*
X6361767Y18123686D01*
X6401665Y18555219D01*
X6356609Y18986245D01*
X6228329Y19400198D01*
X6036445Y19759188D01*
X5743680Y19953259D01*
X4332421Y18542000D01*
X4049579Y18542000D01*
X2638320Y19953259D01*
X2345555Y19759188D01*
X2143553Y19375772D01*
X2020233Y18960314D01*
X1980335Y18528781D01*
X854000Y18528781D01*
X854000Y20094680D01*
X2779741Y20094680D01*
X4191000Y18683421D01*
X5602259Y20094680D01*
X5408188Y20387445D01*
X5024772Y20589447D01*
X4609314Y20712767D01*
X4177781Y20752665D01*
X3746755Y20707609D01*
X3332802Y20579329D01*
X2973812Y20387445D01*
X2779741Y20094680D01*
X854000Y20094680D01*
X854000Y23721536D01*
X1890940Y23721536D01*
X1890940Y23268464D01*
X1979330Y22824097D01*
X2152713Y22405513D01*
X2404427Y22028797D01*
X2724797Y21708427D01*
X3101513Y21456713D01*
X3520097Y21283330D01*
X3964464Y21194940D01*
X4417536Y21194940D01*
X4861903Y21283330D01*
X5280487Y21456713D01*
X5657203Y21708427D01*
X5977573Y22028797D01*
X6229287Y22405513D01*
X6287064Y22545000D01*
X11882810Y22545000D01*
X11921210Y22498210D01*
X12004958Y22429479D01*
X12100506Y22378408D01*
X12204181Y22346958D01*
X12312000Y22336339D01*
X14612000Y22336339D01*
X14719819Y22346958D01*
X14823494Y22378408D01*
X14919042Y22429479D01*
X15002790Y22498210D01*
X15071521Y22581958D01*
X15122592Y22677506D01*
X15154042Y22781181D01*
X15164661Y22889000D01*
X15164661Y25389000D01*
X15154042Y25496819D01*
X15122592Y25600494D01*
X15071521Y25696042D01*
X15002790Y25779790D01*
X14919042Y25848521D01*
X14823494Y25899592D01*
X14719819Y25931042D01*
X14612000Y25941661D01*
X12312000Y25941661D01*
X12204181Y25931042D01*
X12100506Y25899592D01*
X12004958Y25848521D01*
X11921210Y25779790D01*
X11852479Y25696042D01*
X11801408Y25600494D01*
X11769958Y25496819D01*
X11759339Y25389000D01*
X11759339Y24445000D01*
X6287064Y24445000D01*
X6229287Y24584487D01*
X5977573Y24961203D01*
X5657203Y25281573D01*
X5280487Y25533287D01*
X4861903Y25706670D01*
X4417536Y25795060D01*
X3964464Y25795060D01*
X3520097Y25706670D01*
X3101513Y25533287D01*
X2724797Y25281573D01*
X2404427Y24961203D01*
X2152713Y24584487D01*
X1979330Y24165903D01*
X1890940Y23721536D01*
X854000Y23721536D01*
X854000Y28674536D01*
X1890940Y28674536D01*
X1890940Y28221464D01*
X1979330Y27777097D01*
X2152713Y27358513D01*
X2404427Y26981797D01*
X2724797Y26661427D01*
X3101513Y26409713D01*
X3520097Y26236330D01*
X3964464Y26147940D01*
X4417536Y26147940D01*
X4861903Y26236330D01*
X5280487Y26409713D01*
X5657203Y26661427D01*
X5977573Y26981797D01*
X6229287Y27358513D01*
X6287064Y27498000D01*
X11759339Y27498000D01*
X11759339Y27189000D01*
X11769958Y27081181D01*
X11801408Y26977506D01*
X11852479Y26881958D01*
X11921210Y26798210D01*
X12004958Y26729479D01*
X12100506Y26678408D01*
X12204181Y26646958D01*
X12312000Y26636339D01*
X14612000Y26636339D01*
X14719819Y26646958D01*
X14823494Y26678408D01*
X14919042Y26729479D01*
X15002790Y26798210D01*
X15071521Y26881958D01*
X15122592Y26977506D01*
X15154042Y27081181D01*
X15164661Y27189000D01*
X15164661Y27342837D01*
X16830000Y25677497D01*
X16830001Y23142661D01*
X16780000Y23142661D01*
X16672181Y23132042D01*
X16568506Y23100592D01*
X16472958Y23049521D01*
X16389210Y22980790D01*
X16320479Y22897042D01*
X16269408Y22801494D01*
X16237958Y22697819D01*
X16227339Y22590000D01*
X16227339Y20590000D01*
X16237958Y20482181D01*
X16269408Y20378506D01*
X16320479Y20282958D01*
X16389210Y20199210D01*
X16472958Y20130479D01*
X16568506Y20079408D01*
X16672181Y20047958D01*
X16780000Y20037339D01*
X16913594Y20037339D01*
X16887243Y19988041D01*
X16861511Y19903215D01*
X16852823Y19815000D01*
X16855000Y19502500D01*
X16967500Y19390000D01*
X17680000Y19390000D01*
X17680000Y19410000D01*
X17880000Y19410000D01*
X17880000Y19390000D01*
X17900000Y19390000D01*
X17900000Y19190000D01*
X17880000Y19190000D01*
X17880000Y19170000D01*
X17680000Y19170000D01*
X17680000Y19190000D01*
X16967500Y19190000D01*
X16855000Y19077500D01*
X16852823Y18765000D01*
X16861511Y18676785D01*
X16887243Y18591959D01*
X16929029Y18513784D01*
X16985263Y18445263D01*
X17020484Y18416357D01*
X16983772Y18386228D01*
X16885505Y18266490D01*
X16812486Y18129882D01*
X16776179Y18010192D01*
X15579473Y19206897D01*
X15554422Y19237422D01*
X15432606Y19337393D01*
X15293628Y19411679D01*
X15142827Y19457424D01*
X15025293Y19469000D01*
X15025291Y19469000D01*
X14986000Y19472870D01*
X14946709Y19469000D01*
X13214223Y19469000D01*
X13152451Y19561448D01*
X12957448Y19756451D01*
X12728149Y19909664D01*
X12473365Y20015199D01*
X12202888Y20069000D01*
X11927112Y20069000D01*
X11656635Y20015199D01*
X11401851Y19909664D01*
X11172552Y19756451D01*
X10977549Y19561448D01*
X10927661Y19486785D01*
X10927661Y19519000D01*
X10917042Y19626819D01*
X10885592Y19730494D01*
X10834521Y19826042D01*
X10765790Y19909790D01*
X10682042Y19978521D01*
X10586494Y20029592D01*
X10482819Y20061042D01*
X10375000Y20071661D01*
X8675000Y20071661D01*
X8567181Y20061042D01*
X8463506Y20029592D01*
X8367958Y19978521D01*
X8284210Y19909790D01*
X8215479Y19826042D01*
X8164408Y19730494D01*
X8132958Y19626819D01*
X8122339Y19519000D01*
X8122339Y17819000D01*
X8132958Y17711181D01*
X8164408Y17607506D01*
X8215479Y17511958D01*
X8284210Y17428210D01*
X8367958Y17359479D01*
X8463506Y17308408D01*
X8567181Y17276958D01*
X8675000Y17266339D01*
X8726317Y17266339D01*
X8736576Y17162174D01*
X8767725Y17059490D01*
X8782321Y17011373D01*
X8856607Y16872394D01*
X8885348Y16837373D01*
X8956578Y16750578D01*
X8987103Y16725527D01*
X9232527Y16480103D01*
X9257578Y16449578D01*
X9379394Y16349607D01*
X9518372Y16275321D01*
X9669173Y16229576D01*
X9786707Y16218000D01*
X9786716Y16218000D01*
X9825999Y16214131D01*
X9865282Y16218000D01*
X14775630Y16218000D01*
X15748745Y15244885D01*
X15740181Y15244042D01*
X15636506Y15212592D01*
X15540958Y15161521D01*
X15457210Y15092790D01*
X15388479Y15009042D01*
X15337408Y14913494D01*
X15305958Y14809819D01*
X15295339Y14702000D01*
X10927661Y14702000D01*
X10927661Y14947000D01*
X10917042Y15054819D01*
X10885592Y15158494D01*
X10834521Y15254042D01*
X10765790Y15337790D01*
X10682042Y15406521D01*
X10586494Y15457592D01*
X10482819Y15489042D01*
X10375000Y15499661D01*
X8675000Y15499661D01*
X8567181Y15489042D01*
X8463506Y15457592D01*
X8367958Y15406521D01*
X8284210Y15337790D01*
X8215479Y15254042D01*
X8164408Y15158494D01*
X8132958Y15054819D01*
X8122339Y14947000D01*
X8122339Y13247000D01*
X8132958Y13139181D01*
X8164408Y13035506D01*
X8215479Y12939958D01*
X8284210Y12856210D01*
X8367958Y12787479D01*
X8463506Y12736408D01*
X8567181Y12704958D01*
X8675000Y12694339D01*
X8907073Y12694339D01*
X8762498Y12609901D01*
X8571738Y12440913D01*
X8417612Y12237957D01*
X8306042Y12008832D01*
X8260453Y11858531D01*
X8341718Y11657000D01*
X9425000Y11657000D01*
X9425000Y11677000D01*
X9625000Y11677000D01*
X9625000Y11657000D01*
X10708282Y11657000D01*
X10789547Y11858531D01*
X10743958Y12008832D01*
X10632388Y12237957D01*
X10478262Y12440913D01*
X10287502Y12609901D01*
X10142927Y12694339D01*
X10375000Y12694339D01*
X10482819Y12704958D01*
X10586494Y12736408D01*
X10682042Y12787479D01*
X10765790Y12856210D01*
X10834521Y12939958D01*
X10885592Y13035506D01*
X10905763Y13102000D01*
X13469251Y13102000D01*
X13413479Y13034042D01*
X13362408Y12938494D01*
X13330958Y12834819D01*
X13320339Y12727000D01*
X13320339Y12177000D01*
X13330958Y12069181D01*
X13336170Y12052000D01*
X13330958Y12034819D01*
X13320339Y11927000D01*
X13320339Y11377000D01*
X13330958Y11269181D01*
X13362408Y11165506D01*
X13413479Y11069958D01*
X13482210Y10986210D01*
X13523892Y10952002D01*
X13471532Y10952002D01*
X13465757Y10971041D01*
X13423971Y11049216D01*
X13367737Y11117737D01*
X13299216Y11173971D01*
X13221041Y11215757D01*
X13136215Y11241489D01*
X13048000Y11250177D01*
X12785500Y11248000D01*
X12673000Y11135500D01*
X12673000Y10373000D01*
X12693000Y10373000D01*
X12693000Y10173000D01*
X12673000Y10173000D01*
X12673000Y10153000D01*
X12473000Y10153000D01*
X12473000Y10173000D01*
X11760500Y10173000D01*
X11648000Y10060500D01*
X11645823Y9748000D01*
X11654511Y9659785D01*
X11680243Y9574959D01*
X11722029Y9496784D01*
X11778263Y9428263D01*
X11813484Y9399357D01*
X11776772Y9369228D01*
X11678505Y9249490D01*
X11605486Y9112882D01*
X11560522Y8964653D01*
X11545339Y8810500D01*
X11545339Y8235500D01*
X11560522Y8081347D01*
X11605486Y7933118D01*
X11678505Y7796510D01*
X11776772Y7676772D01*
X11799646Y7658000D01*
X10426954Y7658000D01*
X10407776Y7686702D01*
X10226702Y7867776D01*
X10013781Y8010045D01*
X9777196Y8108042D01*
X9526039Y8158000D01*
X9269961Y8158000D01*
X9018804Y8108042D01*
X8782219Y8010045D01*
X8569298Y7867776D01*
X8388224Y7686702D01*
X8369046Y7658000D01*
X7191632Y7658000D01*
X7076490Y7752495D01*
X6939882Y7825514D01*
X6791653Y7870478D01*
X6637500Y7885661D01*
X6062500Y7885661D01*
X5908347Y7870478D01*
X5760118Y7825514D01*
X5623510Y7752495D01*
X5503772Y7654228D01*
X5473643Y7617516D01*
X5444737Y7652737D01*
X5376216Y7708971D01*
X5298041Y7750757D01*
X5213215Y7776489D01*
X5125000Y7785177D01*
X4812500Y7783000D01*
X4700000Y7670500D01*
X4700000Y6958000D01*
X4720000Y6958000D01*
X4720000Y6758000D01*
X4700000Y6758000D01*
X4700000Y6045500D01*
X4812500Y5933000D01*
X5125000Y5930823D01*
X5213215Y5939511D01*
X5298041Y5965243D01*
X5376216Y6007029D01*
X5444737Y6063263D01*
X5473643Y6098484D01*
X5503772Y6061772D01*
X5623510Y5963505D01*
X5760118Y5890486D01*
X5908347Y5845522D01*
X6062500Y5830339D01*
X6637500Y5830339D01*
X6791653Y5845522D01*
X6939882Y5890486D01*
X7076490Y5963505D01*
X7191632Y6058000D01*
X8369046Y6058000D01*
X8388224Y6029298D01*
X8569298Y5848224D01*
X8782219Y5705955D01*
X9018804Y5607958D01*
X9269961Y5558000D01*
X9526039Y5558000D01*
X9777196Y5607958D01*
X10013781Y5705955D01*
X10226702Y5848224D01*
X10407776Y6029298D01*
X10426954Y6058000D01*
X12754707Y6058000D01*
X12793998Y6054130D01*
X12833289Y6058000D01*
X12833291Y6058000D01*
X12950825Y6069576D01*
X13101626Y6115321D01*
X13240604Y6189607D01*
X13362420Y6289578D01*
X13386990Y6319516D01*
X13413479Y6269958D01*
X13482210Y6186210D01*
X13565958Y6117479D01*
X13576483Y6111853D01*
X11322630Y3858000D01*
X10426954Y3858000D01*
X10407776Y3886702D01*
X10226702Y4067776D01*
X10013781Y4210045D01*
X9777196Y4308042D01*
X9526039Y4358000D01*
X9269961Y4358000D01*
X9018804Y4308042D01*
X8782219Y4210045D01*
X8569298Y4067776D01*
X8388224Y3886702D01*
X8362364Y3848000D01*
X7191632Y3848000D01*
X7076490Y3942495D01*
X6939882Y4015514D01*
X6791653Y4060478D01*
X6637500Y4075661D01*
X6062500Y4075661D01*
X5908347Y4060478D01*
X5760118Y4015514D01*
X5623510Y3942495D01*
X5503772Y3844228D01*
X5473643Y3807516D01*
X5444737Y3842737D01*
X5376216Y3898971D01*
X5298041Y3940757D01*
X5213215Y3966489D01*
X5125000Y3975177D01*
X4812500Y3973000D01*
X4700000Y3860500D01*
X4700000Y3148000D01*
X4720000Y3148000D01*
X4720000Y2948000D01*
X4700000Y2948000D01*
X4700000Y2235500D01*
X4812500Y2123000D01*
X5125000Y2120823D01*
X5213215Y2129511D01*
X5298041Y2155243D01*
X5376216Y2197029D01*
X5444737Y2253263D01*
X5473643Y2288484D01*
X5503772Y2251772D01*
X5623510Y2153505D01*
X5760118Y2080486D01*
X5908347Y2035522D01*
X6062500Y2020339D01*
X6637500Y2020339D01*
X6791653Y2035522D01*
X6939882Y2080486D01*
X7076490Y2153505D01*
X7191632Y2248000D01*
X8375728Y2248000D01*
X8388224Y2229298D01*
X8569298Y2048224D01*
X8782219Y1905955D01*
X9018804Y1807958D01*
X9269961Y1758000D01*
X9526039Y1758000D01*
X9777196Y1807958D01*
X10013781Y1905955D01*
X10226702Y2048224D01*
X10407776Y2229298D01*
X10426954Y2258000D01*
X11614709Y2258000D01*
X11654000Y2254130D01*
X11693291Y2258000D01*
X11693293Y2258000D01*
X11810827Y2269576D01*
X11961628Y2315321D01*
X12100606Y2389607D01*
X12222422Y2489578D01*
X12247473Y2520103D01*
X15210897Y5483527D01*
X15241422Y5508578D01*
X15295339Y5574277D01*
X15295339Y4602000D01*
X15305958Y4494181D01*
X15337408Y4390506D01*
X15388479Y4294958D01*
X15457210Y4211210D01*
X15540958Y4142479D01*
X15636506Y4091408D01*
X15740181Y4059958D01*
X15848000Y4049339D01*
X16398000Y4049339D01*
X16505819Y4059958D01*
X16523000Y4065170D01*
X16540181Y4059958D01*
X16648000Y4049339D01*
X17198000Y4049339D01*
X17305819Y4059958D01*
X17323000Y4065170D01*
X17340181Y4059958D01*
X17448000Y4049339D01*
X17998000Y4049339D01*
X18105819Y4059958D01*
X18123000Y4065170D01*
X18140181Y4059958D01*
X18248000Y4049339D01*
X18798000Y4049339D01*
X18905819Y4059958D01*
X18923000Y4065170D01*
X18940181Y4059958D01*
X19048000Y4049339D01*
X19598000Y4049339D01*
X19705819Y4059958D01*
X19723000Y4065170D01*
X19727329Y4063857D01*
X19656851Y4034664D01*
X19427552Y3881451D01*
X19232549Y3686448D01*
X19079336Y3457149D01*
X18973801Y3202365D01*
X18920000Y2931888D01*
X18920000Y2656112D01*
X18973801Y2385635D01*
X19079336Y2130851D01*
X19232549Y1901552D01*
X19427552Y1706549D01*
X19656851Y1553336D01*
X19911635Y1447801D01*
X20182112Y1394000D01*
X20457888Y1394000D01*
X20728365Y1447801D01*
X20983149Y1553336D01*
X21212448Y1706549D01*
X21407451Y1901552D01*
X21560664Y2130851D01*
X21590000Y2201674D01*
X21619336Y2130851D01*
X21772549Y1901552D01*
X21967552Y1706549D01*
X22196851Y1553336D01*
X22451635Y1447801D01*
X22722112Y1394000D01*
X22997888Y1394000D01*
X23268365Y1447801D01*
X23523149Y1553336D01*
X23752448Y1706549D01*
X23947451Y1901552D01*
X23997339Y1976215D01*
X23997339Y1944000D01*
X24007958Y1836181D01*
X24039408Y1732506D01*
X24090479Y1636958D01*
X24159210Y1553210D01*
X24242958Y1484479D01*
X24338506Y1433408D01*
X24442181Y1401958D01*
X24550000Y1391339D01*
X26250000Y1391339D01*
X26357819Y1401958D01*
X26461494Y1433408D01*
X26557042Y1484479D01*
X26640790Y1553210D01*
X26709521Y1636958D01*
X26760592Y1732506D01*
X26792042Y1836181D01*
X26802661Y1944000D01*
X26802661Y3644000D01*
X26792042Y3751819D01*
X26771094Y3820874D01*
X26812882Y3803565D01*
X27112338Y3744000D01*
X27417662Y3744000D01*
X27639503Y3788127D01*
X29679531Y1748098D01*
X29704578Y1717578D01*
X29735098Y1692531D01*
X29826393Y1617607D01*
X29841542Y1609510D01*
X29965372Y1543321D01*
X30116173Y1497576D01*
X30233707Y1486000D01*
X30233716Y1486000D01*
X30272999Y1482131D01*
X30312282Y1486000D01*
X32940368Y1486000D01*
X33055510Y1391505D01*
X33192118Y1318486D01*
X33340347Y1273522D01*
X33494500Y1258339D01*
X34069500Y1258339D01*
X34223653Y1273522D01*
X34371882Y1318486D01*
X34508490Y1391505D01*
X34628228Y1489772D01*
X34657000Y1524831D01*
X34685772Y1489772D01*
X34805510Y1391505D01*
X34942118Y1318486D01*
X35090347Y1273522D01*
X35244500Y1258339D01*
X35819500Y1258339D01*
X35973653Y1273522D01*
X36121882Y1318486D01*
X36258490Y1391505D01*
X36378228Y1489772D01*
X36476495Y1609510D01*
X36549514Y1746118D01*
X36594478Y1894347D01*
X36609661Y2048500D01*
X36609661Y2523500D01*
X36594478Y2677653D01*
X36549514Y2825882D01*
X36476495Y2962490D01*
X36437504Y3010000D01*
X36703804Y3010000D01*
X36823713Y2720513D01*
X37075427Y2343797D01*
X37395797Y2023427D01*
X37772513Y1771713D01*
X38191097Y1598330D01*
X38635464Y1509940D01*
X39088536Y1509940D01*
X39532903Y1598330D01*
X39951487Y1771713D01*
X40328203Y2023427D01*
X40648573Y2343797D01*
X40900287Y2720513D01*
X41073670Y3139097D01*
X41162060Y3583464D01*
X41162060Y4036536D01*
X41073670Y4480903D01*
X40900287Y4899487D01*
X40648573Y5276203D01*
X40328203Y5596573D01*
X39951487Y5848287D01*
X39532903Y6021670D01*
X39088536Y6110060D01*
X38635464Y6110060D01*
X38191097Y6021670D01*
X37772513Y5848287D01*
X37395797Y5596573D01*
X37075427Y5276203D01*
X36823713Y4899487D01*
X36703804Y4610000D01*
X36451504Y4610000D01*
X36490495Y4657510D01*
X36563514Y4794118D01*
X36608478Y4942347D01*
X36623661Y5096500D01*
X36623661Y5571500D01*
X36608478Y5725653D01*
X36563514Y5873882D01*
X36490495Y6010490D01*
X36392228Y6130228D01*
X36272490Y6228495D01*
X36135882Y6301514D01*
X35987653Y6346478D01*
X35833500Y6361661D01*
X35258500Y6361661D01*
X35104347Y6346478D01*
X34956118Y6301514D01*
X34819510Y6228495D01*
X34699772Y6130228D01*
X34669643Y6093516D01*
X34640737Y6128737D01*
X34572216Y6184971D01*
X34494041Y6226757D01*
X34409215Y6252489D01*
X34321000Y6261177D01*
X34008500Y6259000D01*
X33896000Y6146500D01*
X33896000Y5434000D01*
X33916000Y5434000D01*
X33916000Y5234000D01*
X33896000Y5234000D01*
X33896000Y5214000D01*
X33696000Y5214000D01*
X33696000Y5234000D01*
X32933500Y5234000D01*
X32821000Y5121500D01*
X32818823Y4859000D01*
X32827511Y4770785D01*
X32853243Y4685959D01*
X32893845Y4610000D01*
X32716371Y4610000D01*
X31886661Y5439709D01*
X31886661Y5809000D01*
X32818823Y5809000D01*
X32821000Y5546500D01*
X32933500Y5434000D01*
X33696000Y5434000D01*
X33696000Y6146500D01*
X33583500Y6259000D01*
X33271000Y6261177D01*
X33182785Y6252489D01*
X33097959Y6226757D01*
X33019784Y6184971D01*
X32951263Y6128737D01*
X32895029Y6060216D01*
X32853243Y5982041D01*
X32827511Y5897215D01*
X32818823Y5809000D01*
X31886661Y5809000D01*
X31886661Y6061000D01*
X31876042Y6168819D01*
X31844592Y6272494D01*
X31793521Y6368042D01*
X31724790Y6451790D01*
X31674411Y6493135D01*
X31729717Y6612084D01*
X31778655Y6813043D01*
X31787447Y7019688D01*
X31755756Y7224077D01*
X31684800Y7418357D01*
X31642514Y7497467D01*
X31467454Y7553033D01*
X30875421Y6961000D01*
X30889564Y6946857D01*
X30748143Y6805436D01*
X30734000Y6819579D01*
X30719858Y6805436D01*
X30578437Y6946857D01*
X30592579Y6961000D01*
X30000546Y7553033D01*
X29825486Y7497467D01*
X29756000Y7348021D01*
X29756000Y7694454D01*
X30141967Y7694454D01*
X30734000Y7102421D01*
X31326033Y7694454D01*
X31270467Y7869514D01*
X31082916Y7956717D01*
X30881957Y8005655D01*
X30675312Y8014447D01*
X30470923Y7982756D01*
X30276643Y7911800D01*
X30197533Y7869514D01*
X30141967Y7694454D01*
X29756000Y7694454D01*
X29756000Y11009709D01*
X29759870Y11049000D01*
X29753100Y11117737D01*
X29744424Y11205827D01*
X29698679Y11356628D01*
X29697831Y11358215D01*
X29624393Y11495607D01*
X29584056Y11544757D01*
X29524422Y11617422D01*
X29493897Y11642473D01*
X29484370Y11652000D01*
X29507630Y11652000D01*
X32426531Y8733098D01*
X32451578Y8702578D01*
X32482098Y8677531D01*
X32573393Y8602607D01*
X32588542Y8594510D01*
X32712372Y8528321D01*
X32863173Y8482576D01*
X32897242Y8479221D01*
X32851505Y8423490D01*
X32778486Y8286882D01*
X32733522Y8138653D01*
X32718339Y7984500D01*
X32718339Y7509500D01*
X32733522Y7355347D01*
X32778486Y7207118D01*
X32851505Y7070510D01*
X32949772Y6950772D01*
X33069510Y6852505D01*
X33206118Y6779486D01*
X33354347Y6734522D01*
X33508500Y6719339D01*
X34083500Y6719339D01*
X34237653Y6734522D01*
X34385882Y6779486D01*
X34522490Y6852505D01*
X34642228Y6950772D01*
X34672357Y6987484D01*
X34701263Y6952263D01*
X34769784Y6896029D01*
X34847959Y6854243D01*
X34932785Y6828511D01*
X35021000Y6819823D01*
X35333500Y6822000D01*
X35446000Y6934500D01*
X35446000Y7647000D01*
X35646000Y7647000D01*
X35646000Y6934500D01*
X35758500Y6822000D01*
X36071000Y6819823D01*
X36159215Y6828511D01*
X36244041Y6854243D01*
X36322216Y6896029D01*
X36390737Y6952263D01*
X36446971Y7020784D01*
X36488757Y7098959D01*
X36514489Y7183785D01*
X36523177Y7272000D01*
X36521000Y7534500D01*
X36408500Y7647000D01*
X35646000Y7647000D01*
X35446000Y7647000D01*
X35426000Y7647000D01*
X35426000Y7847000D01*
X35446000Y7847000D01*
X35446000Y7867000D01*
X35646000Y7867000D01*
X35646000Y7847000D01*
X36408500Y7847000D01*
X36521000Y7959500D01*
X36523177Y8222000D01*
X36514489Y8310215D01*
X36488757Y8395041D01*
X36448155Y8471000D01*
X36703804Y8471000D01*
X36823713Y8181513D01*
X37075427Y7804797D01*
X37395797Y7484427D01*
X37772513Y7232713D01*
X38191097Y7059330D01*
X38635464Y6970940D01*
X39088536Y6970940D01*
X39532903Y7059330D01*
X39951487Y7232713D01*
X40328203Y7484427D01*
X40648573Y7804797D01*
X40900287Y8181513D01*
X41073670Y8600097D01*
X41162060Y9044464D01*
X41162060Y9497536D01*
X41073670Y9941903D01*
X40900287Y10360487D01*
X40648573Y10737203D01*
X40328203Y11057573D01*
X39951487Y11309287D01*
X39532903Y11482670D01*
X39088536Y11571060D01*
X38635464Y11571060D01*
X38191097Y11482670D01*
X37772513Y11309287D01*
X37395797Y11057573D01*
X37075427Y10737203D01*
X36823713Y10360487D01*
X36703804Y10071000D01*
X36451504Y10071000D01*
X36490495Y10118510D01*
X36563514Y10255118D01*
X36608478Y10403347D01*
X36623661Y10557500D01*
X36623661Y11032500D01*
X36608478Y11186653D01*
X36563514Y11334882D01*
X36490495Y11471490D01*
X36392228Y11591228D01*
X36272490Y11689495D01*
X36135882Y11762514D01*
X35987653Y11807478D01*
X35833500Y11822661D01*
X35258500Y11822661D01*
X35104347Y11807478D01*
X34956118Y11762514D01*
X34819510Y11689495D01*
X34699772Y11591228D01*
X34669643Y11554516D01*
X34640737Y11589737D01*
X34572216Y11645971D01*
X34494041Y11687757D01*
X34409215Y11713489D01*
X34321000Y11722177D01*
X34008500Y11720000D01*
X33896000Y11607500D01*
X33896000Y10895000D01*
X33916000Y10895000D01*
X33916000Y10695000D01*
X33896000Y10695000D01*
X33896000Y10675000D01*
X33696000Y10675000D01*
X33696000Y10695000D01*
X32933500Y10695000D01*
X32830435Y10591935D01*
X32152370Y11270000D01*
X32818823Y11270000D01*
X32821000Y11007500D01*
X32933500Y10895000D01*
X33696000Y10895000D01*
X33696000Y11607500D01*
X33583500Y11720000D01*
X33271000Y11722177D01*
X33182785Y11713489D01*
X33097959Y11687757D01*
X33019784Y11645971D01*
X32951263Y11589737D01*
X32895029Y11521216D01*
X32853243Y11443041D01*
X32827511Y11358215D01*
X32818823Y11270000D01*
X32152370Y11270000D01*
X30432473Y12989897D01*
X30407422Y13020422D01*
X30308018Y13102000D01*
X32718339Y13102000D01*
X32718339Y13097500D01*
X32733522Y12943347D01*
X32778486Y12795118D01*
X32851505Y12658510D01*
X32949772Y12538772D01*
X33069510Y12440505D01*
X33206118Y12367486D01*
X33354347Y12322522D01*
X33508500Y12307339D01*
X34083500Y12307339D01*
X34237653Y12322522D01*
X34385882Y12367486D01*
X34522490Y12440505D01*
X34642228Y12538772D01*
X34672357Y12575484D01*
X34701263Y12540263D01*
X34769784Y12484029D01*
X34847959Y12442243D01*
X34932785Y12416511D01*
X35021000Y12407823D01*
X35333500Y12410000D01*
X35446000Y12522500D01*
X35446000Y13235000D01*
X35646000Y13235000D01*
X35646000Y12522500D01*
X35758500Y12410000D01*
X36071000Y12407823D01*
X36159215Y12416511D01*
X36244041Y12442243D01*
X36322216Y12484029D01*
X36390737Y12540263D01*
X36446971Y12608784D01*
X36488757Y12686959D01*
X36514489Y12771785D01*
X36523177Y12860000D01*
X36521000Y13122500D01*
X36408500Y13235000D01*
X35646000Y13235000D01*
X35446000Y13235000D01*
X35426000Y13235000D01*
X35426000Y13435000D01*
X35446000Y13435000D01*
X35446000Y13455000D01*
X35646000Y13455000D01*
X35646000Y13435000D01*
X36408500Y13435000D01*
X36521000Y13547500D01*
X36523177Y13810000D01*
X36514489Y13898215D01*
X36488757Y13983041D01*
X36448155Y14059000D01*
X36703804Y14059000D01*
X36823713Y13769513D01*
X37075427Y13392797D01*
X37395797Y13072427D01*
X37772513Y12820713D01*
X38191097Y12647330D01*
X38635464Y12558940D01*
X39088536Y12558940D01*
X39532903Y12647330D01*
X39951487Y12820713D01*
X40328203Y13072427D01*
X40648573Y13392797D01*
X40900287Y13769513D01*
X41073670Y14188097D01*
X41162060Y14632464D01*
X41162060Y15085536D01*
X41073670Y15529903D01*
X40900287Y15948487D01*
X40648573Y16325203D01*
X40328203Y16645573D01*
X39951487Y16897287D01*
X39532903Y17070670D01*
X39088536Y17159060D01*
X38635464Y17159060D01*
X38191097Y17070670D01*
X37772513Y16897287D01*
X37395797Y16645573D01*
X37075427Y16325203D01*
X36823713Y15948487D01*
X36703804Y15659000D01*
X36451504Y15659000D01*
X36490495Y15706510D01*
X36563514Y15843118D01*
X36608478Y15991347D01*
X36623661Y16145500D01*
X36623661Y16620500D01*
X36608478Y16774653D01*
X36563514Y16922882D01*
X36490495Y17059490D01*
X36392228Y17179228D01*
X36272490Y17277495D01*
X36135882Y17350514D01*
X35987653Y17395478D01*
X35833500Y17410661D01*
X35258500Y17410661D01*
X35104347Y17395478D01*
X34956118Y17350514D01*
X34819510Y17277495D01*
X34699772Y17179228D01*
X34669643Y17142516D01*
X34640737Y17177737D01*
X34572216Y17233971D01*
X34494041Y17275757D01*
X34409215Y17301489D01*
X34321000Y17310177D01*
X34008500Y17308000D01*
X33896000Y17195500D01*
X33896000Y16483000D01*
X33916000Y16483000D01*
X33916000Y16283000D01*
X33896000Y16283000D01*
X33896000Y16263000D01*
X33696000Y16263000D01*
X33696000Y16283000D01*
X32933500Y16283000D01*
X32821000Y16170500D01*
X32818823Y15908000D01*
X32827511Y15819785D01*
X32853243Y15734959D01*
X32895029Y15656784D01*
X32923039Y15622654D01*
X32851505Y15535490D01*
X32778486Y15398882D01*
X32733522Y15250653D01*
X32718339Y15096500D01*
X32718339Y14702000D01*
X22550661Y14702000D01*
X22540042Y14809819D01*
X22508592Y14913494D01*
X22457521Y15009042D01*
X22388790Y15092790D01*
X22305042Y15161521D01*
X22209494Y15212592D01*
X22105819Y15244042D01*
X21998000Y15254661D01*
X21522030Y15254661D01*
X21850369Y15583000D01*
X30440709Y15583000D01*
X30480000Y15579130D01*
X30519291Y15583000D01*
X30519293Y15583000D01*
X30636827Y15594576D01*
X30787628Y15640321D01*
X30926606Y15714607D01*
X31048422Y15814578D01*
X31073473Y15845103D01*
X32086370Y16858000D01*
X32818823Y16858000D01*
X32821000Y16595500D01*
X32933500Y16483000D01*
X33696000Y16483000D01*
X33696000Y17195500D01*
X33583500Y17308000D01*
X33271000Y17310177D01*
X33182785Y17301489D01*
X33097959Y17275757D01*
X33019784Y17233971D01*
X32951263Y17177737D01*
X32895029Y17109216D01*
X32853243Y17031041D01*
X32827511Y16946215D01*
X32818823Y16858000D01*
X32086370Y16858000D01*
X32716370Y17488000D01*
X36096628Y17488000D01*
X36135919Y17484130D01*
X36175210Y17488000D01*
X36175212Y17488000D01*
X36292746Y17499576D01*
X36443547Y17545321D01*
X36582525Y17619607D01*
X36704341Y17719578D01*
X36729392Y17750103D01*
X38471695Y19492406D01*
X38604552Y19359549D01*
X38833851Y19206336D01*
X39088635Y19100801D01*
X39359112Y19047000D01*
X39634888Y19047000D01*
X39905365Y19100801D01*
X40160149Y19206336D01*
X40389448Y19359549D01*
X40584451Y19554552D01*
X40737664Y19783851D01*
X40843199Y20038635D01*
X40897000Y20309112D01*
X40897000Y20584888D01*
X40843199Y20855365D01*
X40737664Y21110149D01*
X40584451Y21339448D01*
X40389448Y21534451D01*
X40160149Y21687664D01*
X40089326Y21717000D01*
X40160149Y21746336D01*
X40389448Y21899549D01*
X40584451Y22094552D01*
X40737664Y22323851D01*
X40843199Y22578635D01*
X40897000Y22849112D01*
X40897000Y23124888D01*
X40843199Y23395365D01*
X40737664Y23650149D01*
X40584451Y23879448D01*
X40389448Y24074451D01*
X40160149Y24227664D01*
X40089326Y24257000D01*
X40160149Y24286336D01*
X40389448Y24439549D01*
X40584451Y24634552D01*
X40737664Y24863851D01*
X40843199Y25118635D01*
X40897000Y25389112D01*
X40897000Y25664888D01*
X40843199Y25935365D01*
X40737664Y26190149D01*
X40584451Y26419448D01*
X40389448Y26614451D01*
X40163463Y26765450D01*
X40347000Y26764823D01*
X40435215Y26773511D01*
X40520041Y26799243D01*
X40598216Y26841029D01*
X40666737Y26897263D01*
X40722971Y26965784D01*
X40764757Y27043959D01*
X40790489Y27128785D01*
X40799177Y27217000D01*
X40797000Y27854500D01*
X40684500Y27967000D01*
X39597000Y27967000D01*
X39597000Y27947000D01*
X39397000Y27947000D01*
X39397000Y27967000D01*
X38309500Y27967000D01*
X38197000Y27854500D01*
X38194823Y27217000D01*
X38203511Y27128785D01*
X38229243Y27043959D01*
X38271029Y26965784D01*
X38327263Y26897263D01*
X38395784Y26841029D01*
X38473959Y26799243D01*
X38558785Y26773511D01*
X38647000Y26764823D01*
X38830537Y26765450D01*
X38604552Y26614451D01*
X38467101Y26477000D01*
X36003654Y26477000D01*
X35956999Y26481595D01*
X35910345Y26477000D01*
X35910335Y26477000D01*
X35770768Y26463254D01*
X35591692Y26408932D01*
X35426655Y26320718D01*
X35426653Y26320717D01*
X35426654Y26320717D01*
X35318245Y26231748D01*
X35318242Y26231745D01*
X35281999Y26202001D01*
X35252254Y26165757D01*
X32520000Y23433502D01*
X32006750Y23946752D01*
X31977001Y23983001D01*
X31832345Y24101718D01*
X31667308Y24189932D01*
X31488232Y24244254D01*
X31479661Y24245098D01*
X31479661Y24658000D01*
X31464238Y24814591D01*
X31418562Y24965165D01*
X31344388Y25103935D01*
X31244567Y25225567D01*
X31122935Y25325388D01*
X30984165Y25399562D01*
X30833591Y25445238D01*
X30677000Y25460661D01*
X26727000Y25460661D01*
X26570409Y25445238D01*
X26419835Y25399562D01*
X26281065Y25325388D01*
X26159433Y25225567D01*
X26059612Y25103935D01*
X25985438Y24965165D01*
X25939762Y24814591D01*
X25924339Y24658000D01*
X25924339Y21958000D01*
X25939762Y21801409D01*
X25985438Y21650835D01*
X26059612Y21512065D01*
X26159433Y21390433D01*
X26179457Y21374000D01*
X24874543Y21374000D01*
X24894567Y21390433D01*
X24994388Y21512065D01*
X25068562Y21650835D01*
X25114238Y21801409D01*
X25129661Y21958000D01*
X25129661Y24658000D01*
X25114238Y24814591D01*
X25068562Y24965165D01*
X24994388Y25103935D01*
X24894567Y25225567D01*
X24772935Y25325388D01*
X24634165Y25399562D01*
X24483591Y25445238D01*
X24327000Y25460661D01*
X20377000Y25460661D01*
X20220409Y25445238D01*
X20069835Y25399562D01*
X19931065Y25325388D01*
X19809433Y25225567D01*
X19709612Y25103935D01*
X19635438Y24965165D01*
X19589762Y24814591D01*
X19574339Y24658000D01*
X19574339Y24258000D01*
X19544654Y24258000D01*
X19498000Y24262595D01*
X19451345Y24258000D01*
X19451335Y24258000D01*
X19311768Y24244254D01*
X19132692Y24189932D01*
X18967655Y24101718D01*
X18967653Y24101717D01*
X18967654Y24101717D01*
X18859245Y24012748D01*
X18859242Y24012745D01*
X18822999Y23983001D01*
X18793254Y23946757D01*
X18730000Y23883503D01*
X18730000Y26024343D01*
X18734595Y26071000D01*
X18730000Y26117657D01*
X18730000Y26117665D01*
X18716254Y26257232D01*
X18670237Y26408931D01*
X18661932Y26436309D01*
X18573717Y26601346D01*
X18484748Y26709755D01*
X18484745Y26709758D01*
X18455001Y26746001D01*
X18418757Y26775746D01*
X18286503Y26908000D01*
X19674823Y26908000D01*
X19683511Y26819785D01*
X19709243Y26734959D01*
X19751029Y26656784D01*
X19807263Y26588263D01*
X19875784Y26532029D01*
X19953959Y26490243D01*
X20038785Y26464511D01*
X20127000Y26455823D01*
X22139500Y26458000D01*
X22252000Y26570500D01*
X22252000Y28408000D01*
X22452000Y28408000D01*
X22452000Y26570500D01*
X22564500Y26458000D01*
X24577000Y26455823D01*
X24665215Y26464511D01*
X24750041Y26490243D01*
X24828216Y26532029D01*
X24896737Y26588263D01*
X24952971Y26656784D01*
X24994757Y26734959D01*
X25020489Y26819785D01*
X25029177Y26908000D01*
X26024823Y26908000D01*
X26033511Y26819785D01*
X26059243Y26734959D01*
X26101029Y26656784D01*
X26157263Y26588263D01*
X26225784Y26532029D01*
X26303959Y26490243D01*
X26388785Y26464511D01*
X26477000Y26455823D01*
X28489500Y26458000D01*
X28602000Y26570500D01*
X28602000Y28408000D01*
X28802000Y28408000D01*
X28802000Y26570500D01*
X28914500Y26458000D01*
X30927000Y26455823D01*
X31015215Y26464511D01*
X31100041Y26490243D01*
X31178216Y26532029D01*
X31246737Y26588263D01*
X31302971Y26656784D01*
X31344757Y26734959D01*
X31370489Y26819785D01*
X31379177Y26908000D01*
X31377000Y28295500D01*
X31264500Y28408000D01*
X28802000Y28408000D01*
X28602000Y28408000D01*
X26139500Y28408000D01*
X26027000Y28295500D01*
X26024823Y26908000D01*
X25029177Y26908000D01*
X25027000Y28295500D01*
X24914500Y28408000D01*
X22452000Y28408000D01*
X22252000Y28408000D01*
X19789500Y28408000D01*
X19677000Y28295500D01*
X19674823Y26908000D01*
X18286503Y26908000D01*
X16116748Y29077754D01*
X16087001Y29114001D01*
X15942345Y29232718D01*
X15777308Y29320932D01*
X15598232Y29375254D01*
X15458665Y29389000D01*
X15458654Y29389000D01*
X15412000Y29393595D01*
X15365346Y29389000D01*
X15164661Y29389000D01*
X15164661Y29689000D01*
X15154042Y29796819D01*
X15122592Y29900494D01*
X15071521Y29996042D01*
X15002790Y30079790D01*
X14919042Y30148521D01*
X14823494Y30199592D01*
X14719819Y30231042D01*
X14612000Y30241661D01*
X12312000Y30241661D01*
X12204181Y30231042D01*
X12100506Y30199592D01*
X12004958Y30148521D01*
X11921210Y30079790D01*
X11852479Y29996042D01*
X11801408Y29900494D01*
X11769958Y29796819D01*
X11759339Y29689000D01*
X11759339Y29398000D01*
X6287064Y29398000D01*
X6229287Y29537487D01*
X5977573Y29914203D01*
X5657203Y30234573D01*
X5280487Y30486287D01*
X4923876Y30634000D01*
X16327823Y30634000D01*
X16327823Y29734000D01*
X16336511Y29645785D01*
X16362243Y29560959D01*
X16404029Y29482784D01*
X16460263Y29414263D01*
X16528784Y29358029D01*
X16606959Y29316243D01*
X16691785Y29290511D01*
X16780000Y29281823D01*
X17680000Y29281823D01*
X17680000Y30634000D01*
X17880000Y30634000D01*
X17880000Y29281823D01*
X18780000Y29281823D01*
X18868215Y29290511D01*
X18953041Y29316243D01*
X19031216Y29358029D01*
X19099737Y29414263D01*
X19155971Y29482784D01*
X19197757Y29560959D01*
X19223489Y29645785D01*
X19232177Y29734000D01*
X19232177Y30108000D01*
X19674823Y30108000D01*
X19677000Y28720500D01*
X19789500Y28608000D01*
X22252000Y28608000D01*
X22252000Y30445500D01*
X22452000Y30445500D01*
X22452000Y28608000D01*
X24914500Y28608000D01*
X25027000Y28720500D01*
X25029177Y30108000D01*
X26024823Y30108000D01*
X26027000Y28720500D01*
X26139500Y28608000D01*
X28602000Y28608000D01*
X28602000Y30445500D01*
X28802000Y30445500D01*
X28802000Y28608000D01*
X31264500Y28608000D01*
X31377000Y28720500D01*
X31377308Y28917000D01*
X38194823Y28917000D01*
X38197000Y28279500D01*
X38309500Y28167000D01*
X39397000Y28167000D01*
X39397000Y29254500D01*
X39597000Y29254500D01*
X39597000Y28167000D01*
X40684500Y28167000D01*
X40797000Y28279500D01*
X40799177Y28917000D01*
X40790489Y29005215D01*
X40764757Y29090041D01*
X40722971Y29168216D01*
X40666737Y29236737D01*
X40598216Y29292971D01*
X40520041Y29334757D01*
X40435215Y29360489D01*
X40347000Y29369177D01*
X39709500Y29367000D01*
X39597000Y29254500D01*
X39397000Y29254500D01*
X39284500Y29367000D01*
X38647000Y29369177D01*
X38558785Y29360489D01*
X38473959Y29334757D01*
X38395784Y29292971D01*
X38327263Y29236737D01*
X38271029Y29168216D01*
X38229243Y29090041D01*
X38203511Y29005215D01*
X38194823Y28917000D01*
X31377308Y28917000D01*
X31379177Y30108000D01*
X31370489Y30196215D01*
X31344757Y30281041D01*
X31302971Y30359216D01*
X31246737Y30427737D01*
X31178216Y30483971D01*
X31100041Y30525757D01*
X31015215Y30551489D01*
X30927000Y30560177D01*
X28914500Y30558000D01*
X28802000Y30445500D01*
X28602000Y30445500D01*
X28489500Y30558000D01*
X26477000Y30560177D01*
X26388785Y30551489D01*
X26303959Y30525757D01*
X26225784Y30483971D01*
X26157263Y30427737D01*
X26101029Y30359216D01*
X26059243Y30281041D01*
X26033511Y30196215D01*
X26024823Y30108000D01*
X25029177Y30108000D01*
X25020489Y30196215D01*
X24994757Y30281041D01*
X24952971Y30359216D01*
X24896737Y30427737D01*
X24828216Y30483971D01*
X24750041Y30525757D01*
X24665215Y30551489D01*
X24577000Y30560177D01*
X22564500Y30558000D01*
X22452000Y30445500D01*
X22252000Y30445500D01*
X22139500Y30558000D01*
X20127000Y30560177D01*
X20038785Y30551489D01*
X19953959Y30525757D01*
X19875784Y30483971D01*
X19807263Y30427737D01*
X19751029Y30359216D01*
X19709243Y30281041D01*
X19683511Y30196215D01*
X19674823Y30108000D01*
X19232177Y30108000D01*
X19232177Y30634000D01*
X31567823Y30634000D01*
X31567823Y29734000D01*
X31576511Y29645785D01*
X31602243Y29560959D01*
X31644029Y29482784D01*
X31700263Y29414263D01*
X31768784Y29358029D01*
X31846959Y29316243D01*
X31931785Y29290511D01*
X32020000Y29281823D01*
X32920000Y29281823D01*
X32920000Y30634000D01*
X33120000Y30634000D01*
X33120000Y29281823D01*
X34020000Y29281823D01*
X34108215Y29290511D01*
X34193041Y29316243D01*
X34271216Y29358029D01*
X34339737Y29414263D01*
X34395971Y29482784D01*
X34437757Y29560959D01*
X34463489Y29645785D01*
X34472177Y29734000D01*
X34472177Y30634000D01*
X33120000Y30634000D01*
X32920000Y30634000D01*
X31567823Y30634000D01*
X19232177Y30634000D01*
X17880000Y30634000D01*
X17680000Y30634000D01*
X16327823Y30634000D01*
X4923876Y30634000D01*
X4861903Y30659670D01*
X4417536Y30748060D01*
X3964464Y30748060D01*
X3520097Y30659670D01*
X3101513Y30486287D01*
X2724797Y30234573D01*
X2404427Y29914203D01*
X2152713Y29537487D01*
X1979330Y29118903D01*
X1890940Y28674536D01*
X854000Y28674536D01*
X854000Y31922000D01*
X16370239Y31922000D01*
X16362243Y31907041D01*
G37*
X16362243Y31907041D02*
X16336511Y31822215D01*
X16327823Y31734000D01*
X16327823Y30834000D01*
X17680000Y30834000D01*
X17680000Y30854000D01*
X17880000Y30854000D01*
X17880000Y30834000D01*
X19232177Y30834000D01*
X19232177Y31734000D01*
X19223489Y31822215D01*
X19197757Y31907041D01*
X19189761Y31922000D01*
X31610239Y31922000D01*
X31602243Y31907041D01*
X31576511Y31822215D01*
X31567823Y31734000D01*
X31567823Y30834000D01*
X32920000Y30834000D01*
X32920000Y30854000D01*
X33120000Y30854000D01*
X33120000Y30834000D01*
X34472177Y30834000D01*
X34472177Y31734000D01*
X34463489Y31822215D01*
X34437757Y31907041D01*
X34429761Y31922000D01*
X41654000Y31922000D01*
X41654001Y1122000D01*
X854000Y1122000D01*
X854000Y2573000D01*
X3622823Y2573000D01*
X3631511Y2484785D01*
X3657243Y2399959D01*
X3699029Y2321784D01*
X3755263Y2253263D01*
X3823784Y2197029D01*
X3901959Y2155243D01*
X3986785Y2129511D01*
X4075000Y2120823D01*
X4387500Y2123000D01*
X4500000Y2235500D01*
X4500000Y2948000D01*
X3737500Y2948000D01*
X3625000Y2835500D01*
X3622823Y2573000D01*
X854000Y2573000D01*
X854000Y3523000D01*
X3622823Y3523000D01*
X3625000Y3260500D01*
X3737500Y3148000D01*
X4500000Y3148000D01*
X4500000Y3860500D01*
X4387500Y3973000D01*
X4075000Y3975177D01*
X3986785Y3966489D01*
X3901959Y3940757D01*
X3823784Y3898971D01*
X3755263Y3842737D01*
X3699029Y3774216D01*
X3657243Y3696041D01*
X3631511Y3611215D01*
X3622823Y3523000D01*
X854000Y3523000D01*
X854000Y6383000D01*
X3622823Y6383000D01*
X3631511Y6294785D01*
X3657243Y6209959D01*
X3699029Y6131784D01*
X3755263Y6063263D01*
X3823784Y6007029D01*
X3901959Y5965243D01*
X3986785Y5939511D01*
X4075000Y5930823D01*
X4387500Y5933000D01*
X4500000Y6045500D01*
X4500000Y6758000D01*
X3737500Y6758000D01*
X3625000Y6645500D01*
X3622823Y6383000D01*
X854000Y6383000D01*
X854000Y7333000D01*
X3622823Y7333000D01*
X3625000Y7070500D01*
X3737500Y6958000D01*
X4500000Y6958000D01*
X4500000Y7670500D01*
X4387500Y7783000D01*
X4075000Y7785177D01*
X3986785Y7776489D01*
X3901959Y7750757D01*
X3823784Y7708971D01*
X3755263Y7652737D01*
X3699029Y7584216D01*
X3657243Y7506041D01*
X3631511Y7421215D01*
X3622823Y7333000D01*
X854000Y7333000D01*
X854000Y11255469D01*
X8260453Y11255469D01*
X8306042Y11105168D01*
X8417612Y10876043D01*
X8571738Y10673087D01*
X8762498Y10504099D01*
X8982560Y10375573D01*
X9223468Y10292449D01*
X9425000Y10373348D01*
X9425000Y11457000D01*
X9625000Y11457000D01*
X9625000Y10373348D01*
X9826532Y10292449D01*
X10067440Y10375573D01*
X10287502Y10504099D01*
X10478262Y10673087D01*
X10573121Y10798000D01*
X11645823Y10798000D01*
X11648000Y10485500D01*
X11760500Y10373000D01*
X12473000Y10373000D01*
X12473000Y11135500D01*
X12360500Y11248000D01*
X12098000Y11250177D01*
X12009785Y11241489D01*
X11924959Y11215757D01*
X11846784Y11173971D01*
X11778263Y11117737D01*
X11722029Y11049216D01*
X11680243Y10971041D01*
X11654511Y10886215D01*
X11645823Y10798000D01*
X10573121Y10798000D01*
X10632388Y10876043D01*
X10743958Y11105168D01*
X10789547Y11255469D01*
X10708282Y11457000D01*
X9625000Y11457000D01*
X9425000Y11457000D01*
X8341718Y11457000D01*
X8260453Y11255469D01*
X854000Y11255469D01*
X854000Y16989320D01*
X2779741Y16989320D01*
X2973812Y16696555D01*
X3357228Y16494553D01*
X3772686Y16371233D01*
X4204219Y16331335D01*
X4635245Y16376391D01*
X5049198Y16504671D01*
X5408188Y16696555D01*
X5602259Y16989320D01*
X4191000Y18400579D01*
X2779741Y16989320D01*
X854000Y16989320D01*
X854000Y18528781D01*
X1980335Y18528781D01*
X2025391Y18097755D01*
X2153671Y17683802D01*
X2345555Y17324812D01*
X2638320Y17130741D01*
X4049579Y18542000D01*
X4332421Y18542000D01*
X5743680Y17130741D01*
X6036445Y17324812D01*
X6238447Y17708228D01*
X6361767Y18123686D01*
X6401665Y18555219D01*
X6356609Y18986245D01*
X6228329Y19400198D01*
X6036445Y19759188D01*
X5743680Y19953259D01*
X4332421Y18542000D01*
X4049579Y18542000D01*
X2638320Y19953259D01*
X2345555Y19759188D01*
X2143553Y19375772D01*
X2020233Y18960314D01*
X1980335Y18528781D01*
X854000Y18528781D01*
X854000Y20094680D01*
X2779741Y20094680D01*
X4191000Y18683421D01*
X5602259Y20094680D01*
X5408188Y20387445D01*
X5024772Y20589447D01*
X4609314Y20712767D01*
X4177781Y20752665D01*
X3746755Y20707609D01*
X3332802Y20579329D01*
X2973812Y20387445D01*
X2779741Y20094680D01*
X854000Y20094680D01*
X854000Y23721536D01*
X1890940Y23721536D01*
X1890940Y23268464D01*
X1979330Y22824097D01*
X2152713Y22405513D01*
X2404427Y22028797D01*
X2724797Y21708427D01*
X3101513Y21456713D01*
X3520097Y21283330D01*
X3964464Y21194940D01*
X4417536Y21194940D01*
X4861903Y21283330D01*
X5280487Y21456713D01*
X5657203Y21708427D01*
X5977573Y22028797D01*
X6229287Y22405513D01*
X6287064Y22545000D01*
X11882810Y22545000D01*
X11921210Y22498210D01*
X12004958Y22429479D01*
X12100506Y22378408D01*
X12204181Y22346958D01*
X12312000Y22336339D01*
X14612000Y22336339D01*
X14719819Y22346958D01*
X14823494Y22378408D01*
X14919042Y22429479D01*
X15002790Y22498210D01*
X15071521Y22581958D01*
X15122592Y22677506D01*
X15154042Y22781181D01*
X15164661Y22889000D01*
X15164661Y25389000D01*
X15154042Y25496819D01*
X15122592Y25600494D01*
X15071521Y25696042D01*
X15002790Y25779790D01*
X14919042Y25848521D01*
X14823494Y25899592D01*
X14719819Y25931042D01*
X14612000Y25941661D01*
X12312000Y25941661D01*
X12204181Y25931042D01*
X12100506Y25899592D01*
X12004958Y25848521D01*
X11921210Y25779790D01*
X11852479Y25696042D01*
X11801408Y25600494D01*
X11769958Y25496819D01*
X11759339Y25389000D01*
X11759339Y24445000D01*
X6287064Y24445000D01*
X6229287Y24584487D01*
X5977573Y24961203D01*
X5657203Y25281573D01*
X5280487Y25533287D01*
X4861903Y25706670D01*
X4417536Y25795060D01*
X3964464Y25795060D01*
X3520097Y25706670D01*
X3101513Y25533287D01*
X2724797Y25281573D01*
X2404427Y24961203D01*
X2152713Y24584487D01*
X1979330Y24165903D01*
X1890940Y23721536D01*
X854000Y23721536D01*
X854000Y28674536D01*
X1890940Y28674536D01*
X1890940Y28221464D01*
X1979330Y27777097D01*
X2152713Y27358513D01*
X2404427Y26981797D01*
X2724797Y26661427D01*
X3101513Y26409713D01*
X3520097Y26236330D01*
X3964464Y26147940D01*
X4417536Y26147940D01*
X4861903Y26236330D01*
X5280487Y26409713D01*
X5657203Y26661427D01*
X5977573Y26981797D01*
X6229287Y27358513D01*
X6287064Y27498000D01*
X11759339Y27498000D01*
X11759339Y27189000D01*
X11769958Y27081181D01*
X11801408Y26977506D01*
X11852479Y26881958D01*
X11921210Y26798210D01*
X12004958Y26729479D01*
X12100506Y26678408D01*
X12204181Y26646958D01*
X12312000Y26636339D01*
X14612000Y26636339D01*
X14719819Y26646958D01*
X14823494Y26678408D01*
X14919042Y26729479D01*
X15002790Y26798210D01*
X15071521Y26881958D01*
X15122592Y26977506D01*
X15154042Y27081181D01*
X15164661Y27189000D01*
X15164661Y27342837D01*
X16830000Y25677497D01*
X16830001Y23142661D01*
X16780000Y23142661D01*
X16672181Y23132042D01*
X16568506Y23100592D01*
X16472958Y23049521D01*
X16389210Y22980790D01*
X16320479Y22897042D01*
X16269408Y22801494D01*
X16237958Y22697819D01*
X16227339Y22590000D01*
X16227339Y20590000D01*
X16237958Y20482181D01*
X16269408Y20378506D01*
X16320479Y20282958D01*
X16389210Y20199210D01*
X16472958Y20130479D01*
X16568506Y20079408D01*
X16672181Y20047958D01*
X16780000Y20037339D01*
X16913594Y20037339D01*
X16887243Y19988041D01*
X16861511Y19903215D01*
X16852823Y19815000D01*
X16855000Y19502500D01*
X16967500Y19390000D01*
X17680000Y19390000D01*
X17680000Y19410000D01*
X17880000Y19410000D01*
X17880000Y19390000D01*
X17900000Y19390000D01*
X17900000Y19190000D01*
X17880000Y19190000D01*
X17880000Y19170000D01*
X17680000Y19170000D01*
X17680000Y19190000D01*
X16967500Y19190000D01*
X16855000Y19077500D01*
X16852823Y18765000D01*
X16861511Y18676785D01*
X16887243Y18591959D01*
X16929029Y18513784D01*
X16985263Y18445263D01*
X17020484Y18416357D01*
X16983772Y18386228D01*
X16885505Y18266490D01*
X16812486Y18129882D01*
X16776179Y18010192D01*
X15579473Y19206897D01*
X15554422Y19237422D01*
X15432606Y19337393D01*
X15293628Y19411679D01*
X15142827Y19457424D01*
X15025293Y19469000D01*
X15025291Y19469000D01*
X14986000Y19472870D01*
X14946709Y19469000D01*
X13214223Y19469000D01*
X13152451Y19561448D01*
X12957448Y19756451D01*
X12728149Y19909664D01*
X12473365Y20015199D01*
X12202888Y20069000D01*
X11927112Y20069000D01*
X11656635Y20015199D01*
X11401851Y19909664D01*
X11172552Y19756451D01*
X10977549Y19561448D01*
X10927661Y19486785D01*
X10927661Y19519000D01*
X10917042Y19626819D01*
X10885592Y19730494D01*
X10834521Y19826042D01*
X10765790Y19909790D01*
X10682042Y19978521D01*
X10586494Y20029592D01*
X10482819Y20061042D01*
X10375000Y20071661D01*
X8675000Y20071661D01*
X8567181Y20061042D01*
X8463506Y20029592D01*
X8367958Y19978521D01*
X8284210Y19909790D01*
X8215479Y19826042D01*
X8164408Y19730494D01*
X8132958Y19626819D01*
X8122339Y19519000D01*
X8122339Y17819000D01*
X8132958Y17711181D01*
X8164408Y17607506D01*
X8215479Y17511958D01*
X8284210Y17428210D01*
X8367958Y17359479D01*
X8463506Y17308408D01*
X8567181Y17276958D01*
X8675000Y17266339D01*
X8726317Y17266339D01*
X8736576Y17162174D01*
X8767725Y17059490D01*
X8782321Y17011373D01*
X8856607Y16872394D01*
X8885348Y16837373D01*
X8956578Y16750578D01*
X8987103Y16725527D01*
X9232527Y16480103D01*
X9257578Y16449578D01*
X9379394Y16349607D01*
X9518372Y16275321D01*
X9669173Y16229576D01*
X9786707Y16218000D01*
X9786716Y16218000D01*
X9825999Y16214131D01*
X9865282Y16218000D01*
X14775630Y16218000D01*
X15748745Y15244885D01*
X15740181Y15244042D01*
X15636506Y15212592D01*
X15540958Y15161521D01*
X15457210Y15092790D01*
X15388479Y15009042D01*
X15337408Y14913494D01*
X15305958Y14809819D01*
X15295339Y14702000D01*
X10927661Y14702000D01*
X10927661Y14947000D01*
X10917042Y15054819D01*
X10885592Y15158494D01*
X10834521Y15254042D01*
X10765790Y15337790D01*
X10682042Y15406521D01*
X10586494Y15457592D01*
X10482819Y15489042D01*
X10375000Y15499661D01*
X8675000Y15499661D01*
X8567181Y15489042D01*
X8463506Y15457592D01*
X8367958Y15406521D01*
X8284210Y15337790D01*
X8215479Y15254042D01*
X8164408Y15158494D01*
X8132958Y15054819D01*
X8122339Y14947000D01*
X8122339Y13247000D01*
X8132958Y13139181D01*
X8164408Y13035506D01*
X8215479Y12939958D01*
X8284210Y12856210D01*
X8367958Y12787479D01*
X8463506Y12736408D01*
X8567181Y12704958D01*
X8675000Y12694339D01*
X8907073Y12694339D01*
X8762498Y12609901D01*
X8571738Y12440913D01*
X8417612Y12237957D01*
X8306042Y12008832D01*
X8260453Y11858531D01*
X8341718Y11657000D01*
X9425000Y11657000D01*
X9425000Y11677000D01*
X9625000Y11677000D01*
X9625000Y11657000D01*
X10708282Y11657000D01*
X10789547Y11858531D01*
X10743958Y12008832D01*
X10632388Y12237957D01*
X10478262Y12440913D01*
X10287502Y12609901D01*
X10142927Y12694339D01*
X10375000Y12694339D01*
X10482819Y12704958D01*
X10586494Y12736408D01*
X10682042Y12787479D01*
X10765790Y12856210D01*
X10834521Y12939958D01*
X10885592Y13035506D01*
X10905763Y13102000D01*
X13469251Y13102000D01*
X13413479Y13034042D01*
X13362408Y12938494D01*
X13330958Y12834819D01*
X13320339Y12727000D01*
X13320339Y12177000D01*
X13330958Y12069181D01*
X13336170Y12052000D01*
X13330958Y12034819D01*
X13320339Y11927000D01*
X13320339Y11377000D01*
X13330958Y11269181D01*
X13362408Y11165506D01*
X13413479Y11069958D01*
X13482210Y10986210D01*
X13523892Y10952002D01*
X13471532Y10952002D01*
X13465757Y10971041D01*
X13423971Y11049216D01*
X13367737Y11117737D01*
X13299216Y11173971D01*
X13221041Y11215757D01*
X13136215Y11241489D01*
X13048000Y11250177D01*
X12785500Y11248000D01*
X12673000Y11135500D01*
X12673000Y10373000D01*
X12693000Y10373000D01*
X12693000Y10173000D01*
X12673000Y10173000D01*
X12673000Y10153000D01*
X12473000Y10153000D01*
X12473000Y10173000D01*
X11760500Y10173000D01*
X11648000Y10060500D01*
X11645823Y9748000D01*
X11654511Y9659785D01*
X11680243Y9574959D01*
X11722029Y9496784D01*
X11778263Y9428263D01*
X11813484Y9399357D01*
X11776772Y9369228D01*
X11678505Y9249490D01*
X11605486Y9112882D01*
X11560522Y8964653D01*
X11545339Y8810500D01*
X11545339Y8235500D01*
X11560522Y8081347D01*
X11605486Y7933118D01*
X11678505Y7796510D01*
X11776772Y7676772D01*
X11799646Y7658000D01*
X10426954Y7658000D01*
X10407776Y7686702D01*
X10226702Y7867776D01*
X10013781Y8010045D01*
X9777196Y8108042D01*
X9526039Y8158000D01*
X9269961Y8158000D01*
X9018804Y8108042D01*
X8782219Y8010045D01*
X8569298Y7867776D01*
X8388224Y7686702D01*
X8369046Y7658000D01*
X7191632Y7658000D01*
X7076490Y7752495D01*
X6939882Y7825514D01*
X6791653Y7870478D01*
X6637500Y7885661D01*
X6062500Y7885661D01*
X5908347Y7870478D01*
X5760118Y7825514D01*
X5623510Y7752495D01*
X5503772Y7654228D01*
X5473643Y7617516D01*
X5444737Y7652737D01*
X5376216Y7708971D01*
X5298041Y7750757D01*
X5213215Y7776489D01*
X5125000Y7785177D01*
X4812500Y7783000D01*
X4700000Y7670500D01*
X4700000Y6958000D01*
X4720000Y6958000D01*
X4720000Y6758000D01*
X4700000Y6758000D01*
X4700000Y6045500D01*
X4812500Y5933000D01*
X5125000Y5930823D01*
X5213215Y5939511D01*
X5298041Y5965243D01*
X5376216Y6007029D01*
X5444737Y6063263D01*
X5473643Y6098484D01*
X5503772Y6061772D01*
X5623510Y5963505D01*
X5760118Y5890486D01*
X5908347Y5845522D01*
X6062500Y5830339D01*
X6637500Y5830339D01*
X6791653Y5845522D01*
X6939882Y5890486D01*
X7076490Y5963505D01*
X7191632Y6058000D01*
X8369046Y6058000D01*
X8388224Y6029298D01*
X8569298Y5848224D01*
X8782219Y5705955D01*
X9018804Y5607958D01*
X9269961Y5558000D01*
X9526039Y5558000D01*
X9777196Y5607958D01*
X10013781Y5705955D01*
X10226702Y5848224D01*
X10407776Y6029298D01*
X10426954Y6058000D01*
X12754707Y6058000D01*
X12793998Y6054130D01*
X12833289Y6058000D01*
X12833291Y6058000D01*
X12950825Y6069576D01*
X13101626Y6115321D01*
X13240604Y6189607D01*
X13362420Y6289578D01*
X13386990Y6319516D01*
X13413479Y6269958D01*
X13482210Y6186210D01*
X13565958Y6117479D01*
X13576483Y6111853D01*
X11322630Y3858000D01*
X10426954Y3858000D01*
X10407776Y3886702D01*
X10226702Y4067776D01*
X10013781Y4210045D01*
X9777196Y4308042D01*
X9526039Y4358000D01*
X9269961Y4358000D01*
X9018804Y4308042D01*
X8782219Y4210045D01*
X8569298Y4067776D01*
X8388224Y3886702D01*
X8362364Y3848000D01*
X7191632Y3848000D01*
X7076490Y3942495D01*
X6939882Y4015514D01*
X6791653Y4060478D01*
X6637500Y4075661D01*
X6062500Y4075661D01*
X5908347Y4060478D01*
X5760118Y4015514D01*
X5623510Y3942495D01*
X5503772Y3844228D01*
X5473643Y3807516D01*
X5444737Y3842737D01*
X5376216Y3898971D01*
X5298041Y3940757D01*
X5213215Y3966489D01*
X5125000Y3975177D01*
X4812500Y3973000D01*
X4700000Y3860500D01*
X4700000Y3148000D01*
X4720000Y3148000D01*
X4720000Y2948000D01*
X4700000Y2948000D01*
X4700000Y2235500D01*
X4812500Y2123000D01*
X5125000Y2120823D01*
X5213215Y2129511D01*
X5298041Y2155243D01*
X5376216Y2197029D01*
X5444737Y2253263D01*
X5473643Y2288484D01*
X5503772Y2251772D01*
X5623510Y2153505D01*
X5760118Y2080486D01*
X5908347Y2035522D01*
X6062500Y2020339D01*
X6637500Y2020339D01*
X6791653Y2035522D01*
X6939882Y2080486D01*
X7076490Y2153505D01*
X7191632Y2248000D01*
X8375728Y2248000D01*
X8388224Y2229298D01*
X8569298Y2048224D01*
X8782219Y1905955D01*
X9018804Y1807958D01*
X9269961Y1758000D01*
X9526039Y1758000D01*
X9777196Y1807958D01*
X10013781Y1905955D01*
X10226702Y2048224D01*
X10407776Y2229298D01*
X10426954Y2258000D01*
X11614709Y2258000D01*
X11654000Y2254130D01*
X11693291Y2258000D01*
X11693293Y2258000D01*
X11810827Y2269576D01*
X11961628Y2315321D01*
X12100606Y2389607D01*
X12222422Y2489578D01*
X12247473Y2520103D01*
X15210897Y5483527D01*
X15241422Y5508578D01*
X15295339Y5574277D01*
X15295339Y4602000D01*
X15305958Y4494181D01*
X15337408Y4390506D01*
X15388479Y4294958D01*
X15457210Y4211210D01*
X15540958Y4142479D01*
X15636506Y4091408D01*
X15740181Y4059958D01*
X15848000Y4049339D01*
X16398000Y4049339D01*
X16505819Y4059958D01*
X16523000Y4065170D01*
X16540181Y4059958D01*
X16648000Y4049339D01*
X17198000Y4049339D01*
X17305819Y4059958D01*
X17323000Y4065170D01*
X17340181Y4059958D01*
X17448000Y4049339D01*
X17998000Y4049339D01*
X18105819Y4059958D01*
X18123000Y4065170D01*
X18140181Y4059958D01*
X18248000Y4049339D01*
X18798000Y4049339D01*
X18905819Y4059958D01*
X18923000Y4065170D01*
X18940181Y4059958D01*
X19048000Y4049339D01*
X19598000Y4049339D01*
X19705819Y4059958D01*
X19723000Y4065170D01*
X19727329Y4063857D01*
X19656851Y4034664D01*
X19427552Y3881451D01*
X19232549Y3686448D01*
X19079336Y3457149D01*
X18973801Y3202365D01*
X18920000Y2931888D01*
X18920000Y2656112D01*
X18973801Y2385635D01*
X19079336Y2130851D01*
X19232549Y1901552D01*
X19427552Y1706549D01*
X19656851Y1553336D01*
X19911635Y1447801D01*
X20182112Y1394000D01*
X20457888Y1394000D01*
X20728365Y1447801D01*
X20983149Y1553336D01*
X21212448Y1706549D01*
X21407451Y1901552D01*
X21560664Y2130851D01*
X21590000Y2201674D01*
X21619336Y2130851D01*
X21772549Y1901552D01*
X21967552Y1706549D01*
X22196851Y1553336D01*
X22451635Y1447801D01*
X22722112Y1394000D01*
X22997888Y1394000D01*
X23268365Y1447801D01*
X23523149Y1553336D01*
X23752448Y1706549D01*
X23947451Y1901552D01*
X23997339Y1976215D01*
X23997339Y1944000D01*
X24007958Y1836181D01*
X24039408Y1732506D01*
X24090479Y1636958D01*
X24159210Y1553210D01*
X24242958Y1484479D01*
X24338506Y1433408D01*
X24442181Y1401958D01*
X24550000Y1391339D01*
X26250000Y1391339D01*
X26357819Y1401958D01*
X26461494Y1433408D01*
X26557042Y1484479D01*
X26640790Y1553210D01*
X26709521Y1636958D01*
X26760592Y1732506D01*
X26792042Y1836181D01*
X26802661Y1944000D01*
X26802661Y3644000D01*
X26792042Y3751819D01*
X26771094Y3820874D01*
X26812882Y3803565D01*
X27112338Y3744000D01*
X27417662Y3744000D01*
X27639503Y3788127D01*
X29679531Y1748098D01*
X29704578Y1717578D01*
X29735098Y1692531D01*
X29826393Y1617607D01*
X29841542Y1609510D01*
X29965372Y1543321D01*
X30116173Y1497576D01*
X30233707Y1486000D01*
X30233716Y1486000D01*
X30272999Y1482131D01*
X30312282Y1486000D01*
X32940368Y1486000D01*
X33055510Y1391505D01*
X33192118Y1318486D01*
X33340347Y1273522D01*
X33494500Y1258339D01*
X34069500Y1258339D01*
X34223653Y1273522D01*
X34371882Y1318486D01*
X34508490Y1391505D01*
X34628228Y1489772D01*
X34657000Y1524831D01*
X34685772Y1489772D01*
X34805510Y1391505D01*
X34942118Y1318486D01*
X35090347Y1273522D01*
X35244500Y1258339D01*
X35819500Y1258339D01*
X35973653Y1273522D01*
X36121882Y1318486D01*
X36258490Y1391505D01*
X36378228Y1489772D01*
X36476495Y1609510D01*
X36549514Y1746118D01*
X36594478Y1894347D01*
X36609661Y2048500D01*
X36609661Y2523500D01*
X36594478Y2677653D01*
X36549514Y2825882D01*
X36476495Y2962490D01*
X36437504Y3010000D01*
X36703804Y3010000D01*
X36823713Y2720513D01*
X37075427Y2343797D01*
X37395797Y2023427D01*
X37772513Y1771713D01*
X38191097Y1598330D01*
X38635464Y1509940D01*
X39088536Y1509940D01*
X39532903Y1598330D01*
X39951487Y1771713D01*
X40328203Y2023427D01*
X40648573Y2343797D01*
X40900287Y2720513D01*
X41073670Y3139097D01*
X41162060Y3583464D01*
X41162060Y4036536D01*
X41073670Y4480903D01*
X40900287Y4899487D01*
X40648573Y5276203D01*
X40328203Y5596573D01*
X39951487Y5848287D01*
X39532903Y6021670D01*
X39088536Y6110060D01*
X38635464Y6110060D01*
X38191097Y6021670D01*
X37772513Y5848287D01*
X37395797Y5596573D01*
X37075427Y5276203D01*
X36823713Y4899487D01*
X36703804Y4610000D01*
X36451504Y4610000D01*
X36490495Y4657510D01*
X36563514Y4794118D01*
X36608478Y4942347D01*
X36623661Y5096500D01*
X36623661Y5571500D01*
X36608478Y5725653D01*
X36563514Y5873882D01*
X36490495Y6010490D01*
X36392228Y6130228D01*
X36272490Y6228495D01*
X36135882Y6301514D01*
X35987653Y6346478D01*
X35833500Y6361661D01*
X35258500Y6361661D01*
X35104347Y6346478D01*
X34956118Y6301514D01*
X34819510Y6228495D01*
X34699772Y6130228D01*
X34669643Y6093516D01*
X34640737Y6128737D01*
X34572216Y6184971D01*
X34494041Y6226757D01*
X34409215Y6252489D01*
X34321000Y6261177D01*
X34008500Y6259000D01*
X33896000Y6146500D01*
X33896000Y5434000D01*
X33916000Y5434000D01*
X33916000Y5234000D01*
X33896000Y5234000D01*
X33896000Y5214000D01*
X33696000Y5214000D01*
X33696000Y5234000D01*
X32933500Y5234000D01*
X32821000Y5121500D01*
X32818823Y4859000D01*
X32827511Y4770785D01*
X32853243Y4685959D01*
X32893845Y4610000D01*
X32716371Y4610000D01*
X31886661Y5439709D01*
X31886661Y5809000D01*
X32818823Y5809000D01*
X32821000Y5546500D01*
X32933500Y5434000D01*
X33696000Y5434000D01*
X33696000Y6146500D01*
X33583500Y6259000D01*
X33271000Y6261177D01*
X33182785Y6252489D01*
X33097959Y6226757D01*
X33019784Y6184971D01*
X32951263Y6128737D01*
X32895029Y6060216D01*
X32853243Y5982041D01*
X32827511Y5897215D01*
X32818823Y5809000D01*
X31886661Y5809000D01*
X31886661Y6061000D01*
X31876042Y6168819D01*
X31844592Y6272494D01*
X31793521Y6368042D01*
X31724790Y6451790D01*
X31674411Y6493135D01*
X31729717Y6612084D01*
X31778655Y6813043D01*
X31787447Y7019688D01*
X31755756Y7224077D01*
X31684800Y7418357D01*
X31642514Y7497467D01*
X31467454Y7553033D01*
X30875421Y6961000D01*
X30889564Y6946857D01*
X30748143Y6805436D01*
X30734000Y6819579D01*
X30719858Y6805436D01*
X30578437Y6946857D01*
X30592579Y6961000D01*
X30000546Y7553033D01*
X29825486Y7497467D01*
X29756000Y7348021D01*
X29756000Y7694454D01*
X30141967Y7694454D01*
X30734000Y7102421D01*
X31326033Y7694454D01*
X31270467Y7869514D01*
X31082916Y7956717D01*
X30881957Y8005655D01*
X30675312Y8014447D01*
X30470923Y7982756D01*
X30276643Y7911800D01*
X30197533Y7869514D01*
X30141967Y7694454D01*
X29756000Y7694454D01*
X29756000Y11009709D01*
X29759870Y11049000D01*
X29753100Y11117737D01*
X29744424Y11205827D01*
X29698679Y11356628D01*
X29697831Y11358215D01*
X29624393Y11495607D01*
X29584056Y11544757D01*
X29524422Y11617422D01*
X29493897Y11642473D01*
X29484370Y11652000D01*
X29507630Y11652000D01*
X32426531Y8733098D01*
X32451578Y8702578D01*
X32482098Y8677531D01*
X32573393Y8602607D01*
X32588542Y8594510D01*
X32712372Y8528321D01*
X32863173Y8482576D01*
X32897242Y8479221D01*
X32851505Y8423490D01*
X32778486Y8286882D01*
X32733522Y8138653D01*
X32718339Y7984500D01*
X32718339Y7509500D01*
X32733522Y7355347D01*
X32778486Y7207118D01*
X32851505Y7070510D01*
X32949772Y6950772D01*
X33069510Y6852505D01*
X33206118Y6779486D01*
X33354347Y6734522D01*
X33508500Y6719339D01*
X34083500Y6719339D01*
X34237653Y6734522D01*
X34385882Y6779486D01*
X34522490Y6852505D01*
X34642228Y6950772D01*
X34672357Y6987484D01*
X34701263Y6952263D01*
X34769784Y6896029D01*
X34847959Y6854243D01*
X34932785Y6828511D01*
X35021000Y6819823D01*
X35333500Y6822000D01*
X35446000Y6934500D01*
X35446000Y7647000D01*
X35646000Y7647000D01*
X35646000Y6934500D01*
X35758500Y6822000D01*
X36071000Y6819823D01*
X36159215Y6828511D01*
X36244041Y6854243D01*
X36322216Y6896029D01*
X36390737Y6952263D01*
X36446971Y7020784D01*
X36488757Y7098959D01*
X36514489Y7183785D01*
X36523177Y7272000D01*
X36521000Y7534500D01*
X36408500Y7647000D01*
X35646000Y7647000D01*
X35446000Y7647000D01*
X35426000Y7647000D01*
X35426000Y7847000D01*
X35446000Y7847000D01*
X35446000Y7867000D01*
X35646000Y7867000D01*
X35646000Y7847000D01*
X36408500Y7847000D01*
X36521000Y7959500D01*
X36523177Y8222000D01*
X36514489Y8310215D01*
X36488757Y8395041D01*
X36448155Y8471000D01*
X36703804Y8471000D01*
X36823713Y8181513D01*
X37075427Y7804797D01*
X37395797Y7484427D01*
X37772513Y7232713D01*
X38191097Y7059330D01*
X38635464Y6970940D01*
X39088536Y6970940D01*
X39532903Y7059330D01*
X39951487Y7232713D01*
X40328203Y7484427D01*
X40648573Y7804797D01*
X40900287Y8181513D01*
X41073670Y8600097D01*
X41162060Y9044464D01*
X41162060Y9497536D01*
X41073670Y9941903D01*
X40900287Y10360487D01*
X40648573Y10737203D01*
X40328203Y11057573D01*
X39951487Y11309287D01*
X39532903Y11482670D01*
X39088536Y11571060D01*
X38635464Y11571060D01*
X38191097Y11482670D01*
X37772513Y11309287D01*
X37395797Y11057573D01*
X37075427Y10737203D01*
X36823713Y10360487D01*
X36703804Y10071000D01*
X36451504Y10071000D01*
X36490495Y10118510D01*
X36563514Y10255118D01*
X36608478Y10403347D01*
X36623661Y10557500D01*
X36623661Y11032500D01*
X36608478Y11186653D01*
X36563514Y11334882D01*
X36490495Y11471490D01*
X36392228Y11591228D01*
X36272490Y11689495D01*
X36135882Y11762514D01*
X35987653Y11807478D01*
X35833500Y11822661D01*
X35258500Y11822661D01*
X35104347Y11807478D01*
X34956118Y11762514D01*
X34819510Y11689495D01*
X34699772Y11591228D01*
X34669643Y11554516D01*
X34640737Y11589737D01*
X34572216Y11645971D01*
X34494041Y11687757D01*
X34409215Y11713489D01*
X34321000Y11722177D01*
X34008500Y11720000D01*
X33896000Y11607500D01*
X33896000Y10895000D01*
X33916000Y10895000D01*
X33916000Y10695000D01*
X33896000Y10695000D01*
X33896000Y10675000D01*
X33696000Y10675000D01*
X33696000Y10695000D01*
X32933500Y10695000D01*
X32830435Y10591935D01*
X32152370Y11270000D01*
X32818823Y11270000D01*
X32821000Y11007500D01*
X32933500Y10895000D01*
X33696000Y10895000D01*
X33696000Y11607500D01*
X33583500Y11720000D01*
X33271000Y11722177D01*
X33182785Y11713489D01*
X33097959Y11687757D01*
X33019784Y11645971D01*
X32951263Y11589737D01*
X32895029Y11521216D01*
X32853243Y11443041D01*
X32827511Y11358215D01*
X32818823Y11270000D01*
X32152370Y11270000D01*
X30432473Y12989897D01*
X30407422Y13020422D01*
X30308018Y13102000D01*
X32718339Y13102000D01*
X32718339Y13097500D01*
X32733522Y12943347D01*
X32778486Y12795118D01*
X32851505Y12658510D01*
X32949772Y12538772D01*
X33069510Y12440505D01*
X33206118Y12367486D01*
X33354347Y12322522D01*
X33508500Y12307339D01*
X34083500Y12307339D01*
X34237653Y12322522D01*
X34385882Y12367486D01*
X34522490Y12440505D01*
X34642228Y12538772D01*
X34672357Y12575484D01*
X34701263Y12540263D01*
X34769784Y12484029D01*
X34847959Y12442243D01*
X34932785Y12416511D01*
X35021000Y12407823D01*
X35333500Y12410000D01*
X35446000Y12522500D01*
X35446000Y13235000D01*
X35646000Y13235000D01*
X35646000Y12522500D01*
X35758500Y12410000D01*
X36071000Y12407823D01*
X36159215Y12416511D01*
X36244041Y12442243D01*
X36322216Y12484029D01*
X36390737Y12540263D01*
X36446971Y12608784D01*
X36488757Y12686959D01*
X36514489Y12771785D01*
X36523177Y12860000D01*
X36521000Y13122500D01*
X36408500Y13235000D01*
X35646000Y13235000D01*
X35446000Y13235000D01*
X35426000Y13235000D01*
X35426000Y13435000D01*
X35446000Y13435000D01*
X35446000Y13455000D01*
X35646000Y13455000D01*
X35646000Y13435000D01*
X36408500Y13435000D01*
X36521000Y13547500D01*
X36523177Y13810000D01*
X36514489Y13898215D01*
X36488757Y13983041D01*
X36448155Y14059000D01*
X36703804Y14059000D01*
X36823713Y13769513D01*
X37075427Y13392797D01*
X37395797Y13072427D01*
X37772513Y12820713D01*
X38191097Y12647330D01*
X38635464Y12558940D01*
X39088536Y12558940D01*
X39532903Y12647330D01*
X39951487Y12820713D01*
X40328203Y13072427D01*
X40648573Y13392797D01*
X40900287Y13769513D01*
X41073670Y14188097D01*
X41162060Y14632464D01*
X41162060Y15085536D01*
X41073670Y15529903D01*
X40900287Y15948487D01*
X40648573Y16325203D01*
X40328203Y16645573D01*
X39951487Y16897287D01*
X39532903Y17070670D01*
X39088536Y17159060D01*
X38635464Y17159060D01*
X38191097Y17070670D01*
X37772513Y16897287D01*
X37395797Y16645573D01*
X37075427Y16325203D01*
X36823713Y15948487D01*
X36703804Y15659000D01*
X36451504Y15659000D01*
X36490495Y15706510D01*
X36563514Y15843118D01*
X36608478Y15991347D01*
X36623661Y16145500D01*
X36623661Y16620500D01*
X36608478Y16774653D01*
X36563514Y16922882D01*
X36490495Y17059490D01*
X36392228Y17179228D01*
X36272490Y17277495D01*
X36135882Y17350514D01*
X35987653Y17395478D01*
X35833500Y17410661D01*
X35258500Y17410661D01*
X35104347Y17395478D01*
X34956118Y17350514D01*
X34819510Y17277495D01*
X34699772Y17179228D01*
X34669643Y17142516D01*
X34640737Y17177737D01*
X34572216Y17233971D01*
X34494041Y17275757D01*
X34409215Y17301489D01*
X34321000Y17310177D01*
X34008500Y17308000D01*
X33896000Y17195500D01*
X33896000Y16483000D01*
X33916000Y16483000D01*
X33916000Y16283000D01*
X33896000Y16283000D01*
X33896000Y16263000D01*
X33696000Y16263000D01*
X33696000Y16283000D01*
X32933500Y16283000D01*
X32821000Y16170500D01*
X32818823Y15908000D01*
X32827511Y15819785D01*
X32853243Y15734959D01*
X32895029Y15656784D01*
X32923039Y15622654D01*
X32851505Y15535490D01*
X32778486Y15398882D01*
X32733522Y15250653D01*
X32718339Y15096500D01*
X32718339Y14702000D01*
X22550661Y14702000D01*
X22540042Y14809819D01*
X22508592Y14913494D01*
X22457521Y15009042D01*
X22388790Y15092790D01*
X22305042Y15161521D01*
X22209494Y15212592D01*
X22105819Y15244042D01*
X21998000Y15254661D01*
X21522030Y15254661D01*
X21850369Y15583000D01*
X30440709Y15583000D01*
X30480000Y15579130D01*
X30519291Y15583000D01*
X30519293Y15583000D01*
X30636827Y15594576D01*
X30787628Y15640321D01*
X30926606Y15714607D01*
X31048422Y15814578D01*
X31073473Y15845103D01*
X32086370Y16858000D01*
X32818823Y16858000D01*
X32821000Y16595500D01*
X32933500Y16483000D01*
X33696000Y16483000D01*
X33696000Y17195500D01*
X33583500Y17308000D01*
X33271000Y17310177D01*
X33182785Y17301489D01*
X33097959Y17275757D01*
X33019784Y17233971D01*
X32951263Y17177737D01*
X32895029Y17109216D01*
X32853243Y17031041D01*
X32827511Y16946215D01*
X32818823Y16858000D01*
X32086370Y16858000D01*
X32716370Y17488000D01*
X36096628Y17488000D01*
X36135919Y17484130D01*
X36175210Y17488000D01*
X36175212Y17488000D01*
X36292746Y17499576D01*
X36443547Y17545321D01*
X36582525Y17619607D01*
X36704341Y17719578D01*
X36729392Y17750103D01*
X38471695Y19492406D01*
X38604552Y19359549D01*
X38833851Y19206336D01*
X39088635Y19100801D01*
X39359112Y19047000D01*
X39634888Y19047000D01*
X39905365Y19100801D01*
X40160149Y19206336D01*
X40389448Y19359549D01*
X40584451Y19554552D01*
X40737664Y19783851D01*
X40843199Y20038635D01*
X40897000Y20309112D01*
X40897000Y20584888D01*
X40843199Y20855365D01*
X40737664Y21110149D01*
X40584451Y21339448D01*
X40389448Y21534451D01*
X40160149Y21687664D01*
X40089326Y21717000D01*
X40160149Y21746336D01*
X40389448Y21899549D01*
X40584451Y22094552D01*
X40737664Y22323851D01*
X40843199Y22578635D01*
X40897000Y22849112D01*
X40897000Y23124888D01*
X40843199Y23395365D01*
X40737664Y23650149D01*
X40584451Y23879448D01*
X40389448Y24074451D01*
X40160149Y24227664D01*
X40089326Y24257000D01*
X40160149Y24286336D01*
X40389448Y24439549D01*
X40584451Y24634552D01*
X40737664Y24863851D01*
X40843199Y25118635D01*
X40897000Y25389112D01*
X40897000Y25664888D01*
X40843199Y25935365D01*
X40737664Y26190149D01*
X40584451Y26419448D01*
X40389448Y26614451D01*
X40163463Y26765450D01*
X40347000Y26764823D01*
X40435215Y26773511D01*
X40520041Y26799243D01*
X40598216Y26841029D01*
X40666737Y26897263D01*
X40722971Y26965784D01*
X40764757Y27043959D01*
X40790489Y27128785D01*
X40799177Y27217000D01*
X40797000Y27854500D01*
X40684500Y27967000D01*
X39597000Y27967000D01*
X39597000Y27947000D01*
X39397000Y27947000D01*
X39397000Y27967000D01*
X38309500Y27967000D01*
X38197000Y27854500D01*
X38194823Y27217000D01*
X38203511Y27128785D01*
X38229243Y27043959D01*
X38271029Y26965784D01*
X38327263Y26897263D01*
X38395784Y26841029D01*
X38473959Y26799243D01*
X38558785Y26773511D01*
X38647000Y26764823D01*
X38830537Y26765450D01*
X38604552Y26614451D01*
X38467101Y26477000D01*
X36003654Y26477000D01*
X35956999Y26481595D01*
X35910345Y26477000D01*
X35910335Y26477000D01*
X35770768Y26463254D01*
X35591692Y26408932D01*
X35426655Y26320718D01*
X35426653Y26320717D01*
X35426654Y26320717D01*
X35318245Y26231748D01*
X35318242Y26231745D01*
X35281999Y26202001D01*
X35252254Y26165757D01*
X32520000Y23433502D01*
X32006750Y23946752D01*
X31977001Y23983001D01*
X31832345Y24101718D01*
X31667308Y24189932D01*
X31488232Y24244254D01*
X31479661Y24245098D01*
X31479661Y24658000D01*
X31464238Y24814591D01*
X31418562Y24965165D01*
X31344388Y25103935D01*
X31244567Y25225567D01*
X31122935Y25325388D01*
X30984165Y25399562D01*
X30833591Y25445238D01*
X30677000Y25460661D01*
X26727000Y25460661D01*
X26570409Y25445238D01*
X26419835Y25399562D01*
X26281065Y25325388D01*
X26159433Y25225567D01*
X26059612Y25103935D01*
X25985438Y24965165D01*
X25939762Y24814591D01*
X25924339Y24658000D01*
X25924339Y21958000D01*
X25939762Y21801409D01*
X25985438Y21650835D01*
X26059612Y21512065D01*
X26159433Y21390433D01*
X26179457Y21374000D01*
X24874543Y21374000D01*
X24894567Y21390433D01*
X24994388Y21512065D01*
X25068562Y21650835D01*
X25114238Y21801409D01*
X25129661Y21958000D01*
X25129661Y24658000D01*
X25114238Y24814591D01*
X25068562Y24965165D01*
X24994388Y25103935D01*
X24894567Y25225567D01*
X24772935Y25325388D01*
X24634165Y25399562D01*
X24483591Y25445238D01*
X24327000Y25460661D01*
X20377000Y25460661D01*
X20220409Y25445238D01*
X20069835Y25399562D01*
X19931065Y25325388D01*
X19809433Y25225567D01*
X19709612Y25103935D01*
X19635438Y24965165D01*
X19589762Y24814591D01*
X19574339Y24658000D01*
X19574339Y24258000D01*
X19544654Y24258000D01*
X19498000Y24262595D01*
X19451345Y24258000D01*
X19451335Y24258000D01*
X19311768Y24244254D01*
X19132692Y24189932D01*
X18967655Y24101718D01*
X18967653Y24101717D01*
X18967654Y24101717D01*
X18859245Y24012748D01*
X18859242Y24012745D01*
X18822999Y23983001D01*
X18793254Y23946757D01*
X18730000Y23883503D01*
X18730000Y26024343D01*
X18734595Y26071000D01*
X18730000Y26117657D01*
X18730000Y26117665D01*
X18716254Y26257232D01*
X18670237Y26408931D01*
X18661932Y26436309D01*
X18573717Y26601346D01*
X18484748Y26709755D01*
X18484745Y26709758D01*
X18455001Y26746001D01*
X18418757Y26775746D01*
X18286503Y26908000D01*
X19674823Y26908000D01*
X19683511Y26819785D01*
X19709243Y26734959D01*
X19751029Y26656784D01*
X19807263Y26588263D01*
X19875784Y26532029D01*
X19953959Y26490243D01*
X20038785Y26464511D01*
X20127000Y26455823D01*
X22139500Y26458000D01*
X22252000Y26570500D01*
X22252000Y28408000D01*
X22452000Y28408000D01*
X22452000Y26570500D01*
X22564500Y26458000D01*
X24577000Y26455823D01*
X24665215Y26464511D01*
X24750041Y26490243D01*
X24828216Y26532029D01*
X24896737Y26588263D01*
X24952971Y26656784D01*
X24994757Y26734959D01*
X25020489Y26819785D01*
X25029177Y26908000D01*
X26024823Y26908000D01*
X26033511Y26819785D01*
X26059243Y26734959D01*
X26101029Y26656784D01*
X26157263Y26588263D01*
X26225784Y26532029D01*
X26303959Y26490243D01*
X26388785Y26464511D01*
X26477000Y26455823D01*
X28489500Y26458000D01*
X28602000Y26570500D01*
X28602000Y28408000D01*
X28802000Y28408000D01*
X28802000Y26570500D01*
X28914500Y26458000D01*
X30927000Y26455823D01*
X31015215Y26464511D01*
X31100041Y26490243D01*
X31178216Y26532029D01*
X31246737Y26588263D01*
X31302971Y26656784D01*
X31344757Y26734959D01*
X31370489Y26819785D01*
X31379177Y26908000D01*
X31377000Y28295500D01*
X31264500Y28408000D01*
X28802000Y28408000D01*
X28602000Y28408000D01*
X26139500Y28408000D01*
X26027000Y28295500D01*
X26024823Y26908000D01*
X25029177Y26908000D01*
X25027000Y28295500D01*
X24914500Y28408000D01*
X22452000Y28408000D01*
X22252000Y28408000D01*
X19789500Y28408000D01*
X19677000Y28295500D01*
X19674823Y26908000D01*
X18286503Y26908000D01*
X16116748Y29077754D01*
X16087001Y29114001D01*
X15942345Y29232718D01*
X15777308Y29320932D01*
X15598232Y29375254D01*
X15458665Y29389000D01*
X15458654Y29389000D01*
X15412000Y29393595D01*
X15365346Y29389000D01*
X15164661Y29389000D01*
X15164661Y29689000D01*
X15154042Y29796819D01*
X15122592Y29900494D01*
X15071521Y29996042D01*
X15002790Y30079790D01*
X14919042Y30148521D01*
X14823494Y30199592D01*
X14719819Y30231042D01*
X14612000Y30241661D01*
X12312000Y30241661D01*
X12204181Y30231042D01*
X12100506Y30199592D01*
X12004958Y30148521D01*
X11921210Y30079790D01*
X11852479Y29996042D01*
X11801408Y29900494D01*
X11769958Y29796819D01*
X11759339Y29689000D01*
X11759339Y29398000D01*
X6287064Y29398000D01*
X6229287Y29537487D01*
X5977573Y29914203D01*
X5657203Y30234573D01*
X5280487Y30486287D01*
X4923876Y30634000D01*
X16327823Y30634000D01*
X16327823Y29734000D01*
X16336511Y29645785D01*
X16362243Y29560959D01*
X16404029Y29482784D01*
X16460263Y29414263D01*
X16528784Y29358029D01*
X16606959Y29316243D01*
X16691785Y29290511D01*
X16780000Y29281823D01*
X17680000Y29281823D01*
X17680000Y30634000D01*
X17880000Y30634000D01*
X17880000Y29281823D01*
X18780000Y29281823D01*
X18868215Y29290511D01*
X18953041Y29316243D01*
X19031216Y29358029D01*
X19099737Y29414263D01*
X19155971Y29482784D01*
X19197757Y29560959D01*
X19223489Y29645785D01*
X19232177Y29734000D01*
X19232177Y30108000D01*
X19674823Y30108000D01*
X19677000Y28720500D01*
X19789500Y28608000D01*
X22252000Y28608000D01*
X22252000Y30445500D01*
X22452000Y30445500D01*
X22452000Y28608000D01*
X24914500Y28608000D01*
X25027000Y28720500D01*
X25029177Y30108000D01*
X26024823Y30108000D01*
X26027000Y28720500D01*
X26139500Y28608000D01*
X28602000Y28608000D01*
X28602000Y30445500D01*
X28802000Y30445500D01*
X28802000Y28608000D01*
X31264500Y28608000D01*
X31377000Y28720500D01*
X31377308Y28917000D01*
X38194823Y28917000D01*
X38197000Y28279500D01*
X38309500Y28167000D01*
X39397000Y28167000D01*
X39397000Y29254500D01*
X39597000Y29254500D01*
X39597000Y28167000D01*
X40684500Y28167000D01*
X40797000Y28279500D01*
X40799177Y28917000D01*
X40790489Y29005215D01*
X40764757Y29090041D01*
X40722971Y29168216D01*
X40666737Y29236737D01*
X40598216Y29292971D01*
X40520041Y29334757D01*
X40435215Y29360489D01*
X40347000Y29369177D01*
X39709500Y29367000D01*
X39597000Y29254500D01*
X39397000Y29254500D01*
X39284500Y29367000D01*
X38647000Y29369177D01*
X38558785Y29360489D01*
X38473959Y29334757D01*
X38395784Y29292971D01*
X38327263Y29236737D01*
X38271029Y29168216D01*
X38229243Y29090041D01*
X38203511Y29005215D01*
X38194823Y28917000D01*
X31377308Y28917000D01*
X31379177Y30108000D01*
X31370489Y30196215D01*
X31344757Y30281041D01*
X31302971Y30359216D01*
X31246737Y30427737D01*
X31178216Y30483971D01*
X31100041Y30525757D01*
X31015215Y30551489D01*
X30927000Y30560177D01*
X28914500Y30558000D01*
X28802000Y30445500D01*
X28602000Y30445500D01*
X28489500Y30558000D01*
X26477000Y30560177D01*
X26388785Y30551489D01*
X26303959Y30525757D01*
X26225784Y30483971D01*
X26157263Y30427737D01*
X26101029Y30359216D01*
X26059243Y30281041D01*
X26033511Y30196215D01*
X26024823Y30108000D01*
X25029177Y30108000D01*
X25020489Y30196215D01*
X24994757Y30281041D01*
X24952971Y30359216D01*
X24896737Y30427737D01*
X24828216Y30483971D01*
X24750041Y30525757D01*
X24665215Y30551489D01*
X24577000Y30560177D01*
X22564500Y30558000D01*
X22452000Y30445500D01*
X22252000Y30445500D01*
X22139500Y30558000D01*
X20127000Y30560177D01*
X20038785Y30551489D01*
X19953959Y30525757D01*
X19875784Y30483971D01*
X19807263Y30427737D01*
X19751029Y30359216D01*
X19709243Y30281041D01*
X19683511Y30196215D01*
X19674823Y30108000D01*
X19232177Y30108000D01*
X19232177Y30634000D01*
X31567823Y30634000D01*
X31567823Y29734000D01*
X31576511Y29645785D01*
X31602243Y29560959D01*
X31644029Y29482784D01*
X31700263Y29414263D01*
X31768784Y29358029D01*
X31846959Y29316243D01*
X31931785Y29290511D01*
X32020000Y29281823D01*
X32920000Y29281823D01*
X32920000Y30634000D01*
X33120000Y30634000D01*
X33120000Y29281823D01*
X34020000Y29281823D01*
X34108215Y29290511D01*
X34193041Y29316243D01*
X34271216Y29358029D01*
X34339737Y29414263D01*
X34395971Y29482784D01*
X34437757Y29560959D01*
X34463489Y29645785D01*
X34472177Y29734000D01*
X34472177Y30634000D01*
X33120000Y30634000D01*
X32920000Y30634000D01*
X31567823Y30634000D01*
X19232177Y30634000D01*
X17880000Y30634000D01*
X17680000Y30634000D01*
X16327823Y30634000D01*
X4923876Y30634000D01*
X4861903Y30659670D01*
X4417536Y30748060D01*
X3964464Y30748060D01*
X3520097Y30659670D01*
X3101513Y30486287D01*
X2724797Y30234573D01*
X2404427Y29914203D01*
X2152713Y29537487D01*
X1979330Y29118903D01*
X1890940Y28674536D01*
X854000Y28674536D01*
X854000Y31922000D01*
X16370239Y31922000D01*
X16362243Y31907041D01*
G36*
X28156001Y10717629D02*
G01*
X28156000Y6562822D01*
X28096319Y6602700D01*
X28118489Y6675785D01*
X28127177Y6764000D01*
X28125000Y7026500D01*
X28012500Y7139000D01*
X27250000Y7139000D01*
X27250000Y7119000D01*
X27050000Y7119000D01*
X27050000Y7139000D01*
X27030000Y7139000D01*
X27030000Y7339000D01*
X27050000Y7339000D01*
X27050000Y8051500D01*
X27250000Y8051500D01*
X27250000Y7339000D01*
X28012500Y7339000D01*
X28125000Y7451500D01*
X28127177Y7714000D01*
X28118489Y7802215D01*
X28092757Y7887041D01*
X28050971Y7965216D01*
X27994737Y8033737D01*
X27964252Y8058755D01*
X28008737Y8095263D01*
X28064971Y8163784D01*
X28106757Y8241959D01*
X28132489Y8326785D01*
X28141177Y8415000D01*
X28139000Y8677500D01*
X28026500Y8790000D01*
X27264000Y8790000D01*
X27264000Y8077500D01*
X27270000Y8071500D01*
X27250000Y8051500D01*
X27050000Y8051500D01*
X27044000Y8057500D01*
X27064000Y8077500D01*
X27064000Y8790000D01*
X27044000Y8790000D01*
X27044000Y8990000D01*
X27064000Y8990000D01*
X27064000Y9702500D01*
X27264000Y9702500D01*
X27264000Y8990000D01*
X28026500Y8990000D01*
X28139000Y9102500D01*
X28141177Y9365000D01*
X28132489Y9453215D01*
X28106757Y9538041D01*
X28064971Y9616216D01*
X28008737Y9684737D01*
X27940216Y9740971D01*
X27862041Y9782757D01*
X27777215Y9808489D01*
X27689000Y9817177D01*
X27376500Y9815000D01*
X27264000Y9702500D01*
X27064000Y9702500D01*
X26951500Y9815000D01*
X26639000Y9817177D01*
X26550785Y9808489D01*
X26465959Y9782757D01*
X26387784Y9740971D01*
X26319263Y9684737D01*
X26290357Y9649516D01*
X26260228Y9686228D01*
X26140490Y9784495D01*
X26003882Y9857514D01*
X25855653Y9902478D01*
X25701500Y9917661D01*
X25501935Y9917661D01*
X25498606Y9920393D01*
X25359628Y9994679D01*
X25208827Y10040424D01*
X25091293Y10052000D01*
X25091291Y10052000D01*
X25052000Y10055870D01*
X25012709Y10052000D01*
X24423000Y10052000D01*
X24423000Y10152002D01*
X24322108Y10152002D01*
X24363790Y10186210D01*
X24432521Y10269958D01*
X24483592Y10365506D01*
X24515042Y10469181D01*
X24525661Y10577000D01*
X24525661Y10852000D01*
X28021630Y10852000D01*
X28156001Y10717629D01*
G37*
X28156001Y10717629D02*
X28156000Y6562822D01*
X28096319Y6602700D01*
X28118489Y6675785D01*
X28127177Y6764000D01*
X28125000Y7026500D01*
X28012500Y7139000D01*
X27250000Y7139000D01*
X27250000Y7119000D01*
X27050000Y7119000D01*
X27050000Y7139000D01*
X27030000Y7139000D01*
X27030000Y7339000D01*
X27050000Y7339000D01*
X27050000Y8051500D01*
X27250000Y8051500D01*
X27250000Y7339000D01*
X28012500Y7339000D01*
X28125000Y7451500D01*
X28127177Y7714000D01*
X28118489Y7802215D01*
X28092757Y7887041D01*
X28050971Y7965216D01*
X27994737Y8033737D01*
X27964252Y8058755D01*
X28008737Y8095263D01*
X28064971Y8163784D01*
X28106757Y8241959D01*
X28132489Y8326785D01*
X28141177Y8415000D01*
X28139000Y8677500D01*
X28026500Y8790000D01*
X27264000Y8790000D01*
X27264000Y8077500D01*
X27270000Y8071500D01*
X27250000Y8051500D01*
X27050000Y8051500D01*
X27044000Y8057500D01*
X27064000Y8077500D01*
X27064000Y8790000D01*
X27044000Y8790000D01*
X27044000Y8990000D01*
X27064000Y8990000D01*
X27064000Y9702500D01*
X27264000Y9702500D01*
X27264000Y8990000D01*
X28026500Y8990000D01*
X28139000Y9102500D01*
X28141177Y9365000D01*
X28132489Y9453215D01*
X28106757Y9538041D01*
X28064971Y9616216D01*
X28008737Y9684737D01*
X27940216Y9740971D01*
X27862041Y9782757D01*
X27777215Y9808489D01*
X27689000Y9817177D01*
X27376500Y9815000D01*
X27264000Y9702500D01*
X27064000Y9702500D01*
X26951500Y9815000D01*
X26639000Y9817177D01*
X26550785Y9808489D01*
X26465959Y9782757D01*
X26387784Y9740971D01*
X26319263Y9684737D01*
X26290357Y9649516D01*
X26260228Y9686228D01*
X26140490Y9784495D01*
X26003882Y9857514D01*
X25855653Y9902478D01*
X25701500Y9917661D01*
X25501935Y9917661D01*
X25498606Y9920393D01*
X25359628Y9994679D01*
X25208827Y10040424D01*
X25091293Y10052000D01*
X25091291Y10052000D01*
X25052000Y10055870D01*
X25012709Y10052000D01*
X24423000Y10052000D01*
X24423000Y10152002D01*
X24322108Y10152002D01*
X24363790Y10186210D01*
X24432521Y10269958D01*
X24483592Y10365506D01*
X24515042Y10469181D01*
X24525661Y10577000D01*
X24525661Y10852000D01*
X28021630Y10852000D01*
X28156001Y10717629D01*
G36*
X21340181Y12559958D02*
G01*
X21448000Y12549339D01*
X21820339Y12549339D01*
X21820339Y12177000D01*
X21830958Y12069181D01*
X21836170Y12052000D01*
X21830958Y12034819D01*
X21820339Y11927000D01*
X21820339Y11377000D01*
X21830958Y11269181D01*
X21836170Y11252000D01*
X21830958Y11234819D01*
X21820339Y11127000D01*
X21820339Y10577000D01*
X21830958Y10469181D01*
X21862408Y10365506D01*
X21913479Y10269958D01*
X21982210Y10186210D01*
X22065958Y10117479D01*
X22161506Y10066408D01*
X22209002Y10052000D01*
X22161506Y10037592D01*
X22065958Y9986521D01*
X21982210Y9917790D01*
X21913479Y9834042D01*
X21862408Y9738494D01*
X21830958Y9634819D01*
X21820339Y9527000D01*
X21820339Y8977000D01*
X21830958Y8869181D01*
X21836170Y8852000D01*
X21830958Y8834819D01*
X21820339Y8727000D01*
X21820339Y8452000D01*
X17104370Y8452000D01*
X16773000Y8783370D01*
X16773000Y9797712D01*
X16776870Y9837003D01*
X16772979Y9876511D01*
X16761424Y9993829D01*
X16715679Y10144630D01*
X16641393Y10283608D01*
X16541422Y10405424D01*
X16510898Y10430474D01*
X16351475Y10589897D01*
X16326424Y10620422D01*
X16204608Y10720393D01*
X16065630Y10794679D01*
X15914829Y10840424D01*
X15797295Y10852000D01*
X15797293Y10852000D01*
X15758002Y10855870D01*
X15718711Y10852000D01*
X15636998Y10852000D01*
X15684494Y10866408D01*
X15780042Y10917479D01*
X15863790Y10986210D01*
X15932521Y11069958D01*
X15983592Y11165506D01*
X16015042Y11269181D01*
X16025661Y11377000D01*
X16025661Y11927000D01*
X16015042Y12034819D01*
X16009830Y12052000D01*
X16015042Y12069181D01*
X16025661Y12177000D01*
X16025661Y12549339D01*
X16398000Y12549339D01*
X16505819Y12559958D01*
X16523000Y12565170D01*
X16540181Y12559958D01*
X16648000Y12549339D01*
X17198000Y12549339D01*
X17305819Y12559958D01*
X17323000Y12565170D01*
X17340181Y12559958D01*
X17448000Y12549339D01*
X17998000Y12549339D01*
X18105819Y12559958D01*
X18123000Y12565170D01*
X18140181Y12559958D01*
X18248000Y12549339D01*
X18798000Y12549339D01*
X18905819Y12559958D01*
X18923000Y12565170D01*
X18940181Y12559958D01*
X19048000Y12549339D01*
X19598000Y12549339D01*
X19705819Y12559958D01*
X19723000Y12565170D01*
X19740181Y12559958D01*
X19848000Y12549339D01*
X20398000Y12549339D01*
X20505819Y12559958D01*
X20523000Y12565170D01*
X20540181Y12559958D01*
X20648000Y12549339D01*
X21198000Y12549339D01*
X21305819Y12559958D01*
X21323000Y12565170D01*
X21340181Y12559958D01*
G37*
X21340181Y12559958D02*
X21448000Y12549339D01*
X21820339Y12549339D01*
X21820339Y12177000D01*
X21830958Y12069181D01*
X21836170Y12052000D01*
X21830958Y12034819D01*
X21820339Y11927000D01*
X21820339Y11377000D01*
X21830958Y11269181D01*
X21836170Y11252000D01*
X21830958Y11234819D01*
X21820339Y11127000D01*
X21820339Y10577000D01*
X21830958Y10469181D01*
X21862408Y10365506D01*
X21913479Y10269958D01*
X21982210Y10186210D01*
X22065958Y10117479D01*
X22161506Y10066408D01*
X22209002Y10052000D01*
X22161506Y10037592D01*
X22065958Y9986521D01*
X21982210Y9917790D01*
X21913479Y9834042D01*
X21862408Y9738494D01*
X21830958Y9634819D01*
X21820339Y9527000D01*
X21820339Y8977000D01*
X21830958Y8869181D01*
X21836170Y8852000D01*
X21830958Y8834819D01*
X21820339Y8727000D01*
X21820339Y8452000D01*
X17104370Y8452000D01*
X16773000Y8783370D01*
X16773000Y9797712D01*
X16776870Y9837003D01*
X16772979Y9876511D01*
X16761424Y9993829D01*
X16715679Y10144630D01*
X16641393Y10283608D01*
X16541422Y10405424D01*
X16510898Y10430474D01*
X16351475Y10589897D01*
X16326424Y10620422D01*
X16204608Y10720393D01*
X16065630Y10794679D01*
X15914829Y10840424D01*
X15797295Y10852000D01*
X15797293Y10852000D01*
X15758002Y10855870D01*
X15718711Y10852000D01*
X15636998Y10852000D01*
X15684494Y10866408D01*
X15780042Y10917479D01*
X15863790Y10986210D01*
X15932521Y11069958D01*
X15983592Y11165506D01*
X16015042Y11269181D01*
X16025661Y11377000D01*
X16025661Y11927000D01*
X16015042Y12034819D01*
X16009830Y12052000D01*
X16015042Y12069181D01*
X16025661Y12177000D01*
X16025661Y12549339D01*
X16398000Y12549339D01*
X16505819Y12559958D01*
X16523000Y12565170D01*
X16540181Y12559958D01*
X16648000Y12549339D01*
X17198000Y12549339D01*
X17305819Y12559958D01*
X17323000Y12565170D01*
X17340181Y12559958D01*
X17448000Y12549339D01*
X17998000Y12549339D01*
X18105819Y12559958D01*
X18123000Y12565170D01*
X18140181Y12559958D01*
X18248000Y12549339D01*
X18798000Y12549339D01*
X18905819Y12559958D01*
X18923000Y12565170D01*
X18940181Y12559958D01*
X19048000Y12549339D01*
X19598000Y12549339D01*
X19705819Y12559958D01*
X19723000Y12565170D01*
X19740181Y12559958D01*
X19848000Y12549339D01*
X20398000Y12549339D01*
X20505819Y12559958D01*
X20523000Y12565170D01*
X20540181Y12559958D01*
X20648000Y12549339D01*
X21198000Y12549339D01*
X21305819Y12559958D01*
X21323000Y12565170D01*
X21340181Y12559958D01*
G36*
X13413479Y9469958D02*
G01*
X13482210Y9386210D01*
X13523892Y9352002D01*
X13423000Y9352002D01*
X13423000Y9303707D01*
X13369228Y9369228D01*
X13332516Y9399357D01*
X13367737Y9428263D01*
X13408934Y9478461D01*
X13413479Y9469958D01*
G37*
X13413479Y9469958D02*
X13482210Y9386210D01*
X13523892Y9352002D01*
X13423000Y9352002D01*
X13423000Y9303707D01*
X13369228Y9369228D01*
X13332516Y9399357D01*
X13367737Y9428263D01*
X13408934Y9478461D01*
X13413479Y9469958D01*
M02*
